<?xml version="1.0" encoding="UTF-8"?>
<svg version="1.1" xmlns="http://www.w3.org/2000/svg" width="1920" height="1080">
<path d="M0 0 C16.5 0 33 0 50 0 C50 52.14 50 104.28 50 158 C34.655 165.92 34.655 165.92 19 174 C11.78731482 177.78594456 11.78731482 177.78594456 4.58203125 181.5859375 C1.23246668 183.35521354 -2.12570531 185.10714259 -5.48828125 186.8515625 C-14.83774442 191.70344514 -24.15022088 196.60207807 -33.375 201.6875 C-43.37394916 207.19470135 -53.51293815 212.41043136 -63.67254639 217.61239624 C-72.17622365 221.96876568 -80.638364 226.37468825 -89 231 C-98.78656874 236.4135257 -108.72146377 241.51731961 -118.67529297 246.61376953 C-127.17806463 250.96968977 -135.63905779 255.37553515 -144 260 C-153.24585859 265.10978938 -162.60687973 269.9807041 -172 274.8125 C-172.69351562 275.16948975 -173.38703125 275.52647949 -174.1015625 275.89428711 C-177.46773174 277.62576841 -180.8373893 279.34974649 -184.21362305 281.06152344 C-186.54455046 282.24562332 -188.84346327 283.45986816 -191.13989258 284.71191406 C-202.80943201 290.92765751 -215.32801745 295.02791846 -227.75988388 299.43930435 C-231.01304794 300.59652669 -234.26194419 301.76559141 -237.51098633 302.93432617 C-242.65328238 304.78324687 -247.79666292 306.62909118 -252.94140625 308.47119141 C-265.51126369 312.97291247 -265.51126369 312.97291247 -278.05899048 317.53582764 C-279.44525614 318.04166246 -280.83303235 318.54338263 -282.22250366 319.04034424 C-294.97596676 323.60246494 -307.06007139 329.3559878 -317.9375 337.5 C-324.87855697 342.54662058 -331.96239649 347.33606149 -339.125 352.0625 C-346.2841478 356.79864552 -353.3266928 361.61310142 -360.1887207 366.76879883 C-367.05332686 371.87417712 -374.21355333 376.54458983 -381.3515625 381.25585938 C-382.32480469 381.89845703 -383.29804687 382.54105469 -384.30078125 383.203125 C-385.26918945 383.83992188 -386.23759766 384.47671875 -387.23535156 385.1328125 C-388.96117688 386.29839993 -390.66581643 387.49678649 -392.33496094 388.7421875 C-400.15718042 394.57638441 -408.80757123 398.4275273 -417.625 402.5 C-419.32791975 403.293978 -421.03046959 404.08874981 -422.73266602 404.88427734 C-425.32733492 406.09615973 -427.92253706 407.3068096 -430.51972961 408.51327515 C-435.77667714 410.95532291 -441.01514123 413.43185214 -446.23828125 415.9453125 C-460.13452423 422.61538739 -474.16323602 428.94099104 -488.38040161 434.89959717 C-490.1100096 435.62614576 -491.83719114 436.35850128 -493.56173706 437.09698486 C-495.97119588 438.1253984 -498.38973222 439.12841628 -500.8125 440.125 C-501.52261734 440.43247162 -502.23273468 440.73994324 -502.96437073 441.05673218 C-509.45040224 443.66381953 -514.13025314 443.02276376 -520.63818359 440.70336914 C-521.89624424 440.15788317 -523.14950491 439.60122949 -524.3984375 439.03515625 C-525.09376083 438.73055984 -525.78908417 438.42596344 -526.50547791 438.11213684 C-528.79957057 437.1049515 -531.08706952 436.08359605 -533.375 435.0625 C-535.00752239 434.3433498 -536.64059179 433.62544023 -538.27416992 432.90869141 C-540.84971603 431.77854825 -543.42491703 430.64768508 -545.9985199 429.51312256 C-554.85302226 425.61136484 -563.7492419 421.80932995 -572.64910889 418.01248169 C-577.93684474 415.75419424 -583.21933033 413.48365526 -588.50256348 411.21485901 C-592.53685395 409.48312473 -596.57247173 407.75473176 -600.61279297 406.03710938 C-617.55731098 398.83205614 -634.03871826 391.23707364 -650 382 C-651.36285256 381.22060409 -652.72609391 380.44188733 -654.08984375 379.6640625 C-655.53037109 378.84035156 -655.53037109 378.84035156 -657 378 C-656 375 -656 375 -654.0234375 373.83203125 C-643.89953735 369.93477765 -632.68490062 369.2281467 -622.33984375 372.89453125 C-614.7777196 376.46728773 -609.08810267 381.43902551 -604 388 C-600.4682364 386.30506881 -597.26748441 384.2717622 -594 382.12109375 C-587.93384201 378.72072785 -579.71754244 379.01036456 -573.16796875 380.75390625 C-564.72790275 383.98061814 -560.42071036 388.24964823 -556 396 C-554.9171875 395.566875 -554.9171875 395.566875 -553.8125 395.125 C-552.884375 394.75375 -551.95625 394.3825 -551 394 C-550.2471875 393.65324219 -549.494375 393.30648438 -548.71875 392.94921875 C-540.90006006 390.21941752 -532.30362732 391.47860826 -525 395 C-522 396.5625 -522 396.5625 -520 398 C-520 398.66 -520 399.32 -520 400 C-519.34 400 -518.68 400 -518 400 C-518 400.66 -518 401.32 -518 402 C-517.34 402 -516.68 402 -516 402 C-515.67 403.32 -515.34 404.64 -515 406 C-513.78376953 405.29423828 -513.78376953 405.29423828 -512.54296875 404.57421875 C-507.0077417 401.46186175 -502.22339232 398.83666736 -495.9375 397.5625 C-492.28505736 396.77935256 -492.28505736 396.77935256 -489.7109375 394.29296875 C-489.10724189 392.92021743 -488.539741 391.53102845 -488.0078125 390.12890625 C-485.58862995 385.01861752 -480.50946945 381.87084776 -475.75 379.125 C-470.54794202 377.56438261 -465.40651154 377.25745293 -460 377 C-460.495 376.154375 -460.99 375.30875 -461.5 374.4375 C-464.3686644 367.69819751 -464.08935241 359.1934211 -462.2734375 352.203125 C-460.35566606 347.55681695 -457.85027052 344.28681629 -454 341 C-453.175 340.278125 -452.35 339.55625 -451.5 338.8125 C-447.32926741 335.78871887 -443.47345747 334.74088279 -438.375 334.3125 C-437.43398437 334.22613281 -436.49296875 334.13976562 -435.5234375 334.05078125 C-433 334 -433 334 -430 335 C-429.9175 333.845 -429.835 332.69 -429.75 331.5 C-428.63358757 323.15628606 -424.76497523 318.04320179 -418.37109375 312.69921875 C-413.28000422 309.05074438 -408.32952182 307.52528586 -402 308 C-402.15726563 307.47664063 -402.31453125 306.95328125 -402.4765625 306.4140625 C-404.28342418 298.08092432 -403.94755901 289.60481303 -399.609375 282.18359375 C-395.7138061 276.898101 -391.46421067 273.41781729 -385.3125 271.125 C-380.51657411 269.24977638 -378.94804627 266.35955786 -376.77734375 261.828125 C-376.52082031 261.22484375 -376.26429688 260.6215625 -376 260 C-375.34 260 -374.68 260 -374 260 C-373.67 259.01 -373.34 258.02 -373 257 C-367.00383172 252.07144217 -359.96999693 249.49699138 -352.171875 249.75390625 C-344.22730086 250.6541008 -338.57763638 253.29308066 -333 259 C-330.28031206 257.75964023 -328.9183736 256.90877049 -326.875 254.625 C-320.63875545 248.93103759 -314.35885729 247.69974672 -306.0625 248.0625 C-304.79535156 248.15660156 -303.52820312 248.25070313 -302.22265625 248.34765625 C-301.15917969 248.23292969 -300.09570312 248.11820313 -299 248 C-297.13413203 245.58925432 -297.13413203 245.58925432 -296 243 C-295.34 243 -294.68 243 -294 243 C-293.65775391 242.12021484 -293.65775391 242.12021484 -293.30859375 241.22265625 C-289.82127835 235.29942501 -281.79745254 231.9650499 -275.4375 230.0625 C-268.29143847 228.4180938 -261.92185146 228.46922774 -254.8125 230.1875 C-249.77240305 231.32507674 -247.51029217 230.38780174 -243 228 C-239.39310976 226.99032474 -236.10662119 227.00068613 -232.37915039 227.16625977 C-225.25709417 227.45484397 -220.50759182 226.93357386 -214.26171875 223.1796875 C-210.58158193 221.26016881 -207.10576122 221.19866587 -203 221 C-202.61521484 219.87464844 -202.61521484 219.87464844 -202.22265625 218.7265625 C-198.19387349 207.95601196 -191.65909619 198.93811236 -181 194 C-171.07949024 189.72601506 -159.50805643 189.38139496 -149.3046875 192.9609375 C-141.80757615 196.34099109 -133.20789006 201.96890626 -129.80859375 209.71484375 C-129.54175781 210.46894531 -129.27492188 211.22304687 -129 212 C-128.38253906 211.52949219 -127.76507812 211.05898437 -127.12890625 210.57421875 C-120.94066298 206.02487096 -114.90516929 202 -107 202 C-106.814375 201.1646875 -106.814375 201.1646875 -106.625 200.3125 C-104.54930636 192.63243355 -100.51755656 187.73674502 -93.7109375 183.61328125 C-85.92044612 179.99717369 -76.93987509 179.69468064 -68.6875 182 C-67.3571875 182.495 -67.3571875 182.495 -66 183 C-65.64808594 182.34773437 -65.29617188 181.69546875 -64.93359375 181.0234375 C-60.41575628 173.02580354 -60.41575628 173.02580354 -56.25 170.1875 C-53.73159428 168.23971344 -53.07621548 167.31940012 -52.32421875 164.16796875 C-52.06169856 161.93256955 -51.81347913 159.69545366 -51.578125 157.45703125 C-50.08591625 148.53402621 -44.81714067 139.6128555 -37.59375 134.1953125 C-28.63862253 128.13299306 -20.79045104 125.4778814 -10 126 C-9.690625 125.38125 -9.38125 124.7625 -9.0625 124.125 C-8.375 122.75 -7.6875 121.375 -7 120 C-6.34 120 -5.68 120 -5 120 C-4.75507812 119.37996094 -4.51015625 118.75992188 -4.2578125 118.12109375 C-2.72869306 115.5424855 -1.59462025 115.19811204 1.125 114.0625 C3.37006488 112.89866046 3.37006488 112.89866046 5 111 C5.47956994 107.67886609 5.30550371 104.62818219 5.11328125 101.28125 C4.87296121 94.32025579 7.22339645 89.57964638 11.5625 84.25 C15.74965661 79.79773478 20.38443898 77.28995214 26 75 C25.34773438 74.6596875 24.69546875 74.319375 24.0234375 73.96875 C16.2505205 69.65810576 10.71415682 64.67296474 8 56 C7.81045251 53.32961033 7.72011033 50.79016186 7.75 48.125 C7.74226563 47.44308594 7.73453125 46.76117188 7.7265625 46.05859375 C7.74446258 41.35982327 8.53167548 37.4632404 10 33 C9.54109375 32.6596875 9.0821875 32.319375 8.609375 31.96875 C2.91546025 27.47103583 0.27157272 22.81471815 -2 16 C-2.3164672 9.77614514 -1.62029219 6.48116876 0 0 Z " fill="#F6F7F7" transform="translate(1870,0)"/>
<path d="M0 0 C5 0 5 0 7.68359375 2.30859375 C8.61799313 3.33686814 9.53529666 4.38086403 10.4375 5.4375 C10.91832031 5.98591553 11.39914062 6.53433105 11.89453125 7.09936523 C21.44294191 18.15906995 25.63543476 27.75219027 25.29296875 42.625 C24.77442532 48.59862036 23.3912415 53.79320314 20.1875 58.875 C19.795625 59.57625 19.40375 60.2775 19 61 C20.41832608 64.67271807 22.82800714 67.17754224 25.46484375 70.0234375 C30.21973249 76.14550799 30.43302285 81.40930585 30.43945312 88.81054688 C30.57009648 93.86959804 31.40633095 96.19653106 35 100 C36.99261387 104.05639252 38 106.45298172 38 111 C38.78761719 110.71125 39.57523438 110.4225 40.38671875 110.125 C51.78465997 106.2402579 62.72579848 105.10054893 74 110 C79.26709432 112.72120503 84.03882322 115.52332762 88 120 C88 120.66 88 121.32 88 122 C88.66 122 89.32 122 90 122 C90.84114171 123.43294498 91.67265687 124.87154405 92.5 126.3125 C93.19609375 127.51326172 93.19609375 127.51326172 93.90625 128.73828125 C95 131 95 131 95 134 C96.42892578 133.25943359 96.42892578 133.25943359 97.88671875 132.50390625 C99.15348171 131.85644963 100.42041801 131.20933206 101.6875 130.5625 C102.31333984 130.23701172 102.93917969 129.91152344 103.58398438 129.57617188 C109.27981435 126.68352524 113.7312331 125.85899174 120.0625 125.875 C121.59583984 125.87113281 121.59583984 125.87113281 123.16015625 125.8671875 C125.61649932 125.98206462 127.65768316 126.29224959 130 127 C128.4796948 131.3042407 125.24155018 133.28259347 121.625 135.75 C120.99577637 136.18900635 120.36655273 136.6280127 119.71826172 137.08032227 C114.91734866 140.41506286 110.05716838 143.66134635 105.1796875 146.8828125 C100.13094363 150.24450682 95.14410603 153.69513052 90.15234375 157.140625 C87.40255585 159.03810161 84.64468807 160.92279333 81.87890625 162.796875 C73.34898094 168.58893817 65.11274217 174.63944809 57 181 C54.3893847 183.01474976 51.77692699 185.02695281 49.15771484 187.03051758 C46.02473461 189.42997889 42.91557398 191.85566292 39.82421875 194.30859375 C13.57142786 215 13.57142786 215 0 215 C0 144.05 0 73.1 0 0 Z " fill="#F6F7F7" transform="translate(0,0)"/>
<path d="M0 0 C26.18843468 -0.73273341 26.18843468 -0.73273341 35.46484375 6.39453125 C37.33844085 8.35394196 38.52327603 10.4663197 39.875 12.8125 C41.25781508 15.1882092 41.25781508 15.1882092 43 17 C45.30905791 17.50808347 47.15757564 17.31557822 49.50390625 17.07421875 C56.71677112 16.85975172 63.44035927 20.77294014 68.7578125 25.33984375 C70.35795209 27.47839509 70.63699021 29.38367333 71 32 C67.10819127 35.15321729 63.1169675 37.82484137 58 38 C51.56807686 36.01818269 46.03075945 31.64074362 40.58740234 27.80322266 C36.54845632 24.98838444 32.36496345 22.4149589 28.1875 19.8125 C26.62703476 18.82120828 25.06712888 17.82903542 23.5078125 16.8359375 C18.632177 13.74964137 13.69169095 10.77725061 8.7175293 7.8527832 C2.5334372 4.19730549 2.5334372 4.19730549 0 2 C0 1.34 0 0.68 0 0 Z " fill="#F3F7F7" transform="translate(606,262)"/>
<path d="M0 0 C0.33 0 0.66 0 1 0 C1.41129032 10.28225806 1.41129032 10.28225806 -1 15 C-3.1901932 17.20030957 -5.52281823 19.13217845 -8 21 C-8 20.01 -8 19.02 -8 18 C-7.05125 17.38125 -6.1025 16.7625 -5.125 16.125 C-1.53913344 13.41022838 -1.26469108 10.51952565 -0.625 6.1875 C-0.39181081 4.12766218 -0.17540634 2.06556085 0 0 Z " fill="#DDFAF7" transform="translate(1819,154)"/>
<path d="M0 0 C0.66 0.33 1.32 0.66 2 1 C0.7315625 1.804375 0.7315625 1.804375 -0.5625 2.625 C-4.30774716 5.10991339 -7.64327872 8.02066159 -11 11 C-11 8 -11 8 -9.35546875 6.2109375 C-8.28232422 5.30214844 -8.28232422 5.30214844 -7.1875 4.375 C-6.47980469 3.76398438 -5.77210937 3.15296875 -5.04296875 2.5234375 C-3 1 -3 1 0 0 Z " fill="#E0F9F7" transform="translate(1892,77)"/>
<path d="M0 0 C0.66 0.33 1.32 0.66 2 1 C0.54782324 2.50596108 -0.91192861 4.00462104 -2.375 5.5 C-3.18710938 6.3353125 -3.99921875 7.170625 -4.8359375 8.03125 C-7 10 -7 10 -9 10 C-7.61811547 6.78956118 -6.07578097 4.95063635 -3.375 2.75 C-2.74335937 2.22921875 -2.11171875 1.7084375 -1.4609375 1.171875 C-0.73777344 0.59179688 -0.73777344 0.59179688 0 0 Z " fill="#E3F8F7" transform="translate(1454,311)"/>
</svg>
