<?xml version="1.0" encoding="UTF-8"?>
<svg version="1.1" xmlns="http://www.w3.org/2000/svg" width="1920" height="1080">
<path d="M0 0 C2.91330688 0.60085458 5.00859252 1.46704719 7.4765625 3.1171875 C8.13849609 3.55393799 8.80042969 3.99068848 9.48242188 4.44067383 C10.18947266 4.91400146 10.89652344 5.3873291 11.625 5.875 C17.84694674 9.97625928 24.12454332 13.9541102 30.5 17.8125 C35.68065116 20.95319814 40.80005139 24.13596944 45.80859375 27.546875 C49.72032698 30.14075158 53.74550666 32.55280963 57.75 35 C60.64606307 36.78219266 63.51468445 38.59872571 66.375 40.4375 C74.59941159 45.69066463 82.99486979 50.66589122 91.421875 55.5859375 C98.03326293 59.44739855 104.58485525 63.29013269 110.890625 67.640625 C113.39452579 69.25424996 115.98717931 70.61692645 118.625 72 C123.36435464 74.53298841 127.15569121 77.2411203 131 81 C131 81.66 131 82.32 131 83 C131.66 83 132.32 83 133 83 C133 83.66 133 84.32 133 85 C133.54398438 85.22558594 134.08796875 85.45117188 134.6484375 85.68359375 C137.73640119 87.41223787 140.04454974 89.64550144 142.625 92.0625 C146.04209753 95.41533647 146.04209753 95.41533647 150 98 C150 98.66 150 99.32 150 100 C150.59296875 100.26296875 151.1859375 100.5259375 151.796875 100.796875 C154.09892907 102.05402509 155.47383383 103.33587918 157.25 105.25 C160.40396375 108.52711201 163.762196 111.15218508 167.49609375 113.73828125 C167.99238281 114.15464844 168.48867188 114.57101562 169 115 C169 115.66 169 116.32 169 117 C169.53625 117.226875 170.0725 117.45375 170.625 117.6875 C176.28451863 120.81512872 181.0620634 125.69050082 185.328125 130.49609375 C186.9156108 132.21340401 186.9156108 132.21340401 190 134 C196.08820933 133.60547527 202.15699882 131.0165343 207.83984375 128.92578125 C209.49642767 128.33439738 211.15333907 127.7439302 212.81054688 127.15429688 C215.37879042 126.23505076 217.94431526 125.30999491 220.50463867 124.36889648 C238.57111926 117.75127118 238.57111926 117.75127118 247 120 C248.23105469 120.2165625 249.46210937 120.433125 250.73046875 120.65625 C260.7073451 123.09128423 268.46766321 127.37686379 277 133 C278.83199243 134.16877113 280.6652152 135.33561734 282.5 136.5 C283.80324219 137.33724609 283.80324219 137.33724609 285.1328125 138.19140625 C289.15293173 140.72725803 293.23213144 143.16013996 297.31469727 145.59375 C301.38259095 148.0208083 305.41733335 150.49424557 309.4375 153 C314.9173704 156.38620984 320.48932997 159.57216483 326.11547852 162.70605469 C330.23506208 165.0009598 334.31632199 167.34813792 338.375 169.75 C342.50463383 172.17043959 346.67210948 174.39028355 350.97265625 176.48828125 C355.18427949 178.59137569 359.33889927 180.79899777 363.5 183 C370.83963931 186.88122586 370.83963931 186.88122586 378.25 190.625 C382.06282734 192.5086796 385.8144153 194.49045959 389.5625 196.5 C391.58395368 197.57814354 393.60590685 198.65534617 395.62792969 199.73242188 C397.31010514 200.63133655 398.99024184 201.53407116 400.66894531 202.43945312 C415.91186528 210.64438657 431.38504468 217.80493868 447.35693359 224.46875 C452.96238773 226.82482883 458.53675954 229.25121025 464.11172485 231.67834473 C467.25016992 233.04399313 470.39069114 234.40484623 473.53125 235.765625 C474.15014603 236.03381042 474.76904205 236.30199585 475.4066925 236.57830811 C493.86219664 244.57320931 512.34818979 252.47220803 531 260 C527.96087572 262.02608286 525.21962438 263.0811553 521.8125 264.375 C512.77484802 268.06265522 505.61666409 274.01713263 498 280 C485.42975338 289.81426697 472.35621688 297.26819427 458.11328125 304.41357422 C453.26896132 306.88208041 448.51194962 309.50219911 443.75 312.125 C442.85547119 312.60864014 441.96094238 313.09228027 441.03930664 313.59057617 C436.4830429 316.05571116 431.99432624 318.58906821 427.55859375 321.265625 C425.76831001 322.30222297 423.97794823 323.33868618 422.1875 324.375 C421.4130957 324.87016113 420.63869141 325.36532227 419.84082031 325.87548828 C412.31974619 330.13079191 405.34003359 328.73714743 397.21511841 327.36090088 C394.4229683 326.9059864 391.62338164 326.57086025 388.81477356 326.23602295 C363.90177293 323.18817453 340.85750093 316.07891664 317.24517822 307.78302002 C314.08269679 306.68008474 310.9077987 305.61800829 307.73046875 304.55859375 C283.18756339 296.32654678 283.18756339 296.32654678 273.72021484 290.62768555 C263.27683515 284.65935976 251.69309727 283.20468664 240 281.0625 C225.30287761 278.35854195 211.34757549 275.22059965 197.36584473 269.8944397 C194.21443575 268.70300678 191.04184605 267.5751676 187.86737061 266.44694519 C184.79442771 265.35399519 181.72712831 264.24567578 178.65966797 263.13745117 C176.34022586 262.2999437 174.01974214 261.46536554 171.69921875 260.63085938 C148.98334736 252.44625395 148.98334736 252.44625395 143.875 248.4375 C138.72712193 244.52395095 133.4599721 240.85058939 128.11474609 237.21533203 C124.84285646 234.98137863 121.6000378 232.72663218 118.42578125 230.35546875 C105.37861362 220.62525193 91.14278713 214.57688205 76.20623779 208.27993774 C68.97374647 205.22679473 61.88881993 202.07939233 55 198.3125 C36.61317085 188.26150712 19.09000953 182.68199847 -1.5 178.625 C-5.23757056 177.86498857 -8.97375783 177.0984422 -12.70983887 176.33114624 C-15.01049751 175.86115747 -17.31226768 175.39656124 -19.61535645 174.93862915 C-39.28572251 171.00767083 -39.28572251 171.00767083 -47.93359375 167.28515625 C-49.14297607 166.77057861 -50.3523584 166.25600098 -51.59838867 165.72583008 C-52.22248627 165.45541901 -52.84658386 165.18500793 -53.48959351 164.90640259 C-55.50827239 164.03183888 -57.53140207 163.16835558 -59.5559082 162.30737305 C-62.3621465 161.11354544 -65.16691785 159.91637337 -67.97070312 158.71679688 C-73.85739024 156.20312065 -79.77106976 153.75518792 -85.6875 151.3125 C-86.82654785 150.84118652 -87.9655957 150.36987305 -89.13916016 149.88427734 C-96.76448175 146.73395303 -104.3999986 143.60903141 -112.0390625 140.4921875 C-113.00759659 140.09680283 -113.97613068 139.70141815 -114.97401428 139.29405212 C-119.78911443 137.32849643 -124.60503247 135.36499988 -129.42260742 133.40551758 C-137.63142736 130.06102036 -145.82514237 126.69081703 -153.94921875 123.14453125 C-154.89641533 122.73155037 -154.89641533 122.73155037 -155.86274719 122.31022644 C-159.63337857 120.64882953 -163.32859206 118.8698509 -167 117 C-166.505 116.01 -166.505 116.01 -166 115 C-165.30551758 114.86698486 -164.61103516 114.73396973 -163.89550781 114.59692383 C-160.16041148 113.82691451 -157.03058854 112.18663716 -153.671875 110.44921875 C-152.97173279 110.09268723 -152.27159058 109.7361557 -151.55023193 109.36882019 C-149.36338837 108.25243456 -147.1814185 107.12694319 -145 106 C-143.67386973 105.3197431 -142.34769915 104.63956478 -141.02148438 103.95947266 C-137.08542689 101.9335371 -133.16413614 99.88044085 -129.25 97.8125 C-128.55922363 97.44760468 -127.86844727 97.08270935 -127.15673828 96.70675659 C-116.08766565 90.83737764 -105.51482069 84.48199748 -95.14794922 77.43603516 C-91.67641444 75.11510227 -88.11840631 72.93841389 -84.5625 70.75 C-82.03685508 69.17425054 -79.51759832 67.58856527 -77 66 C-76.41637695 65.63487305 -75.83275391 65.26974609 -75.23144531 64.89355469 C-65.73726814 58.8958167 -58.03017556 51.86600606 -51.39453125 42.80859375 C-45.98453881 35.62911317 -37.82037421 32.22541232 -30.04492188 28.1015625 C-19.34436762 22.33736708 -11.94678337 14.53917162 -4.6640625 4.90625 C-3.84035156 3.96265625 -3.84035156 3.96265625 -3 3 C-2.34 3 -1.68 3 -1 3 C-0.67 2.01 -0.34 1.02 0 0 Z " fill="#BDE8FE" transform="translate(829,183)"/>
</svg>
