<?xml version="1.0" encoding="UTF-8"?>
<svg version="1.1" xmlns="http://www.w3.org/2000/svg" width="1920" height="1080">
<path d="M0 0 C1.2834444 0.55733873 2.56647567 1.11562965 3.84912109 1.67480469 C5.19286727 2.22316733 6.53844064 2.76707236 7.88574219 3.30664062 C10.57933041 4.38900069 13.26343977 5.49120369 15.94335938 6.60693359 C19.96783668 8.26254784 24.06320811 9.64132596 28.1965332 10.99902344 C41.61656016 15.4719441 53.77636044 22.29421979 66.09130859 29.13769531 C71.78815623 32.2980525 77.54008149 35.35606877 83.28662109 38.42480469 C84.42566895 39.03525635 85.5647168 39.64570801 86.73828125 40.2746582 C96.02933676 45.25223919 105.34350219 50.18561688 114.66162109 55.11230469 C127.61658016 61.96312388 140.56906903 68.81787177 153.46240234 75.78417969 C157.31222702 77.86338002 161.17831191 79.89711308 165.07958984 81.87792969 C174.44540925 86.70449263 180.54550889 91.30510311 186.66162109 100.11230469 C188.24931756 102.10470809 189.85347091 104.08411286 191.47412109 106.04980469 C192.53566406 107.36271484 192.53566406 107.36271484 193.61865234 108.70214844 C197.30444976 113.05040276 200.36915707 115.70419032 205.61474609 118.06542969 C206.78303955 118.59797363 207.95133301 119.13051758 209.1550293 119.67919922 C210.07501205 120.0913266 210.07501205 120.0913266 211.01358032 120.51177979 C214.2156227 121.94663662 217.40439449 123.41052058 220.59521484 124.87011719 C221.22006271 125.15494965 221.84491058 125.4397821 222.48869324 125.73324585 C227.03370895 127.80925248 231.51872575 129.9771292 235.97412109 132.23730469 C237.79853521 133.15735827 239.62307951 134.07715558 241.44859314 134.99502563 C242.96672707 135.76147742 244.48228241 136.53305182 245.99562073 137.30892944 C262.70683063 145.83647141 279.77419677 151.75577513 297.64672852 157.34716797 C310.81155345 161.48974802 323.21961894 165.58844358 334.91775513 173.01000977 C336.6767085 174.12184141 338.45523501 175.19212312 340.24536133 176.25292969 C343.73514041 178.32337183 347.19969456 180.43322327 350.66162109 182.54980469 C351.87684279 183.28948794 353.09217619 184.02898771 354.30761719 184.76831055 C361.65785815 189.2452822 368.98520591 193.7590065 376.22021484 198.4206543 C379.20295888 200.47309515 379.20295888 200.47309515 382.66162109 201.11230469 C382.66162109 201.77230469 382.66162109 202.43230469 382.66162109 203.11230469 C383.62068359 203.44294922 383.62068359 203.44294922 384.59912109 203.78027344 C388.85041727 205.62937037 392.70512066 208.01833685 396.66162109 210.42480469 C397.53157715 210.95025879 398.4015332 211.47571289 399.29785156 212.01708984 C406.67336564 216.48354187 414.00988198 221.01330765 421.32958984 225.57055664 C422.14298828 226.07675537 422.95638672 226.5829541 423.79443359 227.10449219 C424.58495117 227.59788086 425.37546875 228.09126953 426.18994141 228.59960938 C427.94662432 229.67471875 429.71862113 230.72497928 431.50048828 231.7578125 C432.87575684 232.55590332 432.87575684 232.55590332 434.27880859 233.37011719 C435.53733643 234.08772217 435.53733643 234.08772217 436.82128906 234.81982422 C437.42859863 235.24634277 438.0359082 235.67286133 438.66162109 236.11230469 C438.66162109 236.77230469 438.66162109 237.43230469 438.66162109 238.11230469 C439.54591797 238.38816406 440.43021484 238.66402344 441.34130859 238.94824219 C444.35887889 240.00616683 446.97318771 241.23400745 449.78662109 242.73730469 C457.53332867 246.67229079 465.58616183 249.74789184 473.66601562 252.92480469 C479.3472196 255.17691358 485.00319417 257.49120387 490.66162109 259.79980469 C492.32463257 260.47692505 492.32463257 260.47692505 494.02124023 261.16772461 C501.24932157 264.11462013 508.46055834 267.10003598 515.66162109 270.11230469 C517.48583709 270.8753321 519.3100558 271.63835302 521.13427734 272.40136719 C522.03823242 272.77986816 522.9421875 273.15836914 523.87353516 273.54833984 C525.86202548 274.37772901 527.8524156 275.20257167 529.84423828 276.02392578 C535.24862195 278.2541901 540.62132125 280.52902312 545.95458984 282.92480469 C563.72742868 290.75793841 581.53169455 294.9026779 600.49224854 298.67803955 C605.22061556 299.62456436 609.94096063 300.60904218 614.65991211 301.60131836 C616.99016579 302.09027162 619.32256585 302.56916351 621.6574707 303.03540039 C631.13736538 304.99537245 639.52918887 308.37151345 648.09912109 312.79980469 C649.50073143 313.50958814 650.90310687 314.21786233 652.30615234 314.92480469 C653.02496582 315.28703125 653.7437793 315.64925781 654.484375 316.02246094 C663.9273465 320.74924102 673.48208413 325.20363252 683.18896484 329.36230469 C683.84928711 329.64568192 684.50960937 329.92905914 685.18994141 330.22102356 C688.48200323 331.63189651 691.77773415 333.03304387 695.08007812 334.41967773 C705.74499408 338.93499266 715.15292031 344.61458565 724.66162109 351.17480469 C725.87168823 352.00419556 725.87168823 352.00419556 727.10620117 352.8503418 C733.67101607 357.37254303 740.13561718 362.02839998 746.52294922 366.7980957 C747.21195313 367.30526123 747.90095703 367.81242676 748.61083984 368.33496094 C749.49775513 368.99637085 749.49775513 368.99637085 750.40258789 369.67114258 C756.13118559 373.3257316 762.24922971 375.84184219 768.65771484 378.03027344 C769.7695388 378.41796654 769.7695388 378.41796654 770.90382385 378.81349182 C773.3003253 379.64795984 775.69939695 380.47465354 778.09912109 381.29980469 C781.47365049 382.46277532 784.84738571 383.62800572 788.22021484 384.79589844 C789.04919281 385.08256378 789.87817078 385.36922913 790.73226929 385.6645813 C795.22247633 387.22764476 799.66284454 388.86457014 804.07177734 390.64746094 C816.43172962 395.58866769 828.58883991 398.34674155 841.64041138 400.70217896 C858.697555 403.78721174 873.67428268 407.88806198 889.30541992 415.37670898 C890.66211747 416.02621684 892.01913247 416.67506202 893.37646484 417.32324219 C894.04573502 417.64325699 894.71500519 417.96327179 895.40455627 418.29298401 C907.0192654 423.73780938 919.42289226 427.31122632 931.63427734 431.15962219 C935.65717926 432.43614441 939.60842929 433.81103064 943.54052734 435.35058594 C957.47820075 440.71494883 971.72302033 443.13654187 986.41162109 445.54980469 C987.45893402 445.72378784 988.50624695 445.897771 989.58529663 446.07702637 C992.66580886 446.5820531 995.74869881 447.06779915 998.83349609 447.54589844 C999.72589493 447.69028854 1000.61829376 447.83467865 1001.53773499 447.98344421 C1011.2983465 449.4385629 1020.64597154 449.61152221 1030.66162109 450.11230469 C1030.66162109 554.06230469 1030.66162109 658.01230469 1030.66162109 765.11230469 C961.36162109 765.11230469 892.06162109 765.11230469 820.66162109 765.11230469 C820.66162109 754.22230469 820.66162109 743.33230469 820.66162109 732.11230469 C629.92162109 732.11230469 439.18162109 732.11230469 242.66162109 732.11230469 C242.66162109 684.92230469 242.66162109 637.73230469 242.66162109 589.11230469 C239.69162109 590.76230469 236.72162109 592.41230469 233.66162109 594.11230469 C233.00162109 594.11230469 232.34162109 594.11230469 231.66162109 594.11230469 C232.19563006 590.19623894 232.85831577 587.71891534 234.66162109 584.11230469 C156.12162109 583.78230469 77.58162109 583.45230469 -3.33837891 583.11230469 C-3.33837891 539.88230469 -3.33837891 496.65230469 -3.33837891 452.11230469 C-75.93837891 452.11230469 -148.53837891 452.11230469 -223.33837891 452.11230469 C-223.33837891 353.44230469 -223.33837891 254.77230469 -223.33837891 153.11230469 C-215.74837891 150.14230469 -208.15837891 147.17230469 -200.33837891 144.11230469 C-194.69435555 140.03404265 -189.44324654 136.184308 -184.21044922 131.69726562 C-181.72966568 129.59694654 -179.14420544 127.66232786 -176.52587891 125.73730469 C-172.94367703 123.08001559 -169.39922102 120.38667828 -165.88525391 117.63964844 C-152.84119944 107.48944398 -139.30939319 98.2759115 -125.51025391 89.20605469 C-120.88388291 86.15219403 -116.29206498 83.04957983 -111.71337891 79.92480469 C-110.62355713 79.18677612 -110.62355713 79.18677612 -109.51171875 78.43383789 C-104.28905361 74.86348962 -99.29593045 71.04078134 -94.33837891 67.11230469 C-93.51208984 66.46003906 -92.68580078 65.80777344 -91.83447266 65.13574219 C-80.26792145 55.87372205 -68.78693221 46.50679595 -57.359375 37.07397461 C-54.30619425 34.55395068 -51.25213431 32.03580736 -48.17431641 29.54589844 C-42.04963373 24.5857681 -36.16500137 19.41800396 -30.33837891 14.11230469 C-28.86417473 12.77348661 -27.38538456 11.43969113 -25.90087891 10.11230469 C-25.28341797 9.55542969 -24.66595703 8.99855469 -24.02978516 8.42480469 C-22.33837891 7.11230469 -22.33837891 7.11230469 -19.33837891 6.11230469 C-19.33837891 5.45230469 -19.33837891 4.79230469 -19.33837891 4.11230469 C-13.3953084 -3.51665927 -8.54451638 -3.36688274 0 0 Z " fill="#97DCFE" transform="translate(223.33837890625,60.8876953125)"/>
<path d="M0 0 C6.82346784 3.41173392 9.51332327 9.70757431 12.75 16.3125 C13.26433594 17.35083984 13.26433594 17.35083984 13.7890625 18.41015625 C16.25384431 23.41168431 18.63790501 28.4493416 21 33.5 C28.75394288 50.23475739 28.75394288 50.23475739 38.1015625 66.10546875 C39.5390518 68.29719627 40.91966131 70.49570196 42.2734375 72.73828125 C48.6097152 83.19599364 55.78992912 92.62675051 63.51953125 102.08203125 C68.99431562 109.00949473 72.29003436 115.61444595 75 124 C78.21942187 133.88536175 81.91880509 143.44255719 86 153 C86.4228125 153.99128906 86.845625 154.98257813 87.28125 156.00390625 C90.0014083 162.17021104 93.1233162 168.08333345 96.40991211 173.96337891 C99 178.67794889 99 178.67794889 99 182 C99.66 182 100.32 182 101 182 C104.36905028 188.0141724 105.87313451 193.19139737 106.75 200 C106.87503906 200.85078125 107.00007813 201.7015625 107.12890625 202.578125 C107.47386137 205.04967157 107.75707119 207.51647306 108 210 C108.10948975 211.07906616 108.10948975 211.07906616 108.22119141 212.17993164 C108.52060356 217.5101051 107.04102597 220.2527033 103.875 224.4375 C103.04727686 225.55402069 102.22045784 226.67121219 101.39453125 227.7890625 C100.9867041 228.32950195 100.57887695 228.86994141 100.15869141 229.42675781 C98.01170781 232.3418784 96.12062005 235.42682232 94.19140625 238.48828125 C93.79824219 238.98714844 93.40507812 239.48601562 93 240 C92.34 240 91.68 240 91 240 C91 240.66 91 241.32 91 242 C89.28048026 243.53851766 87.49812503 245.00731759 85.6875 246.4375 C81.83532998 249.45235569 81.83532998 249.45235569 78.26953125 252.78515625 C77 254 77 254 75 254 C75 254.66 75 255.32 75 256 C72.625 257.6875 72.625 257.6875 70 259 C69.34 258.67 68.68 258.34 68 258 C67.76152344 258.52335937 67.52304687 259.04671875 67.27734375 259.5859375 C62.32238519 268.95035459 53.15420695 283.32311388 42.6796875 286.76171875 C42.12539062 286.84035156 41.57109375 286.91898437 41 287 C40.67 286.34 40.34 285.68 40 285 C39.27296875 286.09957031 38.5459375 287.19914062 37.796875 288.33203125 C31.59287944 297.52868932 25.28680081 306.65271877 16 313 C14.02 313.33 12.04 313.66 10 314 C10 360.2 10 406.4 10 454 C6.08448995 455.30517002 2.36788889 455.13428677 -1.71281433 455.12025452 C-2.61158295 455.12111053 -3.51035156 455.12196655 -4.43635559 455.12284851 C-7.4695532 455.12450896 -10.50269608 455.11897152 -13.53588867 455.11352539 C-15.73896184 455.11321919 -17.9420351 455.11335232 -20.14510822 455.11389065 C-26.05805337 455.1141169 -31.97097838 455.10831064 -37.88391876 455.10128021 C-43.42737391 455.09559572 -48.97082411 455.09531766 -54.51428223 455.09460449 C-70.73869083 455.08935199 -86.96309567 455.07539091 -103.1875 455.0625 C-139.425625 455.041875 -175.66375 455.02125 -213 455 C-213 356.33 -213 257.66 -213 156 C-205.41 153.03 -197.82 150.06 -190 147 C-184.35597665 142.92173796 -179.10486763 139.07200331 -173.87207031 134.58496094 C-171.39128677 132.48464185 -168.80582653 130.55002317 -166.1875 128.625 C-162.60529812 125.9677109 -159.06084211 123.2743736 -155.546875 120.52734375 C-142.50282054 110.37713929 -128.97101429 101.16360681 -115.171875 92.09375 C-110.545504 89.03988934 -105.95368607 85.93727515 -101.375 82.8125 C-100.28517822 82.07447144 -100.28517822 82.07447144 -99.17333984 81.3215332 C-93.95067471 77.75118493 -88.95755154 73.92847666 -84 70 C-83.17371094 69.34773438 -82.34742188 68.69546875 -81.49609375 68.0234375 C-69.92954254 58.76141737 -58.44855331 49.39449126 -47.02099609 39.96166992 C-43.96781534 37.44164599 -40.9137554 34.92350267 -37.8359375 32.43359375 C-31.71125482 27.47346341 -25.82662247 22.30569927 -20 17 C-18.52579582 15.66118192 -17.04700565 14.32738644 -15.5625 13 C-14.94503906 12.443125 -14.32757813 11.88625 -13.69140625 11.3125 C-12 10 -12 10 -9 9 C-9 8.34 -9 7.68 -9 7 C-7.03125 5.2734375 -7.03125 5.2734375 -4.5 3.375 C-3.6646875 2.74335937 -2.829375 2.11171875 -1.96875 1.4609375 C-1.3190625 0.97882812 -0.669375 0.49671875 0 0 Z " fill="#6ACEFE" transform="translate(213,58)"/>
<path d="M0 0 C0.66 0.33 1.32 0.66 2 1 C-2.05489233 5.27083334 -5.96318503 8.92877136 -11 12 C-11.66 11.67 -12.32 11.34 -13 11 C-8.71 7.37 -4.42 3.74 0 0 Z " fill="#85DCFA" transform="translate(140,119)"/>
<path d="" fill="#ABDEFA" transform="translate(0,0)"/>
</svg>
