<?xml version="1.0" encoding="UTF-8"?>
<svg version="1.1" xmlns="http://www.w3.org/2000/svg" width="1920" height="1080">
<path d="M0 0 C0 304.59 0 609.18 0 923 C-425.37 923 -850.74 923 -1289 923 C-1289 900 -1289 900 -1288 899 C-1287.86773001 897.63283803 -1287.79683116 896.25959334 -1287.75390625 894.88671875 C-1287.72103516 894.05076172 -1287.68816406 893.21480469 -1287.65429688 892.35351562 C-1287.59350649 890.58800762 -1287.53616738 888.82237713 -1287.48242188 887.05664062 C-1287.43118164 885.7969043 -1287.43118164 885.7969043 -1287.37890625 884.51171875 C-1287.3538501 883.74303467 -1287.32879395 882.97435059 -1287.30297852 882.18237305 C-1286.96732233 879.7646207 -1286.12873075 878.14671499 -1285 876 C-1284.76173772 874.00726096 -1284.60022142 872.00442846 -1284.5 870 C-1284.22126188 864.42523768 -1284.22126188 864.42523768 -1283 862.078125 C-1281.52459618 859.01205143 -1281.63687538 856.13082185 -1281.5 852.75 C-1281.22988508 847.26474253 -1280.61022567 842.26007052 -1279 837 C-1278.01 837 -1277.02 837 -1276 837 C-1276 831.06 -1276 825.12 -1276 819 C-1275.34 819 -1274.68 819 -1274 819 C-1274.02356567 817.95827637 -1274.02356567 817.95827637 -1274.04760742 816.89550781 C-1274.11083134 813.68042491 -1274.14926391 810.46547348 -1274.1875 807.25 C-1274.21263672 806.15816406 -1274.23777344 805.06632813 -1274.26367188 803.94140625 C-1274.33185268 796.25970226 -1273.42228097 789.31511442 -1271 782 C-1270.67 781.67 -1270.34 781.34 -1270 781 C-1269.8863876 778.74112875 -1269.84311082 776.47870598 -1269.82641602 774.21704102 C-1269.819729 773.50809692 -1269.81304199 772.79915283 -1269.80615234 772.06872559 C-1269.79207151 770.52453413 -1269.78018719 768.98032149 -1269.77020454 767.4360981 C-1269.75384544 764.99483173 -1269.73061059 762.55372259 -1269.70530701 760.11253357 C-1269.63438638 753.17007223 -1269.5743486 746.22754664 -1269.52319336 739.28491211 C-1269.49145621 735.04320054 -1269.45019397 730.80166882 -1269.40299797 726.56010246 C-1269.38694536 724.94016687 -1269.37463893 723.32018979 -1269.36609077 721.70019722 C-1269.3539786 719.43739622 -1269.32984708 717.17502038 -1269.30297852 714.91235352 C-1269.28751732 712.97828392 -1269.28751732 712.97828392 -1269.27174377 711.00514221 C-1269 708 -1269 708 -1267 706 C-1266.74650423 703.77903136 -1266.5949361 701.54587165 -1266.5 699.3125 C-1266.33811833 695.54470417 -1266.10412342 692.33819934 -1264.9921875 688.7265625 C-1263.4527865 682.94471779 -1263.64168742 677.13924371 -1263.609375 671.18164062 C-1263.45027512 664.76903169 -1262.24999094 660.49656504 -1259 655 C-1256.42155363 649.80178601 -1256.5951666 644.66292399 -1256.43359375 638.97460938 C-1256.20166771 633.20166771 -1256.20166771 633.20166771 -1254 631 C-1253.39390377 628.97087478 -1253.39390377 628.97087478 -1253 626.6875 C-1252.3060953 623.27304831 -1251.44083357 620.19041719 -1250 617 C-1249.34 617 -1248.68 617 -1248 617 C-1247.67 616.34 -1247.34 615.68 -1247 615 C-1245 617 -1245 617 -1244.875 619.625 C-1244.91625 620.40875 -1244.9575 621.1925 -1245 622 C-1244.34 622 -1243.68 622 -1243 622 C-1242.76539063 622.63421875 -1242.53078125 623.2684375 -1242.2890625 623.921875 C-1241.17709092 626.18250739 -1241.17709092 626.18250739 -1238.8359375 626.828125 C-1238.02382812 626.96734375 -1237.21171875 627.1065625 -1236.375 627.25 C-1235.14910156 627.47429687 -1235.14910156 627.47429687 -1233.8984375 627.703125 C-1233.27195312 627.80109375 -1232.64546875 627.8990625 -1232 628 C-1231.34 625.36 -1230.68 622.72 -1230 620 C-1229.34 620 -1228.68 620 -1228 620 C-1227.71125 619.2575 -1227.4225 618.515 -1227.125 617.75 C-1226 615 -1226 615 -1224.875 612.875 C-1223.78855727 610.89176146 -1223.78855727 610.89176146 -1224 608 C-1224.66 608 -1225.32 608 -1226 608 C-1224.68448876 603.39571066 -1222.90803514 599.81679612 -1220 596 C-1219.34 596 -1218.68 596 -1218 596 C-1218 593.69 -1218 591.38 -1218 589 C-1217.01 588.67 -1216.02 588.34 -1215 588 C-1214.505 585.525 -1214.505 585.525 -1214 583 C-1212.0625 582.4375 -1212.0625 582.4375 -1210 582 C-1209 583 -1209 583 -1208.9375 585.5625 C-1208.958125 586.366875 -1208.97875 587.17125 -1209 588 C-1208.34 588 -1207.68 588 -1207 588 C-1207 588.99 -1207 589.98 -1207 591 C-1206.2575 591.61875 -1206.2575 591.61875 -1205.5 592.25 C-1203.18415413 594.95182018 -1203.87500169 597.56254654 -1204 601 C-1203.67 601.66 -1203.34 602.32 -1203 603 C-1202.34 603 -1201.68 603 -1201 603 C-1200.67 606.3 -1200.34 609.6 -1200 613 C-1199.01 613 -1198.02 613 -1197 613 C-1197.33 615.31 -1197.66 617.62 -1198 620 C-1196.68 620.33 -1195.36 620.66 -1194 621 C-1194 620.34 -1194 619.68 -1194 619 C-1192.35 619 -1190.7 619 -1189 619 C-1187.79727181 621.40545638 -1187.89928528 622.94996953 -1187.9375 625.625 C-1187.94652344 626.44226563 -1187.95554687 627.25953125 -1187.96484375 628.1015625 C-1187.97644531 628.72804688 -1187.98804688 629.35453125 -1188 630 C-1186.70964844 629.98839844 -1185.41929687 629.97679687 -1184.08984375 629.96484375 C-1182.37239729 629.9554588 -1180.65494925 629.94635936 -1178.9375 629.9375 C-1178.08994141 629.92912109 -1177.24238281 629.92074219 -1176.36914062 629.91210938 C-1171.4641447 629.89317117 -1166.86003304 630.26641011 -1162 631 C-1159.68829193 631.06400078 -1157.37497096 631.08633991 -1155.0625 631.0625 C-1153.34740234 631.04896484 -1153.34740234 631.04896484 -1151.59765625 631.03515625 C-1150.74042969 631.02355469 -1149.88320312 631.01195312 -1149 631 C-1148.34 629.68 -1147.68 628.36 -1147 627 C-1146.34 627 -1145.68 627 -1145 627 C-1145 626.34 -1145 625.68 -1145 625 C-1144.01 625.33 -1143.02 625.66 -1142 626 C-1142 627.65 -1142 629.3 -1142 631 C-1141.34 631 -1140.68 631 -1140 631 C-1140 631.66 -1140 632.32 -1140 633 C-1131.51730168 632.39409298 -1125.80631965 628.67646869 -1119.00390625 623.99609375 C-1116 622 -1116 622 -1113 621 C-1112.26676204 618.98491642 -1112.26676204 618.98491642 -1112 617 C-1110.68 617.33 -1109.36 617.66 -1108 618 C-1108.0825 617.154375 -1108.165 616.30875 -1108.25 615.4375 C-1107.91619744 610.84771476 -1106.61914287 608.78320637 -1104 605 C-1101.75 603.5625 -1101.75 603.5625 -1100 603 C-1098 606 -1098 606 -1098 610 C-1091.41699402 607.49349982 -1085.73360238 603.84480834 -1079.8125 600.0625 C-1067.56848977 592.27725862 -1067.56848977 592.27725862 -1061.296875 588.73046875 C-1051.4161495 583.12876912 -1044.55955408 578.41522202 -1038 569 C-1036.60635705 567.37579112 -1035.19015602 565.77061269 -1033.75 564.1875 C-1033.10289062 563.46304688 -1032.45578125 562.73859375 -1031.7890625 561.9921875 C-1030.68532906 560.76313934 -1029.57691318 559.53825551 -1028.4609375 558.3203125 C-1025.55205697 555.03719004 -1024.34360632 552.12679085 -1023 548 C-1022.01 547.67 -1021.02 547.34 -1020 547 C-1018.54355243 544.91187542 -1018.54355243 544.91187542 -1017.3125 542.4375 C-1016.87550781 541.61121094 -1016.43851563 540.78492188 -1015.98828125 539.93359375 C-1015.66214844 539.29550781 -1015.33601563 538.65742187 -1015 538 C-1013.68 538 -1012.36 538 -1011 538 C-1010.34 538.66 -1009.68 539.32 -1009 540 C-1008.22136597 539.43285278 -1008.22136597 539.43285278 -1007.42700195 538.85424805 C-1005.05705238 537.12985529 -1002.6848026 535.40865401 -1000.3125 533.6875 C-999.49587891 533.09259766 -998.67925781 532.49769531 -997.83789062 531.88476562 C-994.60197499 529.53970936 -991.41864234 527.24858581 -987.98046875 525.20703125 C-985.854639 524.15178978 -985.854639 524.15178978 -985 522 C-983.3310246 521.06537378 -981.66054726 520.13326696 -979.98046875 519.21875 C-977.1961678 517.50533403 -974.87524839 515.38581316 -972.48046875 513.171875 C-971 512 -971 512 -969 512 C-969 511.34 -969 510.68 -969 510 C-967.515 509.195625 -967.515 509.195625 -966 508.375 C-958.43824208 504.27365494 -958.43824208 504.27365494 -953 498 C-946.72872095 494.71797927 -941.71228166 494.95546083 -934.74536133 495.39819336 C-918.87327245 496.32831198 -908.45751152 493.33536354 -895.43261719 483.76416016 C-886.75419159 477.47047254 -877.35467333 472.18575725 -868.125 466.75 C-866.32424624 465.6869744 -864.52379786 464.62343289 -862.72335815 463.55987549 C-861.1065747 462.6051924 -859.48910066 461.65167914 -857.87158203 460.69824219 C-856.92395996 460.13782227 -855.97633789 459.57740234 -855 459 C-853.6075708 458.20964355 -853.6075708 458.20964355 -852.18701172 457.40332031 C-849.88002332 456.18610219 -849.88002332 456.18610219 -849 454 C-847.3677436 453.2968086 -845.73295165 452.59900891 -844.08691406 451.92871094 C-840.15492592 450.17891182 -836.5431801 447.86401902 -832.875 445.625 C-832.01914307 445.10768311 -831.16328613 444.59036621 -830.28149414 444.05737305 C-825.54537224 441.18648845 -820.83188422 438.28029173 -816.12890625 435.35546875 C-815.17709473 434.76362793 -814.2252832 434.17178711 -813.24462891 433.56201172 C-811.39968303 432.41216982 -809.5568395 431.25894649 -807.71630859 430.10205078 C-806.8805127 429.57981934 -806.0447168 429.05758789 -805.18359375 428.51953125 C-804.44681396 428.05651611 -803.71003418 427.59350098 -802.95092773 427.11645508 C-801 426 -801 426 -798 425 C-797.5884668 424.57251465 -797.17693359 424.1450293 -796.75292969 423.70458984 C-794.15866729 421.18186839 -791.06358676 419.53143978 -787.953125 417.7265625 C-787.26369812 417.32094086 -786.57427124 416.91531921 -785.86395264 416.49740601 C-783.66181361 415.20226611 -781.45625847 413.91310811 -779.25 412.625 C-777.0582876 411.34360201 -774.8674456 410.06080717 -772.67889404 408.77401733 C-771.31951026 407.97489209 -769.9583331 407.17880643 -768.59503174 406.38638306 C-764.78363088 404.14753056 -761.18981417 401.73410865 -757.61642456 399.13406372 C-755.42903577 397.59941847 -753.14175136 396.3426317 -750.77734375 395.1015625 C-744.95816282 391.99204621 -739.25545917 388.70903721 -733.5625 385.375 C-732.52843018 384.77034912 -731.49436035 384.16569824 -730.42895508 383.54272461 C-712.74771333 373.26077108 -712.74771333 373.26077108 -695.4375 362.375 C-687.61692135 357.35006734 -679.25469124 353.25445972 -671 349 C-666.56154246 346.71018288 -662.12394296 344.41871807 -657.6875 342.125 C-656.5413623 341.53251465 -655.39522461 340.9400293 -654.21435547 340.32958984 C-644.98442165 335.54336058 -635.84031218 330.61444847 -626.73828125 325.58984375 C-623.98696653 324.07372482 -621.23043998 322.59073062 -618.41796875 321.19140625 C-610.00656717 316.94867413 -602.6581024 311.55206481 -595.1640625 305.890625 C-593.96450928 304.9936792 -593.96450928 304.9936792 -592.74072266 304.07861328 C-590.695936 302.52781036 -588.68365364 300.95382647 -586.67724609 299.35498047 C-578.1917525 292.71391576 -569.78695305 288.28221476 -559.71731567 284.50497437 C-555.62235511 282.96655648 -551.55837215 281.34887919 -547.48828125 279.74609375 C-546.67340744 279.42761978 -545.85853363 279.10914581 -545.01896667 278.78102112 C-524.4560921 270.72249404 -504.56196998 260.97585122 -484.64160156 251.46411133 C-476.82958621 247.73693494 -469.00581853 244.07535492 -461.08105469 240.59326172 C-453.79808238 237.38849701 -447.14549219 234.23423738 -440.875 229.25 C-436.98186239 226.20319666 -432.90299754 223.4609645 -428.8125 220.6875 C-427.15478619 219.55752889 -425.49723382 218.4273209 -423.83984375 217.296875 C-422.6175708 216.46446289 -422.6175708 216.46446289 -421.37060547 215.61523438 C-410.12037746 207.94978551 -398.95519942 200.17220324 -387.84472656 192.30566406 C-381.71885287 187.96988157 -375.58826942 183.64650581 -369.31640625 179.5234375 C-367.73112333 178.48083996 -366.15596955 177.42272147 -364.58984375 176.3515625 C-350.85917185 167.19778123 -335.55936 161.50310552 -320.08609009 156.04544067 C-315.99026561 154.59937136 -311.90254749 153.13097577 -307.81410217 151.66419983 C-304.63925044 150.52544964 -301.46346882 149.38932151 -298.28759766 148.25341797 C-289.3573897 145.05565116 -280.43651331 141.83360657 -271.53387451 138.55981445 C-269.75838196 137.90914165 -267.98130293 137.2627769 -266.20245361 136.62133789 C-249.70596441 130.6701857 -234.22350878 123.08022945 -218.9375 114.5 C-209.22854973 109.12694592 -199.37939898 104.04952583 -189.5 99 C-178.9966187 93.63028994 -168.55323088 88.19039451 -158.22924805 82.48095703 C-150.33120032 78.13347647 -142.32976105 73.99688352 -134.3125 69.875 C-133.63847137 69.52839325 -132.96444275 69.1817865 -132.26998901 68.82467651 C-129.62746114 67.46601813 -126.98480889 66.10760217 -124.3419342 64.74961853 C-114.0558998 59.46190602 -103.83092417 54.06294511 -93.64453125 48.5859375 C-91.3047375 47.32803186 -88.96489344 46.07022016 -86.625 44.8125 C-86.03554596 44.4955014 -85.44609192 44.17850281 -84.83877563 43.85189819 C-74.99722011 38.5628466 -65.09128373 33.4079372 -55.15402222 28.3013916 C-46.62142339 23.91379146 -38.1732329 19.3992303 -29.79272461 14.72753906 C-23.97786773 11.49862939 -18.08644949 8.46195813 -12.1081543 5.54711914 C-9.39132674 4.21945023 -6.76636032 2.85741823 -4.18359375 1.28125 C-2 0 -2 0 0 0 Z " fill="#81D3FE" transform="translate(1920,157)"/>
<path d="" fill="#81D3FF" transform="translate(0,0)"/>
</svg>
