<?xml version="1.0" standalone="no"?>
<!DOCTYPE svg PUBLIC "-//W3C//DTD SVG 20010904//EN"
 "http://www.w3.org/TR/2001/REC-SVG-20010904/DTD/svg10.dtd">
<svg version="1.0" xmlns="http://www.w3.org/2000/svg"
 width="1920.000000pt" height="1080.000000pt" viewBox="0 0 1920.000000 1080.000000"
 preserveAspectRatio="xMidYMid meet">

<g transform="translate(0.000000,1080.000000) scale(0.100000,-0.100000)"
fill="#003b64" stroke="none">
<path d="M8134 3562 c5 -15 2 -21 -11 -24 -16 -3 -15 -6 5 -26 19 -19 21 -26
11 -38 -6 -8 -10 -17 -7 -19 9 -10 69 17 78 35 13 25 13 30 -3 24 -7 -2 -19 7
-27 21 -8 15 -23 31 -33 37 -16 8 -18 7 -13 -10z"/>
<path d="M8030 3402 c0 -17 5 -34 11 -38 6 -3 8 -17 5 -30 -5 -19 -2 -24 14
-24 11 0 20 5 20 10 0 6 13 10 28 10 16 0 37 7 48 15 18 14 17 14 -14 15 -20
0 -35 6 -39 16 -3 8 -12 13 -19 10 -7 -3 -22 7 -34 21 l-20 26 0 -31z"/>
<path d="M7947 3392 c-10 -10 -17 -24 -17 -30 0 -9 -10 -8 -35 2 -41 17 -44
12 -12 -22 22 -23 22 -24 3 -38 -18 -13 -18 -14 -2 -14 33 0 76 30 81 58 13
57 13 62 6 62 -5 0 -15 -8 -24 -18z"/>
<path d="M7774 3242 c5 -15 2 -21 -11 -24 -15 -3 -14 -6 7 -27 17 -16 21 -25
13 -28 -7 -3 -13 -11 -13 -18 0 -20 60 6 79 34 12 19 12 21 -7 21 -12 0 -23 9
-27 20 -3 11 -15 25 -27 31 -17 9 -19 8 -14 -9z"/>
<path d="M7934 3213 l28 -26 -23 -18 c-19 -14 -21 -21 -12 -30 10 -10 16 -9
31 4 25 23 37 21 55 -5 16 -23 16 -23 16 12 1 52 -9 79 -25 73 -8 -3 -14 0
-14 6 0 6 -18 11 -42 11 l-43 0 29 -27z"/>
<path d="M7660 3100 c0 -14 7 -36 16 -48 12 -18 13 -26 4 -37 -10 -12 -9 -16
5 -21 11 -5 21 -1 27 9 5 10 22 17 41 17 53 0 64 16 18 24 -23 3 -41 11 -41
16 0 6 -6 10 -14 10 -8 0 -24 12 -35 28 l-20 27 -1 -25z"/>
<path d="M7833 3082 c21 -22 24 -31 15 -40 -13 -13 -12 -14 52 -16 25 -1 61
-6 80 -11 l35 -8 -19 21 c-10 12 -35 27 -55 33 -20 7 -47 20 -60 30 -13 11
-35 19 -49 19 l-26 0 27 -28z"/>
<path d="M7577 3020 c-25 -29 -30 -31 -57 -21 -36 12 -39 -1 -6 -27 23 -18 24
-20 8 -35 -21 -22 -2 -22 38 -2 21 11 32 27 40 56 16 57 8 67 -23 29z"/>
</g>
</svg>
