<?xml version="1.0" standalone="no"?>
<!DOCTYPE svg PUBLIC "-//W3C//DTD SVG 20010904//EN"
 "http://www.w3.org/TR/2001/REC-SVG-20010904/DTD/svg10.dtd">
<svg version="1.0" xmlns="http://www.w3.org/2000/svg"
 width="1920.000000pt" height="1080.000000pt" viewBox="0 0 1920.000000 1080.000000"
 preserveAspectRatio="xMidYMid meet">

<g transform="translate(0.000000,1080.000000) scale(0.100000,-0.100000)"
fill="#003b64" stroke="none">
<path d="M13801 7240 c-88 -47 -124 -60 -160 -61 -25 -1 -57 -5 -71 -10 -17
-6 1 -7 53 -4 74 5 78 4 72 -14 -5 -16 -2 -18 17 -14 35 9 52 24 36 34 -16 10
-20 6 87 69 98 57 103 60 89 60 -5 0 -60 -27 -123 -60z"/>
<path d="M13216 7116 c28 -13 54 -31 57 -40 4 -9 16 -16 27 -16 11 0 38 -16
60 -36 22 -20 40 -32 40 -26 0 19 -108 101 -161 121 -72 28 -87 26 -23 -3z"/>
<path d="M12875 6915 c-27 -7 -45 -14 -40 -15 6 0 45 -5 88 -9 82 -9 101 -16
77 -31 -12 -7 -10 -11 10 -19 21 -8 28 -5 43 15 15 19 28 24 67 24 26 0 67 -7
90 -15 61 -22 61 -11 1 20 -45 22 -60 25 -116 20 -47 -4 -72 -2 -94 10 -35 17
-57 17 -126 0z"/>
<path d="M13490 6874 c-41 -11 -66 -26 -97 -58 -33 -33 -54 -45 -96 -55 -43
-9 -62 -21 -98 -58 -36 -38 -38 -43 -15 -29 70 44 93 55 129 61 33 7 37 5 37
-14 0 -25 9 -26 35 -7 17 12 17 16 6 30 -12 15 -10 21 20 52 19 20 61 48 94
64 68 32 64 35 -15 14z"/>
<path d="M14150 6873 c-8 -4 -28 -16 -45 -28 -16 -12 -50 -28 -75 -35 -55 -17
-79 -35 -96 -77 -23 -54 -16 -54 36 -3 55 56 97 66 127 30 22 -25 35 -25 58 0
18 20 18 21 -3 27 -12 3 -22 8 -22 12 0 12 58 51 77 52 10 0 34 7 53 14 l35
13 -65 0 c-36 0 -72 -2 -80 -5z"/>
<path d="M14925 6613 c-26 -7 -82 -56 -78 -69 2 -6 -8 -21 -22 -34 -28 -27
-33 -79 -11 -119 13 -23 13 -22 18 24 5 39 12 53 39 74 36 28 48 32 64 20 6
-4 19 -1 29 7 19 14 19 14 -1 14 -12 0 -24 4 -27 9 -13 20 8 38 67 59 l62 21
-60 -1 c-33 0 -69 -3 -80 -5z"/>
</g>
</svg>
