<?xml version="1.0" standalone="no"?>
<!DOCTYPE svg PUBLIC "-//W3C//DTD SVG 20010904//EN"
 "http://www.w3.org/TR/2001/REC-SVG-20010904/DTD/svg10.dtd">
<svg version="1.0" xmlns="http://www.w3.org/2000/svg"
 width="1920.000000pt" height="1080.000000pt" viewBox="0 0 1920.000000 1080.000000"
 preserveAspectRatio="xMidYMid meet">

<g transform="translate(0.000000,1080.000000) scale(0.100000,-0.100000)"
fill="#003b64" stroke="none">
<path d="M2588 8663 c-3 -4 -6 -177 -7 -383 -2 -206 -4 -393 -5 -415 -3 -51
-21 -85 -46 -85 -16 0 -20 -7 -20 -33 0 -29 -7 -38 -62 -77 -35 -24 -67 -48
-73 -52 -5 -5 -28 -22 -50 -39 -22 -16 -49 -38 -60 -47 -47 -40 -168 -119
-211 -137 -20 -8 -45 -15 -55 -15 -12 0 -19 -7 -19 -19 0 -19 -34 -31 -86 -31
-20 0 -24 -5 -24 -29 0 -21 6 -32 20 -36 12 -4 19 -14 18 -23 -3 -17 43 -30
112 -31 20 -1 52 -10 73 -20 20 -10 40 -15 43 -10 3 5 14 9 26 9 18 0 19 -2 7
-16 -11 -14 -11 -18 4 -29 15 -11 17 -28 16 -116 -2 -119 -5 -123 -100 -159
-71 -27 -113 -24 -117 8 -2 15 -9 22 -17 18 -9 -3 -12 0 -8 10 3 7 0 14 -6 14
-9 0 -9 6 0 22 9 17 9 23 0 26 -6 2 -9 8 -5 13 3 5 -1 9 -8 9 -7 0 -14 13 -15
31 -1 18 -5 34 -8 37 -11 11 -37 -27 -41 -59 -2 -18 -11 -37 -19 -41 -8 -5
-12 -15 -8 -25 4 -11 3 -14 -5 -9 -11 6 -17 -5 -13 -26 0 -5 -3 -8 -9 -8 -6 0
-6 -9 -1 -23 7 -17 4 -29 -10 -46 -18 -22 -18 -25 -3 -49 16 -24 16 -25 -10
-18 -25 6 -26 4 -28 -36 -4 -103 -4 -108 10 -108 9 0 10 -5 3 -19 -6 -10 -7
-21 -4 -25 3 -3 1 -6 -5 -6 -5 0 -17 -3 -25 -6 -12 -4 -14 0 -10 15 5 18 1 21
-33 22 -22 1 -30 4 -20 6 11 3 31 16 44 29 l26 23 -25 9 c-13 5 -38 7 -55 5
-18 -3 -35 0 -38 6 -5 7 6 11 30 11 33 0 63 19 64 42 0 3 -24 9 -52 13 -60 8
-103 27 -53 23 31 -2 89 28 80 42 -3 5 -21 6 -41 4 -19 -2 -43 0 -52 5 -14 8
-11 10 13 9 36 -1 78 19 70 33 -4 5 -17 9 -30 9 -13 0 -27 5 -30 10 -3 6 1 10
9 10 24 0 19 19 -7 31 -22 10 -33 39 -15 39 4 0 7 14 6 30 -3 37 -10 38 -43 3
l-25 -28 0 28 c0 18 4 26 11 21 12 -7 29 13 29 35 0 8 -7 11 -20 8 -23 -6 -26
3 -7 22 8 9 8 12 0 7 -6 -3 -13 -1 -15 6 -3 9 -9 8 -21 -4 -11 -10 -13 -19 -7
-23 5 -3 10 -12 10 -18 0 -8 -3 -8 -8 -2 -18 25 -31 14 -25 -21 5 -33 4 -36
-14 -30 -14 4 -20 2 -20 -9 0 -8 4 -15 9 -15 5 0 6 -5 3 -10 -4 -6 9 -17 27
-25 l33 -15 -38 3 c-21 2 -43 9 -49 15 -7 7 -19 12 -28 12 -11 0 -12 2 -2 8 9
7 10 15 3 35 -17 44 -42 23 -57 -48 -3 -11 -9 -21 -14 -23 -6 -2 -10 -13 -10
-23 0 -11 -4 -17 -10 -14 -5 3 -10 -3 -10 -13 0 -11 -6 -22 -13 -25 -10 -4
-13 2 -9 20 3 18 1 24 -7 19 -11 -7 -15 7 -13 52 1 12 -3 22 -9 22 -6 0 -7 5
-4 10 3 6 -2 10 -12 10 -15 0 -16 2 -3 10 10 6 11 10 3 10 -7 0 -13 11 -13 25
0 15 -5 23 -12 20 -14 -6 -38 -51 -38 -70 0 -17 -24 -65 -32 -65 -5 0 -8 -7
-8 -15 0 -8 -6 -15 -12 -15 -8 0 -9 -3 -3 -8 16 -11 12 -34 -13 -75 -12 -21
-18 -36 -14 -33 4 2 13 -3 19 -13 10 -16 9 -17 -23 -2 -21 10 -32 21 -28 30 2
8 -3 22 -12 32 -20 22 -27 104 -8 88 10 -8 12 1 9 41 -3 42 -1 51 11 46 8 -3
14 1 14 11 0 13 3 13 15 3 18 -15 18 -10 5 24 -9 24 -8 25 15 16 25 -9 36 2
15 15 -17 11 11 37 33 31 17 -4 18 -1 13 26 -3 17 -6 37 -6 45 0 10 -6 12 -20
8 -23 -7 -27 10 -6 22 17 10 32 73 18 73 -6 0 -12 -5 -14 -12 -2 -6 -14 -12
-26 -13 -16 -1 -22 4 -23 19 0 21 0 21 -16 -2 -15 -21 -16 -21 -29 -5 -7 10
-14 28 -14 40 0 16 -5 21 -20 18 -11 -2 -20 -1 -21 3 -6 60 -56 107 -73 70 -3
-7 -3 -2 0 10 5 21 4 23 -15 13 -21 -12 -31 2 -11 14 16 10 12 25 -5 19 -11
-5 -13 -2 -8 12 5 13 3 16 -10 11 -8 -3 -18 -1 -20 6 -3 9 -9 8 -22 -3 -16
-13 -20 -11 -46 19 -15 18 -25 40 -22 47 3 8 0 14 -5 14 -6 0 -18 7 -27 16
-12 13 -19 14 -30 4 -12 -10 -15 -10 -15 0 0 8 -3 10 -7 7 -3 -4 -12 -2 -20 4
-10 9 -18 6 -34 -12 -11 -13 -22 -19 -25 -14 -2 6 -20 9 -40 7 -30 -4 -36 -1
-41 17 -4 16 -10 20 -22 15 -9 -3 -23 -7 -31 -7 -8 0 -18 -5 -22 -11 -5 -7 -8
-7 -8 -1 0 16 -73 9 -85 -9 -7 -9 -15 -13 -18 -9 -4 3 -7 -3 -7 -15 0 -11 -4
-23 -8 -26 -4 -2 -5 19 -2 49 5 42 3 52 -8 47 -9 -3 -13 2 -12 14 4 38 0 65
-10 59 -5 -3 -10 1 -10 9 0 9 -5 16 -10 16 -7 0 -7 8 1 22 9 17 9 23 0 26 -6
2 -9 8 -5 13 3 5 -3 9 -13 9 -15 0 -16 2 -3 10 10 6 11 10 3 10 -7 0 -13 11
-13 25 0 49 -35 21 -45 -35 -3 -19 -10 -36 -16 -38 -5 -2 -9 -12 -9 -22 0 -10
-7 -21 -16 -24 -8 -3 -12 -10 -9 -16 3 -5 2 -10 -4 -10 -6 0 -7 -8 -2 -22 5
-15 2 -32 -12 -55 -18 -32 -42 -38 -31 -8 4 10 -4 18 -22 25 -16 6 -24 14 -19
18 6 4 11 12 12 19 2 9 -4 10 -24 2 -23 -8 -24 -8 -13 5 10 13 9 18 -4 31 -15
15 -16 15 -16 0 0 -9 -4 -13 -10 -10 -5 3 -10 2 -10 -4 0 -5 5 -13 10 -16 6
-3 10 -12 10 -18 0 -7 -4 -6 -10 3 -7 11 -10 -5 -10 -52 0 -44 4 -68 13 -71
10 -4 10 -6 0 -6 -10 -1 -13 -758 -13 -3751 l0 -3750 9600 0 9600 0 -2 3818
c-3 3370 -5 3820 -18 3846 -17 33 -40 46 -40 23 0 -9 -5 -17 -10 -19 -6 -2
-18 -35 -27 -73 -8 -39 -19 -74 -24 -79 -5 -6 -9 -20 -9 -32 0 -13 -4 -25 -9
-28 -4 -3 -11 -24 -15 -46 -3 -22 -11 -40 -17 -40 -7 0 -9 -10 -5 -25 4 -16 0
-30 -13 -42 -10 -10 -21 -25 -24 -33 -4 -9 -6 -4 -5 10 2 14 -2 32 -7 40 -5 8
-10 20 -11 27 -4 26 -47 149 -57 161 -5 6 -6 12 -2 12 4 0 2 7 -5 15 -7 8 -15
15 -19 15 -15 -1 -41 -53 -46 -91 -3 -23 -12 -56 -19 -73 -8 -17 -22 -60 -32
-95 -10 -35 -24 -66 -31 -68 -7 -3 -10 -10 -6 -16 4 -7 0 -8 -11 -4 -10 4 -23
7 -29 7 -8 0 -8 3 0 11 6 6 10 18 7 25 -14 47 -14 47 -29 34 -10 -8 -19 -9
-32 -1 -10 6 -13 11 -7 11 8 0 10 16 6 48 -6 56 -7 59 -27 42 -14 -12 -14 -10
-4 16 17 44 24 128 10 120 -7 -4 -11 1 -12 13 -1 12 -3 26 -4 31 -1 6 -3 15
-4 21 0 5 -5 7 -11 4 -6 -3 -7 1 -4 9 3 9 1 16 -5 16 -7 0 -8 8 -1 25 7 19 5
27 -8 37 -10 7 -19 26 -20 42 -2 35 -7 40 -26 33 -8 -3 -18 -23 -22 -44 -3
-21 -13 -46 -22 -55 -8 -10 -11 -18 -7 -18 5 0 1 -6 -10 -13 -10 -8 -15 -19
-11 -25 4 -7 3 -12 -2 -12 -6 0 -8 -9 -5 -19 3 -10 0 -28 -6 -40 -8 -14 -8
-21 -1 -21 5 0 10 -4 10 -10 0 -5 -8 -6 -17 -3 -17 7 -17 6 0 -20 17 -27 11
-37 -10 -16 -8 8 -14 6 -22 -9 -6 -10 -8 -22 -5 -25 3 -3 3 -24 -1 -45 -6 -40
-7 -40 -51 -40 -24 1 -44 5 -44 11 0 5 6 7 13 4 6 -2 23 0 37 5 l25 9 -28 15
c-15 8 -25 19 -22 24 4 6 0 10 -7 10 -9 1 -8 4 3 10 23 13 14 61 -10 52 -9 -3
-24 -15 -33 -27 -17 -20 -17 -20 -18 7 0 20 4 26 15 22 8 -4 15 -2 15 4 0 6 3
17 6 26 4 11 1 16 -10 16 -9 0 -16 -5 -16 -12 0 -6 -3 -9 -6 -6 -3 4 0 16 6
28 8 15 8 20 1 16 -6 -4 -11 -2 -11 4 0 7 -7 5 -16 -4 -8 -9 -13 -20 -9 -25 3
-6 -3 -8 -13 -6 -15 2 -17 -2 -14 -32 4 -32 3 -35 -18 -28 -20 6 -21 5 -11
-14 7 -12 8 -21 4 -22 -4 0 10 -9 32 -20 44 -20 24 -26 -34 -9 -19 5 -40 6
-49 1 -12 -7 -10 -12 12 -26 15 -10 41 -18 57 -18 18 0 25 -3 17 -8 -6 -4 -24
-6 -38 -4 -15 2 -33 -1 -41 -6 -12 -8 -11 -11 3 -20 15 -8 15 -13 5 -23 -6 -8
-14 -12 -17 -11 -3 2 -12 0 -20 -5 -11 -7 -7 -12 16 -22 42 -18 59 -37 42 -43
-25 -10 -57 1 -81 27 -22 24 -26 25 -40 11 -15 -15 -15 -14 -10 6 4 17 2 20
-12 15 -14 -6 -16 -3 -11 14 6 18 4 21 -11 15 -16 -6 -16 -5 -4 10 12 15 11
17 -10 19 -13 0 -33 0 -43 -1 -26 -2 -53 24 -67 66 -9 28 -13 32 -25 22 -11
-9 -14 -8 -14 5 0 19 -11 21 -28 4 -9 -9 -12 -9 -12 1 0 7 -4 10 -9 6 -5 -3
-13 0 -16 6 -5 7 -16 2 -32 -13 -14 -13 -27 -18 -30 -13 -2 6 -18 9 -37 7 -27
-3 -34 0 -39 17 -4 18 -10 21 -34 15 -15 -4 -34 -11 -41 -17 -8 -6 -12 -6 -12
3 0 10 -3 10 -14 1 -10 -8 -16 -9 -21 -1 -9 15 -25 12 -25 -5 0 -9 -9 -15 -25
-15 -20 0 -25 -5 -25 -23 0 -32 -11 -40 -26 -19 -7 9 -14 15 -16 12 -2 -3 -10
-18 -18 -34 -18 -36 -62 -41 -85 -10 -9 13 -14 14 -15 5 0 -11 -3 -11 -15 -1
-12 10 -15 10 -15 -3 0 -9 5 -19 11 -22 6 -4 8 -14 4 -23 -3 -8 0 -19 6 -23 7
-4 9 -15 5 -25 -6 -16 -7 -16 -20 1 -12 17 -13 17 -19 1 -4 -10 -5 -22 -2 -26
3 -5 1 -11 -5 -15 -15 -9 -12 -25 5 -25 8 0 15 -5 15 -11 0 -6 -7 -9 -15 -6
-19 8 -27 -7 -31 -54 -3 -34 -2 -37 18 -31 14 3 19 1 14 -6 -4 -7 0 -12 10
-12 16 0 15 -2 -2 -21 -18 -20 -18 -20 11 -14 17 4 35 13 40 19 6 6 19 10 29
8 18 -4 18 -5 -4 -22 -28 -21 -19 -40 15 -34 19 3 23 1 19 -11 -5 -11 -10 -13
-19 -5 -17 14 -53 -35 -50 -67 1 -12 -5 -25 -13 -28 -8 -3 -11 -12 -8 -20 3
-9 0 -15 -8 -15 -8 0 -16 -9 -19 -20 -3 -13 -1 -18 6 -13 8 4 7 1 -1 -9 -7 -8
-10 -22 -7 -30 3 -8 -1 -21 -10 -28 -17 -14 -20 -46 -5 -55 5 -3 10 -11 10
-17 0 -7 -5 -6 -15 2 -8 6 -19 9 -24 6 -13 -8 -9 -66 4 -66 6 0 1 -6 -9 -12
-15 -8 -21 -8 -24 0 -2 7 -11 12 -20 13 -9 0 -12 3 -5 5 7 3 8 15 4 32 -10 33
-44 33 -72 -1 l-18 -22 -1 23 c0 13 6 22 15 22 8 0 15 3 16 8 0 4 2 15 4 25 4
20 -15 23 -34 5 -11 -11 -12 -9 -3 7 7 15 6 23 -4 33 -12 11 -14 10 -14 -3 0
-10 -5 -13 -12 -9 -7 4 -8 3 -4 -5 4 -6 1 -14 -7 -16 -9 -4 -12 -16 -9 -36 4
-29 3 -31 -18 -24 -21 7 -22 5 -16 -21 4 -16 8 -29 9 -30 1 -1 16 -6 32 -12
l30 -11 -40 1 c-22 1 -45 5 -51 10 -7 5 -16 3 -22 -5 -9 -11 -4 -17 24 -31 20
-9 45 -14 56 -10 13 4 18 2 14 -4 -11 -18 -93 -12 -117 9 -12 10 -17 19 -11
19 22 0 14 51 -8 57 -16 4 -18 8 -9 19 9 11 9 14 0 14 -7 0 -10 4 -7 9 4 5 3
16 0 25 -5 13 -9 14 -20 5 -8 -6 -14 -18 -14 -25 0 -8 -4 -14 -9 -14 -5 0 -9
-6 -8 -12 1 -38 -4 -48 -25 -47 -13 0 -18 3 -12 5 8 3 10 22 8 52 -6 55 -8 59
-30 41 -15 -12 -15 -10 -2 21 18 45 22 111 7 120 -6 4 -12 24 -12 43 -1 25 -5
33 -12 27 -8 -7 -11 3 -10 33 0 29 -5 47 -18 59 -13 12 -15 17 -5 21 10 4 10
6 1 6 -7 1 -13 12 -13 26 0 15 -5 23 -12 20 -14 -6 -38 -51 -38 -72 0 -16 -21
-55 -35 -65 -5 -4 -10 -22 -11 -40 0 -18 -8 -47 -17 -64 -14 -28 -14 -33 -1
-53 16 -22 6 -29 -14 -9 -16 16 -21 -2 -25 -84 -3 -52 0 -68 10 -68 7 0 13 -4
13 -10 0 -5 -6 -10 -12 -10 -8 0 -9 -3 -3 -8 6 -4 11 -19 12 -33 1 -22 -2 -26
-18 -22 -10 3 -16 10 -12 16 3 5 1 7 -5 3 -6 -3 -10 -32 -10 -64 -1 -94 -2
-103 -12 -97 -5 3 -6 13 -3 21 3 9 1 19 -4 23 -6 3 -24 51 -41 106 -17 55 -37
108 -45 119 -13 18 -15 17 -36 -18 -13 -20 -21 -43 -18 -50 3 -8 3 -17 -1 -20
-3 -4 -7 -13 -8 -21 -1 -8 -9 -29 -18 -46 -9 -18 -16 -42 -16 -55 0 -13 -4
-26 -10 -29 -5 -3 -10 -16 -10 -29 0 -24 -29 -71 -30 -47 0 7 -9 22 -21 32
-11 9 -20 20 -20 23 1 3 1 17 1 31 0 23 -2 24 -20 15 -11 -6 -18 -15 -15 -20
3 -5 1 -11 -5 -15 -5 -3 -10 -17 -10 -31 0 -13 -5 -24 -11 -24 -6 0 -9 9 -6
19 3 14 1 18 -10 14 -10 -4 -14 0 -13 13 4 38 0 65 -10 59 -5 -3 -10 1 -10 9
0 9 -5 16 -10 16 -7 0 -7 8 1 22 9 17 9 23 0 26 -6 2 -9 8 -5 13 3 5 -1 9 -8
9 -7 0 -14 13 -15 31 -1 18 -5 34 -7 37 -6 6 -36 -17 -34 -26 0 -4 0 -9 -2
-12 -1 -3 -4 -16 -6 -30 -2 -13 -10 -27 -16 -31 -6 -4 -8 -14 -5 -22 4 -10 -2
-17 -15 -20 -11 -3 -17 -10 -13 -16 3 -6 0 -11 -7 -11 -8 0 -9 -3 -3 -8 14
-10 12 -45 -3 -50 -6 -2 -12 -10 -12 -18 0 -12 -4 -12 -21 -3 -13 7 -19 7 -15
1 3 -6 2 -13 -4 -17 -6 -3 -14 4 -18 16 -6 14 -11 18 -16 11 -4 -8 -15 -8 -31
-2 -14 5 -27 6 -30 0 -7 -11 -46 -9 -62 3 -10 7 -13 0 -13 -27 0 -21 -4 -35
-9 -32 -14 9 -41 -4 -41 -20 0 -8 -6 -14 -14 -14 -20 0 -28 -27 -9 -34 12 -5
13 -9 3 -21 -7 -8 -21 -15 -31 -15 -11 0 -19 -7 -19 -15 0 -8 -4 -15 -9 -15
-5 0 -7 -8 -4 -19 3 -10 0 -22 -6 -25 -6 -4 -11 -22 -11 -41 0 -33 1 -33 30
-25 l31 9 -7 -37 c-3 -20 -7 -41 -8 -47 0 -5 6 -9 15 -7 19 3 31 -21 23 -42
-3 -8 -12 -12 -20 -9 -10 4 -12 0 -8 -11 3 -9 11 -16 18 -15 23 3 37 -1 32 -9
-3 -5 5 -8 17 -8 13 1 22 -5 22 -14 0 -16 -8 -17 -67 -7 -35 5 -38 4 -38 -19
0 -13 5 -24 11 -24 6 0 9 -7 6 -14 -4 -10 -1 -13 9 -9 7 3 14 1 14 -3 0 -5 11
-10 25 -10 14 -1 25 2 25 7 0 5 6 9 14 9 11 0 12 -8 4 -42 -10 -47 -38 -87
-38 -55 0 29 -18 19 -30 -18 -13 -40 -29 -53 -41 -34 -7 11 -12 10 -26 -8
l-18 -21 -16 36 -17 36 -16 -37 c-10 -26 -21 -37 -36 -37 -12 0 -18 5 -15 10
6 10 -7 14 -34 10 -8 -1 -12 4 -8 14 4 10 1 13 -9 9 -7 -3 -14 -9 -14 -14 0
-5 -7 -9 -16 -9 -8 0 -12 -4 -9 -10 7 -12 -8 -14 -19 -2 -4 4 -20 7 -36 7 -22
0 -26 -3 -18 -13 8 -10 6 -11 -8 -5 -10 3 -22 11 -26 17 -4 6 -12 11 -18 11
-6 0 -14 6 -18 13 -6 9 -13 7 -30 -8 -11 -11 -26 -20 -33 -20 -6 0 -9 -7 -5
-15 3 -8 1 -25 -3 -37 -8 -20 -10 -21 -16 -6 -4 9 -13 14 -21 11 -9 -3 -14 2
-14 13 -1 18 -1 18 -14 2 -7 -10 -16 -15 -19 -11 -4 3 -7 1 -7 -6 0 -8 -8 -11
-20 -8 -11 3 -26 -1 -33 -8 -7 -7 -23 -16 -35 -19 -17 -6 -22 -3 -22 10 0 13
-3 14 -14 5 -10 -9 -15 -8 -20 4 -3 8 -10 15 -16 15 -6 0 -8 -4 -5 -10 3 -5
-1 -10 -9 -10 -9 0 -16 -4 -16 -10 0 -5 -6 -10 -13 -10 -9 0 -13 -12 -12 -34
1 -32 -2 -35 -35 -40 -19 -3 -65 -6 -102 -6 -72 0 -69 2 -83 -67 l-7 -33
-4988 0 -4988 0 -7 53 c-14 114 -9 107 -80 107 -53 0 -63 3 -59 15 8 21 -19
45 -57 49 -19 2 -41 14 -51 26 -17 21 -19 21 -43 6 -14 -9 -25 -12 -25 -6 0
17 -51 24 -62 9 -7 -10 -7 -8 -3 9 4 13 2 22 -4 22 -6 0 -11 6 -11 14 0 22 49
56 81 56 15 0 31 5 34 10 7 11 45 10 55 0 3 -3 20 -11 39 -17 26 -9 32 -10 23
-1 -7 7 -12 18 -12 26 0 12 3 12 15 2 23 -19 40 1 26 29 -12 22 -2 28 16 10 7
-7 9 -3 6 15 -3 13 -14 33 -26 43 -11 10 -17 13 -14 6 4 -6 3 -14 -3 -18 -6
-4 -10 5 -10 19 0 23 4 26 32 26 25 0 29 3 20 12 -19 19 -14 28 14 28 21 0 25
4 21 20 -3 13 0 20 8 20 23 0 28 20 11 39 -9 10 -13 21 -9 24 3 4 1 7 -6 7 -7
0 -11 -7 -8 -15 4 -8 2 -17 -3 -20 -5 -3 -12 5 -16 17 l-8 23 -5 -23 c-3 -13
-10 -23 -16 -22 -16 2 -6 62 11 75 20 14 10 55 -12 55 -8 0 -13 4 -9 10 8 13
35 1 35 -16 0 -19 16 -18 24 2 5 13 9 14 21 4 12 -10 15 -9 15 8 0 15 5 20 15
16 11 -5 15 1 15 21 0 19 4 26 14 22 9 -4 15 4 18 23 3 19 1 27 -6 22 -22 -13
-61 -6 -64 12 -3 14 1 18 15 14 16 -4 19 -1 15 18 -5 27 -12 30 -31 12 -11
-11 -12 -10 -5 2 9 17 13 50 6 50 -3 0 -13 -7 -22 -15 -16 -14 -17 -13 -15 19
3 29 0 35 -18 38 -16 2 -21 9 -19 26 4 27 -22 40 -43 22 -13 -11 -19 -9 -37
10 -13 14 -17 25 -10 29 16 10 20 83 5 88 -8 3 -13 -4 -13 -17 0 -18 -3 -19
-21 -9 -12 6 -24 20 -27 31 -2 11 -10 17 -18 14 -17 -6 -19 10 -3 20 8 5 6 10
-5 16 -13 7 -23 5 -37 -8 -26 -23 -69 -25 -69 -3 0 10 -2 23 -3 31 -2 7 -2 9
1 5 5 -9 32 11 32 24 0 11 -54 -1 -58 -13 -2 -4 -8 -8 -13 -8 -6 0 -5 8 1 20
6 12 7 20 1 20 -5 0 -12 -6 -14 -12 -4 -9 -6 -9 -6 1 -1 22 -31 50 -47 44 -7
-3 -20 2 -29 10 -11 12 -12 17 -2 20 9 3 9 7 0 17 -12 13 -37 4 -28 -11 4 -5
-1 -9 -9 -9 -9 0 -16 7 -16 15 0 8 -4 15 -10 15 -5 0 -10 6 -10 14 0 7 -7 19
-15 26 -13 11 -20 9 -43 -13 -32 -31 -47 -34 -56 -12 -10 27 -23 16 -18 -17 4
-27 2 -31 -9 -20 -17 16 -29 15 -29 -3 0 -8 -4 -15 -9 -15 -4 0 -6 11 -3 25 3
19 0 25 -13 25 -12 0 -16 -6 -12 -20 7 -25 -27 -28 -41 -3 -9 15 -12 14 -41
-6 -17 -12 -35 -30 -41 -39 -5 -9 -10 -12 -10 -6 0 6 7 17 15 24 20 17 19 30
-4 30 -14 0 -17 6 -13 25 3 19 0 25 -13 25 -13 0 -16 -6 -12 -22 5 -19 2 -23
-21 -25 -15 -1 -33 4 -40 9 -9 8 -11 7 -7 -5 4 -8 2 -18 -4 -21 -5 -4 -13 3
-16 15 -6 19 -8 19 -24 4 -16 -14 -19 -14 -31 0 -7 8 -17 15 -22 15 -7 0 -7
-4 0 -12 7 -9 5 -23 -8 -48 -16 -32 -17 -35 -1 -46 15 -12 14 -13 -3 -20 -14
-5 -24 -1 -37 14 -22 27 -33 29 -17 2 19 -29 -1 -45 -36 -29 -23 11 -29 10
-38 -2 -8 -11 -9 -11 -4 3 3 10 -2 23 -13 30 -32 24 -34 37 -5 48 21 8 24 14
16 22 -7 7 -12 20 -12 30 0 15 -9 18 -50 18 -34 0 -52 5 -58 16 -6 10 -26 16
-63 18 -88 4 -207 77 -180 110 5 6 6 29 3 51 -12 68 -4 122 19 128 19 5 27 27
9 27 -5 0 -10 5 -10 10 0 13 37 13 45 -1 5 -7 13 -5 25 6 16 14 112 34 173 35
10 0 17 8 17 19 0 10 9 21 20 24 14 4 20 14 20 35 0 28 -2 30 -54 36 -41 6
-53 11 -52 23 1 11 -14 20 -47 29 -27 7 -74 29 -105 50 -54 35 -201 142 -212
154 -3 3 -26 21 -53 40 -26 19 -60 45 -75 57 -15 13 -30 23 -34 23 -5 0 -8 16
-8 35 0 30 -3 35 -22 35 -29 0 -54 46 -37 67 7 7 8 20 3 30 -10 22 -11 37 -18
453 -5 279 -8 336 -20 338 -8 2 -16 -1 -18 -5z m-2518 -1072 c0 -5 -7 -14 -15
-21 -13 -10 -15 -9 -15 9 0 12 6 21 15 21 8 0 15 -4 15 -9z m68 -58 c7 -7 8
-13 3 -13 -16 0 -41 12 -41 19 0 13 25 9 38 -6z m-43 -65 c4 -3 2 -9 -3 -12
-5 -3 -15 1 -21 8 -10 11 -9 14 3 12 9 -1 18 -5 21 -8z m18270 -189 c-8 -13
-32 -11 -41 3 -5 8 -2 9 9 5 10 -3 17 -2 17 4 0 6 5 7 10 4 6 -4 8 -11 5 -16z
m65 11 c0 -5 -7 -10 -15 -10 -8 0 -18 0 -22 -1 -4 0 -9 4 -11 10 -2 6 8 11 22
11 14 0 26 -4 26 -10z m240 -34 c0 -3 -4 -8 -10 -11 -5 -3 -10 -1 -10 4 0 6 5
11 10 11 6 0 10 -2 10 -4z m-246 -21 c3 -10 -1 -15 -13 -15 -10 0 -18 7 -18
15 0 8 6 15 13 15 6 0 14 -7 18 -15z m-89 -15 c3 -6 -1 -7 -9 -4 -18 7 -21 14
-7 14 6 0 13 -4 16 -10z m-16077 -62 c7 -7 12 -22 12 -35 0 -19 -5 -23 -30
-23 -25 0 -30 4 -30 23 0 21 16 47 30 47 3 0 11 -5 18 -12z m742 -29 c0 -24
-4 -29 -25 -29 -36 0 -44 28 -14 50 29 23 39 17 39 -21z m-660 -9 c0 -13 -7
-20 -20 -20 -16 0 -20 7 -20 30 0 28 2 30 20 20 11 -6 20 -20 20 -30z m-70
-46 c0 -3 -8 -16 -18 -29 l-18 -23 -11 29 c-11 28 -10 29 18 29 16 0 29 -3 29
-6z m68 -6 c-6 -17 -38 -19 -38 -2 0 8 9 14 21 14 11 0 19 -5 17 -12z m-1493
-128 c3 -5 1 -10 -4 -10 -6 0 -11 5 -11 10 0 6 2 10 4 10 3 0 8 -4 11 -10z
m16554 -15 c6 3 11 -1 11 -9 0 -10 6 -13 15 -10 8 4 15 1 15 -6 0 -9 -10 -11
-31 -6 -36 7 -57 26 -51 45 4 12 7 11 18 -3 7 -10 17 -15 23 -11z m-15789 -56
c0 -5 -4 -9 -10 -9 -5 0 -10 7 -10 16 0 8 5 12 10 9 6 -3 10 -10 10 -16z
m-143 5 c-3 -3 -12 -4 -19 -1 -8 3 -5 6 6 6 11 1 17 -2 13 -5z m43 -4 c-8 -5
-19 -10 -25 -10 -5 0 -3 5 5 10 8 5 20 10 25 10 6 0 3 -5 -5 -10z m-197 -55
c-3 -9 -8 -14 -10 -11 -3 3 -2 9 2 15 9 16 15 13 8 -4z m2302 -65 c3 -5 -1
-10 -9 -10 -9 0 -16 5 -16 10 0 6 4 10 9 10 6 0 13 -4 16 -10z m-258 -73 c2
-29 -10 -33 -42 -14 -17 10 -23 25 -16 40 0 1 13 2 28 1 22 -1 28 -6 30 -27z
m-222 -41 c20 -15 16 -18 -20 -16 -15 1 -34 -31 -29 -47 4 -13 3 -14 -4 -5 -5
8 -13 12 -18 10 -5 -1 -10 10 -12 25 -3 25 -1 28 17 22 27 -8 29 21 4 42 -25
20 35 -10 62 -31z m32 38 c-3 -3 -12 -4 -19 -1 -8 3 -5 6 6 6 11 1 17 -2 13
-5z m-1035 -16 c-9 -9 -15 -9 -24 0 -9 9 -7 12 12 12 19 0 21 -3 12 -12z m75
-16 c2 -30 8 -47 18 -55 6 -5 1 -7 -10 -5 -15 2 -20 11 -21 33 -1 40 10 64 13
27z m813 -22 c0 -29 -4 -40 -15 -40 -22 0 -30 27 -17 56 17 36 32 29 32 -16z
m-901 8 c23 -1 41 -5 41 -9 0 -5 -22 -7 -50 -6 -33 1 -50 6 -50 15 0 7 4 11 9
8 5 -4 28 -7 50 -8z m41 -45 c-1 -27 -49 -41 -78 -22 -16 10 -15 10 1 5 9 -3
17 -1 17 4 0 5 6 7 14 4 8 -3 17 -1 21 5 7 13 25 15 25 4z m15033 -13 c3 -12
0 -20 -8 -20 -8 0 -11 8 -8 20 3 11 7 20 8 20 1 0 5 -9 8 -20z m-14173 -32 c0
-13 -32 -6 -37 9 -3 7 3 9 16 6 12 -3 21 -10 21 -15z m37 0 c-3 -8 -6 -5 -6 6
-1 11 2 17 5 13 3 -3 4 -12 1 -19z m-1277 -8 c0 -5 -5 -10 -11 -10 -5 0 -7 5
-4 10 3 6 8 10 11 10 2 0 4 -4 4 -10z m354 -32 c-7 -11 -45 -10 -64 2 -11 7
-3 9 27 8 23 -1 40 -5 37 -10z m886 2 c0 -5 -9 -10 -21 -10 -11 0 -17 5 -14
10 3 6 13 10 21 10 8 0 14 -4 14 -10z m13950 -80 c0 -5 -4 -10 -10 -10 -5 0
-10 5 -10 10 0 6 5 10 10 10 6 0 10 -4 10 -10z m-1130 -131 c0 -5 -4 -9 -10
-9 -5 0 -10 7 -10 16 0 8 5 12 10 9 6 -3 10 -10 10 -16z m-11323 -261 c-3 -7
-5 -2 -5 12 0 14 2 19 5 13 2 -7 2 -19 0 -25z m-63 -2 c-6 -14 -33 -30 -41
-23 -9 10 11 37 28 37 12 0 16 -5 13 -14z m-59 -26 c3 -5 1 -10 -4 -10 -6 0
-11 5 -11 10 0 6 2 10 4 10 3 0 8 -4 11 -10z m11432 -122 c-3 -8 -6 -5 -6 6
-1 11 2 17 5 13 3 -3 4 -12 1 -19z m-11342 1 c11 -17 -1 -21 -15 -4 -8 9 -8
15 -2 15 6 0 14 -5 17 -11z m-78 -15 c-3 -3 -12 -4 -19 -1 -8 3 -5 6 6 6 11 1
17 -2 13 -5z m923 -1324 c0 -671 -1 -709 -17 -703 -10 4 -22 12 -26 20 -4 7
-16 13 -25 13 -15 0 -15 2 -2 10 13 8 12 11 -5 24 -17 13 -17 15 -4 16 9 0 22
7 30 16 10 13 10 17 -1 24 -12 7 -12 11 0 25 11 13 11 18 2 24 -7 4 -10 15 -6
24 7 20 1 21 -25 5 -15 -9 -23 -9 -35 1 -20 17 -21 31 -1 31 18 0 20 17 3 23
-10 3 -10 7 1 20 12 15 9 16 -35 12 -44 -5 -46 -4 -32 12 32 37 33 46 5 41
-20 -4 -27 -1 -29 15 -6 38 -27 31 -24 -7 2 -20 -1 -36 -5 -36 -5 0 -9 5 -9
10 0 6 -7 10 -16 10 -10 0 -14 -6 -10 -15 9 -26 -4 -46 -27 -39 -17 5 -19 3
-13 -17 6 -20 10 -83 7 -113 -1 -4 -12 -1 -26 8 -13 9 -31 16 -40 16 -17 0
-20 -16 -5 -25 8 -5 7 -11 -1 -21 -9 -11 -8 -14 4 -14 24 0 31 -20 11 -34 -19
-15 -16 -17 44 -36 46 -15 59 -36 15 -26 -16 4 -48 11 -72 16 -127 28 -150 40
-227 126 l-74 81 0 112 0 111 -60 -30 -59 -30 14 38 c7 20 34 91 60 157 26 66
51 130 55 142 8 19 -10 40 -137 168 -80 80 -143 148 -141 151 4 4 196 23 241
24 4 0 7 32 7 72 l0 71 239 -6 240 -5 7 99 7 99 98 0 99 0 0 -710z m580 20 l0
-690 -25 -6 c-14 -4 -24 -8 -22 -11 2 -2 -62 -72 -143 -156 -80 -84 -163 -171
-184 -194 -31 -35 -41 -41 -57 -33 -10 6 -23 28 -29 50 -6 24 -17 40 -25 40
-8 0 -15 4 -15 9 0 12 29 41 41 41 19 0 8 19 -13 22 -27 4 -37 50 -16 75 10
13 10 17 1 20 -10 4 -13 165 -13 764 l0 759 250 0 250 0 0 -690z m580 241 l0
-449 -116 -87 c-64 -48 -172 -133 -239 -190 -67 -56 -127 -105 -133 -109 -9
-5 -12 151 -12 638 l0 646 250 0 250 0 0 -449z m580 182 l0 -268 -113 -64
c-61 -35 -168 -100 -237 -145 -69 -45 -131 -85 -137 -90 -10 -6 -13 80 -13
413 l0 421 250 0 250 0 0 -267z m578 136 l-3 -131 -105 -44 c-58 -25 -169 -76
-247 -114 l-143 -69 0 245 0 244 250 0 251 0 -3 -131z m582 96 c0 -22 -5 -35
-13 -35 -17 0 -270 -80 -389 -123 l-98 -35 0 114 0 114 250 0 250 0 0 -35z
m185 20 c-22 -7 -55 -16 -73 -19 -28 -7 -32 -5 -32 13 0 19 5 21 73 20 l72 -1
-40 -13z m2715 -5 c0 -24 -7 -24 -95 -1 l-70 19 83 1 c76 1 82 -1 82 -19z
m580 -95 c0 -63 -1 -115 -3 -115 -2 0 -57 19 -123 43 -65 24 -176 61 -246 82
l-128 39 0 33 0 33 250 0 250 0 0 -115z m588 -137 l2 -247 -162 78 c-90 43
-205 96 -255 117 l-93 39 0 133 0 132 253 -2 252 -3 3 -247z m587 130 c3 -68
5 -261 3 -430 l-3 -307 -125 82 c-69 45 -182 116 -252 157 l-128 75 0 130 c0
71 -3 194 -7 273 l-6 142 255 0 256 0 7 -122z m585 -539 c0 -623 -1 -661 -17
-648 -10 8 -70 59 -134 114 -65 55 -169 138 -232 185 l-115 85 -1 170 c-1 94
-4 302 -8 463 l-6 292 256 0 257 0 0 -661z m580 -11 l0 -673 -41 -34 c-27 -23
-39 -41 -36 -53 3 -11 -5 -26 -23 -40 -16 -12 -26 -27 -22 -33 4 -5 7 -32 7
-58 l0 -48 -99 101 -100 101 -43 -43 -43 -42 -50 49 -50 49 0 698 0 698 250 0
250 0 0 -672z m190 598 l0 -74 108 -6 c59 -4 153 -9 210 -12 l102 -6 0 -79 0
-79 160 0 160 0 0 -59 0 -59 -112 -38 c-62 -20 -115 -39 -118 -41 -3 -3 24
-31 60 -63 l65 -59 -42 -43 c-24 -24 -179 -171 -347 -328 l-303 -285 -23 -82
c-13 -46 -24 -83 -26 -83 -2 0 -4 331 -4 735 l0 735 55 0 55 0 0 -74z m-4149
44 c630 -49 1206 -203 1764 -474 533 -259 1001 -594 1439 -1030 l158 -158 -27
-28 -27 -28 151 -192 c136 -174 149 -195 139 -214 -7 -11 -13 -25 -14 -31 -1
-5 -3 -14 -5 -20 -2 -5 2 -19 8 -30 16 -30 -14 -95 -44 -95 -16 0 -21 4 -17
15 4 10 0 15 -11 15 -14 0 -15 3 -5 15 9 10 9 15 1 15 -6 0 -11 13 -11 28 0
38 -8 44 -29 24 -22 -21 -33 -48 -38 -87 -2 -16 -10 -35 -18 -41 -18 -13 -20
-34 -3 -34 17 0 3 -11 -19 -14 -19 -3 -32 -36 -13 -36 6 0 9 -4 5 -10 -3 -5
-13 -7 -23 -4 -10 4 -13 3 -6 -3 12 -8 15 -38 8 -62 -5 -14 -44 52 -44 74 0 5
-11 24 -24 40 l-25 30 -18 -43 c-18 -41 -48 -55 -48 -22 -1 19 -37 80 -47 80
-4 0 -15 -15 -24 -32 -9 -18 -25 -41 -35 -51 -11 -10 -17 -22 -14 -28 4 -5 1
-9 -4 -9 -6 0 -11 -13 -11 -30 0 -16 5 -30 12 -30 6 0 4 -8 -6 -19 -9 -10 -16
-22 -14 -27 4 -17 -13 -52 -28 -58 -9 -3 -12 -11 -8 -18 13 -21 11 -47 -3 -52
-7 -3 -13 -1 -13 4 0 5 -7 7 -16 3 -14 -5 -16 -1 -12 20 4 20 1 27 -11 27 -10
0 -12 3 -5 8 11 7 14 52 4 52 -3 0 -11 -5 -17 -11 -9 -9 -10 -7 -6 10 3 11 1
21 -5 21 -11 0 -4 38 11 58 9 11 -1 17 -25 13 -4 0 -5 6 -2 14 4 10 0 15 -11
15 -14 0 -15 3 -5 15 9 10 9 15 1 15 -6 0 -11 13 -11 28 0 38 -8 44 -29 24
-22 -21 -33 -48 -38 -87 -2 -16 -10 -33 -18 -38 -18 -10 -20 -37 -2 -38 6 -1
1 -4 -13 -8 -18 -5 -25 -14 -25 -32 0 -13 -4 -30 -8 -37 -12 -18 -30 -3 -24
19 3 10 1 22 -4 25 -6 3 -7 14 -4 23 3 10 -1 24 -9 30 -8 7 -18 37 -22 67 -3
29 -10 52 -13 49 -4 -2 -8 1 -9 8 -4 44 -8 57 -19 61 -7 3 -13 16 -13 30 0 14
-7 31 -15 39 -8 8 -11 17 -8 20 3 3 -5 23 -18 43 l-22 37 -24 -27 c-13 -15
-21 -32 -18 -37 4 -5 -1 -12 -10 -15 -32 -13 -53 -91 -29 -109 15 -11 15 -12
-6 -18 -16 -4 -21 -11 -16 -23 3 -9 1 -23 -5 -30 -6 -7 -8 -18 -4 -24 3 -5 1
-10 -4 -10 -6 0 -11 -11 -11 -25 0 -14 -9 -36 -20 -48 -11 -12 -18 -27 -16
-33 3 -7 2 -15 -2 -19 -3 -3 -7 -18 -8 -33 -2 -41 -3 -42 -20 -42 -8 0 -12 -4
-9 -10 10 -17 -6 -80 -21 -80 -8 0 -13 6 -11 13 1 7 -7 11 -23 9 -24 -3 -25
-2 -5 13 12 10 16 19 10 23 -6 4 -11 18 -13 31 -1 14 -5 27 -7 29 -7 8 -45
-29 -40 -38 3 -4 -1 -13 -9 -19 -7 -6 -12 -24 -11 -40 1 -17 -4 -32 -12 -35
-7 -3 -13 0 -13 6 0 6 -6 5 -16 -3 -15 -12 -16 -11 -10 9 6 17 3 24 -16 31
-15 7 -17 10 -7 10 21 1 32 50 13 58 -8 3 -11 9 -8 14 3 5 -7 9 -23 9 l-28 1
24 13 c19 10 20 14 8 19 -9 3 -14 14 -11 24 2 10 0 24 -5 32 -8 12 -12 12 -25
-2 -9 -8 -16 -22 -16 -30 0 -8 -7 -18 -16 -21 -13 -5 -14 -9 -4 -21 9 -11 9
-15 1 -15 -7 0 -11 -6 -9 -14 2 -8 -6 -21 -17 -29 -17 -13 -18 -17 -5 -33 14
-16 13 -17 -7 -12 -23 6 -39 -22 -21 -40 6 -6 5 -12 -3 -17 -8 -5 -10 -4 -5 3
4 7 2 12 -4 12 -6 0 -8 -11 -4 -27 4 -16 7 -30 8 -33 2 -11 -38 -67 -55 -78
-17 -11 -19 -9 -19 19 0 21 -4 28 -12 23 -10 -5 -10 -4 -2 5 15 16 6 51 -11
45 -10 -4 -12 1 -8 15 4 16 1 21 -13 21 -12 0 -15 3 -8 8 6 4 14 19 18 35 5
21 3 27 -9 27 -9 0 -13 5 -10 10 3 6 -1 10 -9 10 -9 0 -16 5 -16 10 0 6 5 10
10 10 6 0 10 5 10 10 0 6 -7 10 -15 10 -9 0 -12 6 -9 15 4 8 3 22 0 31 -5 13
-9 13 -37 -3 -18 -10 -37 -31 -45 -48 -7 -16 -22 -36 -34 -43 -12 -8 -19 -9
-15 -3 3 6 1 11 -5 11 -6 0 -9 4 -5 9 3 5 1 12 -4 16 -6 3 -8 12 -5 19 3 7 -2
19 -11 26 -8 7 -15 21 -15 32 0 11 -5 29 -12 41 -7 12 -13 27 -14 33 -4 22
-37 65 -48 61 -6 -2 -19 -18 -28 -37 -9 -18 -21 -36 -25 -39 -32 -24 -43 -88
-16 -98 14 -5 13 -8 -5 -14 -14 -5 -22 -17 -22 -31 0 -51 -5 -68 -18 -68 -11
0 -13 10 -9 40 4 35 3 39 -9 29 -12 -9 -14 -6 -14 20 0 23 -4 30 -12 25 -10
-5 -10 -4 -2 5 15 16 6 51 -11 45 -10 -4 -12 1 -8 15 4 17 1 21 -18 22 -17 1
-19 3 -6 6 9 2 17 11 17 18 0 7 3 20 6 29 4 11 1 16 -11 16 -9 0 -13 5 -10 10
4 6 -6 10 -22 10 -27 1 -28 1 -8 16 14 11 16 18 7 21 -6 3 -10 9 -6 14 3 5 2
18 -1 29 -5 16 -10 18 -26 10 -10 -6 -19 -17 -19 -24 0 -8 -6 -19 -14 -25 -7
-6 -12 -23 -10 -38 2 -18 -5 -34 -17 -46 -17 -16 -18 -21 -7 -35 11 -13 10
-15 -11 -9 -21 5 -23 3 -17 -23 3 -17 1 -32 -6 -36 -7 -4 -8 -3 -4 4 4 7 2 12
-3 12 -13 0 -13 -2 -1 -35 7 -20 6 -32 -6 -50 -10 -16 -12 -25 -5 -25 6 0 11
-8 11 -17 0 -15 -2 -16 -10 -3 -18 28 -31 -3 -15 -35 l15 -30 -19 22 c-20 23
-38 32 -25 12 4 -7 -2 -9 -17 -7 -18 2 -23 -1 -21 -15 2 -9 -1 -17 -5 -16 -4
1 -16 -1 -27 -6 -21 -9 -34 7 -52 65 -7 23 -8 45 -1 66 9 28 7 35 -14 56 -16
15 -25 37 -27 63 -2 22 -7 44 -12 50 -12 14 -40 115 -32 115 3 0 1 5 -6 12 -7
7 -12 22 -12 34 0 12 -7 24 -15 28 -8 3 -12 12 -9 20 3 8 -1 25 -10 38 -9 12
-16 28 -16 36 0 7 -10 26 -22 42 -16 23 -25 27 -35 19 -7 -6 -13 -17 -13 -24
0 -8 -11 -26 -23 -42 -35 -42 -49 -89 -31 -104 12 -10 12 -14 -5 -26 -12 -8
-18 -20 -14 -28 3 -9 0 -22 -7 -30 -7 -8 -9 -15 -5 -15 4 0 3 -6 -3 -12 -5 -7
-8 -25 -6 -41 1 -15 -1 -25 -5 -22 -5 2 -17 -5 -27 -17 -15 -16 -16 -22 -5
-26 10 -3 10 -6 1 -12 -6 -4 -13 -16 -14 -26 -2 -10 -10 -19 -18 -19 -8 0 -23
-7 -33 -15 -17 -14 -17 -13 -7 7 7 12 17 25 22 28 19 12 11 37 -9 30 -15 -4
-20 0 -23 17 -4 33 -22 24 -28 -14 -3 -22 -8 -29 -13 -20 -14 22 -29 13 -23
-13 4 -14 2 -25 -3 -25 -28 0 -41 17 -52 68 -7 32 -16 61 -21 66 -4 6 -8 20
-8 32 0 12 -7 25 -16 28 -10 4 -14 12 -10 22 3 9 -1 25 -9 37 -8 12 -15 27
-15 35 0 20 -42 72 -53 65 -5 -3 -15 -21 -23 -39 -8 -19 -18 -34 -23 -34 -5 0
-16 -19 -26 -42 -15 -38 -15 -43 -1 -53 13 -10 13 -13 -4 -25 -11 -8 -18 -22
-17 -33 1 -12 -7 -23 -22 -28 -21 -8 -22 -7 -11 6 10 13 9 15 -10 15 -19 0
-20 2 -10 15 9 10 9 15 1 15 -6 0 -11 13 -11 28 0 16 -3 31 -6 35 -8 8 -35
-19 -52 -51 -10 -21 -10 -27 0 -34 10 -6 10 -8 -1 -8 -7 0 -11 -6 -7 -15 3 -9
-3 -19 -14 -25 -23 -12 -26 -35 -7 -44 6 -4 2 -4 -10 -2 -14 2 -23 -2 -26 -15
-3 -11 -1 -21 4 -25 5 -3 2 -16 -7 -29 -10 -16 -12 -25 -4 -30 7 -4 3 -17 -11
-37 -21 -28 -23 -29 -35 -13 -18 24 -41 13 -49 -24 -5 -22 -12 -31 -26 -31
-23 0 -23 4 -3 35 9 14 12 25 6 25 -6 0 -8 13 -6 30 4 24 2 29 -10 24 -9 -3
-16 -1 -16 5 0 6 5 11 11 11 6 0 9 6 6 13 -2 6 -13 11 -23 9 -18 -2 -18 -2 1
13 15 12 17 18 8 23 -8 5 -11 26 -9 60 2 29 0 52 -4 52 -21 0 -40 -14 -40 -28
0 -8 -3 -13 -6 -9 -3 3 4 31 15 63 18 46 19 59 9 65 -8 6 -9 9 -2 9 7 0 14 18
16 40 3 31 0 39 -12 37 -10 -1 -14 5 -12 21 2 12 -1 22 -6 22 -5 0 -6 15 -4
32 5 31 4 32 -13 18 -16 -14 -17 -13 -11 8 6 18 4 22 -13 22 -11 0 -22 4 -25
9 -3 5 2 8 11 7 10 0 19 10 24 27 5 20 4 27 -7 27 -8 0 -11 6 -8 15 4 11 -1
15 -17 15 -22 0 -22 0 -3 15 16 12 17 14 2 15 -10 0 -15 6 -12 18 2 9 0 23 -4
30 -11 16 -42 5 -42 -16 0 -8 -7 -24 -17 -34 -11 -13 -12 -18 -3 -18 9 0 10
-3 1 -13 -6 -8 -8 -17 -4 -20 3 -4 -5 -16 -18 -27 -20 -17 -22 -21 -9 -30 14
-9 8 -12 -16 -9 -14 2 -22 -26 -12 -38 8 -10 5 -13 -13 -14 -17 0 -20 -2 -9
-7 23 -11 13 -76 -14 -94 -7 -5 -4 -8 7 -8 9 0 17 -5 17 -11 0 -6 -9 -8 -20
-4 -26 8 -26 -9 0 -35 21 -21 8 -39 -15 -20 -8 6 -18 9 -23 6 -13 -8 -22 -45
-12 -51 4 -3 6 -14 3 -25 -4 -16 -2 -19 13 -15 12 4 11 1 -3 -6 -13 -7 -23
-20 -23 -31 0 -10 -7 -18 -15 -18 -8 0 -14 6 -13 13 2 6 -3 11 -9 9 -7 -1 -13
2 -13 7 0 5 6 12 13 15 10 5 10 7 0 12 -7 3 -13 19 -13 35 0 16 -3 29 -6 29
-18 0 -44 -24 -44 -40 0 -11 -4 -20 -8 -20 -5 0 -9 -14 -10 -32 0 -18 -8 -38
-16 -44 -9 -6 -16 -21 -16 -33 0 -11 -6 -20 -12 -19 -8 2 -13 -7 -12 -19 1
-23 -11 -28 -40 -17 -20 8 -21 33 -1 40 22 9 18 23 -7 35 -17 7 -24 19 -25 47
-1 20 2 41 7 47 9 11 -14 76 -27 74 -22 -4 -33 3 -33 20 0 11 5 23 10 26 15 9
12 23 -9 44 -53 53 -63 82 -65 190 -1 50 -5 76 -13 78 -7 3 -13 11 -13 19 0 8
-5 14 -11 14 -6 0 -8 9 -4 20 4 12 1 27 -5 35 -6 8 -11 22 -10 32 4 32 0 43
-14 43 -8 0 -16 14 -19 33 -3 17 -9 52 -12 77 -4 25 -15 53 -24 64 -9 10 -15
20 -13 22 8 14 0 44 -13 44 -10 0 -15 10 -15 30 0 30 -16 69 -35 82 -6 5 -5 8
3 8 19 0 -50 100 -70 100 -12 0 -26 -17 -40 -47 -12 -27 -28 -52 -35 -56 -35
-22 -63 -117 -40 -138 12 -11 10 -16 -9 -32 -19 -15 -22 -22 -14 -37 7 -13 7
-21 -1 -25 -16 -10 -32 -57 -30 -88 1 -20 -7 -35 -28 -53 -25 -21 -29 -31 -29
-72 1 -82 -1 -94 -21 -99 -16 -4 -20 -14 -20 -60 0 -30 -4 -60 -9 -66 -5 -7
-13 -27 -17 -44 -3 -18 -10 -33 -15 -33 -5 0 -21 -5 -35 -10 -26 -10 -26 -12
-12 -33 10 -15 12 -29 7 -37 -10 -16 7 -43 21 -34 5 3 9 1 9 -5 0 -6 -9 -15
-20 -21 -11 -6 -20 -19 -20 -29 0 -29 -30 -21 -31 8 -2 33 -2 33 7 55 6 16 5
17 -14 7 -20 -11 -21 -9 -22 26 0 21 0 46 -1 56 0 9 -6 17 -14 17 -7 0 -16 7
-19 16 -9 24 -7 54 4 54 6 0 10 5 10 10 0 6 -7 10 -15 10 -9 0 -12 6 -9 15 4
11 -1 15 -17 15 -20 0 -21 2 -9 11 11 8 12 12 3 16 -7 2 -13 18 -13 33 0 16
-5 32 -11 35 -10 7 -34 -19 -39 -40 -1 -5 -7 -17 -14 -25 -7 -8 -12 -26 -12
-40 1 -14 -7 -31 -17 -39 -10 -7 -16 -19 -13 -27 3 -8 0 -11 -8 -8 -9 3 -16
-5 -21 -23 -3 -15 -12 -31 -18 -35 -9 -6 -8 -11 3 -18 8 -5 11 -10 6 -10 -5 0
-3 -6 3 -14 8 -10 9 -16 1 -21 -9 -5 -57 -90 -51 -90 1 0 -4 -13 -13 -29 -11
-22 -12 -33 -4 -43 7 -9 7 -17 -1 -26 -6 -8 -7 -17 -3 -21 4 -4 -5 -2 -19 4
-25 11 -26 15 -24 80 2 38 6 73 9 79 4 5 -2 12 -11 15 -16 5 -20 18 -23 79 -1
9 -8 17 -15 17 -20 0 -30 47 -15 65 10 12 9 16 -4 21 -9 3 -13 10 -10 15 3 5
-5 9 -17 9 -19 0 -20 2 -8 17 11 13 11 17 2 20 -7 3 -13 18 -13 34 0 16 -3 29
-6 29 -15 0 -44 -22 -44 -34 0 -8 -7 -19 -15 -26 -8 -7 -15 -25 -15 -40 0 -33
-24 -58 -36 -38 -6 9 -10 5 -14 -12 -3 -14 -16 -29 -28 -35 -15 -7 -20 -15
-15 -25 4 -8 7 -32 8 -52 0 -20 4 -40 7 -44 17 -16 -6 -24 -29 -9 -30 20 -62
13 -43 -10 9 -10 9 -15 1 -15 -6 0 -11 -4 -11 -10 0 -5 6 -10 14 -10 20 0 28
-27 9 -34 -12 -5 -13 -9 -4 -20 6 -7 9 -21 5 -30 -5 -14 -8 -14 -27 -1 -12 8
-32 15 -44 15 -13 0 -28 9 -35 20 -17 26 -32 25 -46 -2 -6 -13 -11 -17 -11
-10 -1 6 -11 13 -23 13 -17 1 -19 2 -5 6 9 2 17 11 17 18 0 7 3 20 6 29 4 11
1 16 -11 16 -9 0 -13 5 -10 10 4 6 -6 10 -22 10 l-28 0 25 20 c21 16 22 20 7
20 -10 0 -15 5 -12 10 3 6 3 19 0 30 -5 16 -10 18 -26 10 -10 -6 -19 -16 -19
-22 0 -6 -7 -20 -17 -30 -11 -13 -12 -18 -3 -18 9 0 10 -3 1 -13 -6 -8 -8 -17
-4 -21 4 -3 -3 -13 -16 -22 -16 -11 -20 -22 -15 -36 5 -17 3 -20 -11 -14 -15
5 -17 2 -12 -23 4 -17 2 -33 -4 -37 -6 -3 -8 -17 -5 -30 4 -14 2 -24 -4 -24
-5 0 -10 -7 -10 -15 0 -8 -4 -15 -10 -15 -5 0 -10 5 -10 10 0 6 -8 10 -17 10
-11 0 -14 3 -7 8 6 4 14 19 18 35 5 21 3 27 -9 27 -9 0 -13 5 -10 10 3 6 -1
10 -9 10 -19 0 -21 11 -4 28 9 9 9 12 0 12 -7 0 -12 13 -12 30 0 17 -3 30 -6
30 -18 0 -44 -24 -44 -40 0 -11 -4 -20 -8 -20 -5 0 -9 -14 -10 -31 0 -17 -3
-33 -6 -36 -8 -9 -36 18 -36 34 0 8 -7 28 -16 44 -12 23 -21 30 -36 26 -14 -4
-18 -2 -14 9 4 11 -4 14 -34 14 -45 0 -54 19 -18 35 33 15 33 32 1 28 l-28 -5
3 61 c3 50 1 62 -13 67 -10 4 -21 1 -26 -7 -4 -8 -13 -14 -19 -14 -6 0 -15 -6
-19 -14 -7 -10 -13 -11 -27 -2 -12 6 -14 11 -5 11 10 0 12 8 8 29 -3 16 -1 34
6 41 10 10 7 11 -12 5 -22 -7 -23 -5 -17 19 3 14 3 26 -2 26 -5 0 -8 13 -7 30
2 25 0 28 -13 17 -13 -10 -15 -9 -10 11 5 17 2 22 -12 22 -11 0 -21 4 -24 9
-3 5 2 8 11 7 10 0 19 10 24 27 6 22 4 27 -12 27 -12 0 -16 5 -13 15 4 10 0
15 -11 15 -14 0 -15 3 -5 15 9 10 9 15 1 15 -6 0 -11 14 -11 30 0 17 -3 30 -7
30 -16 0 -34 -17 -37 -32 -1 -9 -8 -23 -15 -32 -11 -13 -11 -16 0 -16 12 0 12
-2 0 -9 -7 -5 -11 -15 -9 -22 3 -8 -5 -21 -16 -31 -18 -15 -19 -19 -6 -28 14
-9 7 -12 -17 -9 -3 0 -11 -7 -16 -16 -6 -12 -5 -20 4 -26 10 -6 7 -9 -11 -10
-18 -1 -20 -3 -7 -6 14 -4 15 -8 7 -18 -8 -9 -8 -15 0 -20 7 -4 3 -17 -10 -36
-12 -16 -17 -29 -11 -29 6 0 11 -4 11 -10 0 -5 -7 -7 -15 -4 -22 9 -18 -13 5
-36 18 -18 19 -21 4 -27 -9 -3 -20 0 -24 7 -4 7 -12 10 -18 6 -13 -8 -22 -45
-12 -51 4 -3 6 -15 2 -27 -4 -16 -2 -19 9 -14 8 4 6 1 -5 -8 -12 -10 -17 -23
-14 -40 3 -16 -1 -31 -12 -41 -15 -14 -19 -13 -35 5 -10 11 -16 23 -12 26 3 3
-6 22 -19 41 -13 19 -21 39 -18 44 3 5 -2 12 -10 15 -9 3 -13 10 -10 15 3 5
-10 9 -28 9 l-33 1 25 14 c14 8 19 14 13 15 -8 0 -13 14 -13 35 0 37 -10 44
-30 20 -14 -17 -39 -20 -41 -5 -1 6 -2 16 -3 23 0 6 -18 13 -38 15 -25 2 -38
8 -38 18 0 8 6 14 14 14 7 0 19 7 26 15 10 12 9 15 -6 16 -11 1 -23 1 -29 0
-6 0 -9 23 -7 59 3 49 1 61 -13 67 -11 4 -21 0 -27 -11 -5 -9 -13 -14 -18 -11
-9 6 -40 -38 -40 -58 0 -7 -10 -26 -22 -43 -18 -23 -29 -28 -53 -26 -43 5 -53
19 -22 33 36 16 34 29 -4 29 -21 0 -28 4 -23 12 8 13 7 71 -2 101 -7 21 -34
23 -34 2 0 -8 -8 -15 -18 -15 -19 0 -46 -38 -40 -56 3 -11 -52 -74 -64 -74 -4
0 -7 12 -8 28 -1 75 -2 80 -16 75 -8 -3 -14 0 -14 6 0 6 -7 11 -16 11 -12 0
-14 3 -6 13 15 19 19 62 5 60 -7 -2 -10 4 -7 12 5 11 -1 15 -22 15 l-29 1 25
14 c18 10 20 14 8 15 -11 0 -15 6 -11 20 3 11 3 27 -1 36 -5 14 -7 14 -22 0
-8 -9 -19 -14 -23 -12 -4 3 -22 -8 -40 -25 -39 -35 -47 -33 -27 6 15 29 11 56
-8 54 -6 -1 -22 0 -36 1 -23 2 -23 3 5 9 26 5 30 10 27 37 -3 26 7 42 65 104
88 95 301 292 445 412 825 689 1783 1085 2818 1167 155 12 616 13 771 1z
m-2878 -2276 c-2 -7 -10 -15 -18 -17 -10 -4 -10 0 -2 23 7 18 14 25 18 18 4
-6 5 -17 2 -24z m2497 -249 c-6 -8 -9 -19 -5 -25 4 -6 -3 -10 -17 -9 -13 0
-17 3 -10 6 6 2 12 13 12 24 0 11 7 19 16 19 13 0 14 -3 4 -15z m1677 -1 c-3
-3 -12 -4 -19 -1 -8 3 -5 6 6 6 11 1 17 -2 13 -5z m-1202 -174 c3 -5 1 -10 -4
-10 -6 0 -11 5 -11 10 0 6 2 10 4 10 3 0 8 -4 11 -10z m-145 -99 c0 -6 -4 -13
-10 -16 -5 -3 -10 1 -10 9 0 9 5 16 10 16 6 0 10 -4 10 -9z m2070 -71 c0 -5
-2 -10 -4 -10 -3 0 -8 5 -11 10 -3 6 -1 10 4 10 6 0 11 -4 11 -10z m-7 -51 c5
-4 5 -9 -1 -13 -15 -9 -42 22 -35 40 5 14 7 14 16 -2 6 -11 15 -22 20 -25z"/>
<path d="M10175 2640 c-3 -5 -2 -10 4 -10 5 0 13 5 16 10 3 6 2 10 -4 10 -5 0
-13 -4 -16 -10z"/>
<path d="M12845 2640 c-3 -5 -1 -10 4 -10 6 0 11 5 11 10 0 6 -2 10 -4 10 -3
0 -8 -4 -11 -10z"/>
<path d="M3480 6781 c0 -5 7 -12 16 -15 14 -5 15 -4 4 9 -14 17 -20 19 -20 6z"/>
</g>
</svg>
