<?xml version="1.0" standalone="no"?>
<!DOCTYPE svg PUBLIC "-//W3C//DTD SVG 20010904//EN"
 "http://www.w3.org/TR/2001/REC-SVG-20010904/DTD/svg10.dtd">
<svg version="1.0" xmlns="http://www.w3.org/2000/svg"
 width="1920.000000pt" height="1080.000000pt" viewBox="0 0 1920.000000 1080.000000"
 preserveAspectRatio="xMidYMid meet">

<g transform="translate(0.000000,1080.000000) scale(0.100000,-0.100000)"
fill="#002545" stroke="none">
<path d="M391 6578 c-1 -37 -15 -51 -24 -25 -2 6 -8 9 -12 5 -5 -5 -1 -16 7
-25 21 -25 31 -60 18 -68 -6 -4 -13 6 -16 24 -4 19 -11 28 -18 24 -6 -4 -19
-6 -29 -4 -17 2 -17 0 -6 -21 7 -13 12 -29 11 -35 -2 -7 4 -13 13 -13 9 0 15
-6 12 -12 -2 -7 -12 -11 -22 -10 -17 3 -17 2 -5 -13 20 -24 -6 -39 -34 -19
-27 19 -53 19 -37 1 6 -8 8 -17 5 -20 -4 -3 1 -14 11 -23 16 -16 16 -19 1 -30
-14 -10 -12 -13 18 -18 19 -4 36 -12 38 -18 2 -6 18 -11 36 -11 21 0 32 -5 32
-15 0 -11 -10 -13 -42 -9 -24 2 -54 8 -67 12 -17 6 -22 5 -17 -3 11 -18 -2
-15 -40 9 -30 18 -35 19 -40 5 -3 -9 -15 -16 -26 -16 -10 0 -16 -4 -13 -10 3
-5 17 -10 30 -10 19 0 23 -4 18 -17 -4 -11 -3 -14 6 -9 6 4 18 2 26 -4 8 -6
23 -9 34 -5 16 5 20 3 15 -9 -4 -10 -1 -16 7 -16 18 0 87 24 95 33 4 4 12 7
17 7 17 0 -19 -34 -58 -54 -30 -17 -40 -18 -56 -8 -11 7 -25 9 -32 5 -7 -4
-30 -9 -51 -10 -22 -2 -42 -6 -45 -9 -8 -7 50 -54 67 -54 6 0 12 -4 12 -10 0
-5 -13 -10 -29 -10 -24 0 -28 -3 -24 -20 6 -22 -7 -26 -25 -8 -9 9 -12 9 -12
0 0 -7 -12 -12 -27 -12 l-28 0 32 -21 c38 -24 42 -44 13 -59 -11 -6 -20 -20
-20 -30 0 -11 -4 -20 -9 -20 -5 0 -11 -10 -13 -22 -2 -19 -10 -24 -46 -26
l-42 -3 0 -2920 0 -2919 9600 0 9600 0 0 3145 c0 2192 -3 3145 -11 3145 -5 0
-16 -15 -24 -34 -8 -18 -20 -36 -28 -39 -7 -3 -18 -22 -25 -43 -10 -33 -9 -41
3 -50 14 -10 14 -12 0 -18 -8 -3 -15 -13 -15 -23 0 -38 -21 -93 -36 -93 -8 0
-17 -8 -21 -17 -9 -26 -55 -73 -65 -67 -12 8 -10 82 3 90 6 3 15 1 19 -6 5 -9
9 -9 14 -1 4 6 12 9 17 6 5 -4 9 1 9 9 0 9 -7 16 -16 16 -8 0 -12 5 -9 10 4 6
15 8 26 5 10 -4 19 -2 19 3 0 6 -6 12 -12 15 -10 3 -9 8 2 22 14 17 13 18 -5
11 -11 -4 -26 -9 -34 -10 -7 -1 -17 -10 -23 -19 -5 -9 -13 -17 -18 -17 -12 0
7 50 27 73 19 20 10 35 -10 18 -12 -9 -16 -5 -23 21 l-8 33 -3 -38 c-4 -32 -7
-37 -24 -32 -23 7 -25 -7 -4 -25 17 -14 21 -65 5 -55 -5 3 -10 15 -10 26 0 10
-4 19 -10 19 -5 0 -10 -5 -10 -11 0 -8 -4 -8 -14 1 -8 6 -12 18 -10 25 3 7 -4
23 -15 34 -11 11 -23 37 -26 58 -4 21 -13 52 -20 68 -17 39 -39 117 -37 131 1
6 -5 17 -13 24 -8 7 -15 23 -15 35 0 12 -7 28 -15 35 -8 7 -12 16 -9 21 6 11
-26 69 -39 69 -4 0 -15 -16 -23 -35 -8 -19 -18 -35 -23 -35 -5 0 -16 -19 -26
-42 -15 -39 -15 -43 0 -54 11 -9 13 -13 4 -16 -11 -4 -34 -76 -42 -128 -1 -8
-10 -21 -20 -29 -10 -7 -16 -19 -13 -27 3 -7 1 -16 -5 -19 -5 -4 -8 -12 -7
-18 3 -12 -27 -116 -42 -147 -4 -8 -6 -25 -5 -37 1 -13 -2 -23 -7 -23 -4 0
-17 -9 -28 -20 -11 -11 -32 -21 -47 -22 -15 -2 -28 -10 -31 -20 -4 -18 -32
-26 -32 -9 0 4 11 25 25 45 27 39 33 58 13 38 -19 -19 -40 -15 -33 7 3 11 1
22 -5 26 -6 4 -10 -6 -10 -26 0 -26 -3 -31 -20 -26 -24 6 -25 -1 -5 -23 18
-20 24 -53 10 -60 -5 -3 -12 9 -15 25 -3 18 -8 25 -13 18 -4 -6 -16 -9 -27 -6
-16 4 -19 2 -14 -11 3 -9 10 -16 16 -16 5 0 6 -9 3 -20 -5 -14 -2 -20 9 -20 9
0 16 -4 16 -10 0 -5 -10 -10 -21 -10 -18 0 -20 -2 -8 -16 19 -23 -8 -37 -35
-18 -27 19 -53 19 -37 1 6 -8 8 -17 5 -20 -4 -3 1 -14 11 -23 16 -16 16 -19 1
-30 -14 -10 -12 -13 20 -19 20 -3 43 -13 51 -21 9 -8 23 -12 34 -9 13 5 19 1
19 -10 0 -14 -8 -16 -42 -12 -24 2 -54 8 -67 12 -17 6 -22 5 -17 -3 11 -17 -2
-15 -39 8 -29 18 -34 18 -45 5 -7 -8 -19 -15 -27 -15 -8 0 -11 -4 -8 -10 3 -6
17 -10 30 -10 18 0 23 -4 19 -15 -5 -11 -2 -13 10 -9 9 3 16 1 16 -5 0 -6 12
-11 26 -11 14 0 23 -4 19 -9 -3 -6 5 -9 17 -7 44 6 88 19 94 27 3 5 10 9 15 9
15 0 -21 -34 -58 -55 -28 -17 -35 -17 -58 -5 -16 9 -29 10 -33 5 -4 -6 -25
-11 -46 -13 -22 -1 -42 -5 -45 -8 -7 -7 50 -53 67 -54 24 0 12 -20 -13 -20
-18 0 -25 -5 -25 -20 0 -23 -10 -26 -28 -8 -9 9 -12 9 -12 1 0 -7 -12 -13 -27
-15 -25 -3 -21 -6 36 -35 35 -18 75 -44 88 -58 l25 -25 -27 -10 c-15 -6 -42
-10 -59 -8 -72 4 -83 0 -90 -35 -3 -18 -15 -40 -26 -50 -12 -10 -18 -22 -15
-27 3 -6 2 -10 -3 -10 -18 0 -20 -49 -3 -55 14 -6 14 -7 -1 -16 -10 -6 -18
-21 -18 -35 0 -16 -7 -27 -22 -33 -34 -13 -42 -2 -16 19 l23 19 -51 1 c-28 0
-54 3 -57 7 -7 6 23 27 56 39 25 9 21 24 -7 24 -22 0 -24 3 -19 38 5 42 -12
96 -28 87 -6 -4 -8 -10 -4 -13 3 -3 -8 -11 -25 -18 -24 -11 -30 -19 -30 -43 0
-20 -7 -35 -20 -43 -26 -17 -25 -33 2 -52 l22 -16 -23 0 c-21 0 -23 -3 -18
-35 5 -31 3 -36 -18 -41 -28 -7 -45 1 -45 22 0 32 -64 214 -75 214 -8 0 -46
-70 -44 -82 4 -24 -13 -87 -27 -99 -8 -6 -14 -25 -14 -41 0 -23 -4 -29 -15
-24 -12 4 -15 -3 -15 -29 0 -37 -8 -43 -28 -23 -9 9 -12 9 -12 1 0 -7 5 -15
10 -18 12 -8 13 -25 2 -25 -5 0 -14 10 -20 23 l-11 22 0 -22 c-1 -16 -7 -23
-21 -23 -24 0 -26 -22 -5 -40 17 -14 20 -50 5 -50 -5 0 -10 9 -10 21 0 14 -4
18 -12 12 -7 -4 -21 -6 -31 -4 -16 2 -17 -1 -8 -18 14 -25 14 -34 1 -26 -6 3
-10 2 -10 -4 0 -5 5 -13 10 -16 8 -5 8 -11 0 -20 -8 -9 -6 -14 6 -19 25 -10 1
-30 -25 -21 -23 7 -27 25 -10 42 16 16 1 35 -24 32 -38 -2 -40 0 -16 21 l24
19 -51 1 c-28 0 -54 3 -57 7 -7 6 23 27 56 39 25 9 21 24 -7 24 -22 0 -24 3
-19 38 5 42 -12 96 -28 87 -6 -4 -8 -10 -4 -13 3 -3 -8 -11 -25 -18 -24 -11
-30 -19 -30 -43 0 -20 -7 -35 -20 -43 -26 -17 -25 -33 2 -52 l22 -16 -23 0
c-21 0 -23 -3 -18 -34 5 -30 2 -35 -29 -49 -25 -13 -34 -23 -34 -42 0 -18 5
-25 20 -25 21 0 27 -15 9 -25 -6 -4 -26 -7 -44 -8 -27 -1 -35 -6 -40 -25 -4
-16 0 -28 11 -37 10 -7 14 -17 9 -25 -6 -9 -9 -9 -15 0 -9 14 -50 4 -50 -11 0
-6 4 -7 10 -4 5 3 10 2 10 -4 0 -5 -10 -11 -21 -13 -22 -3 -30 -13 -45 -53 -7
-18 -8 -17 -12 9 -2 16 1 33 7 39 6 6 11 19 11 28 0 16 31 95 51 132 8 15 6
20 -10 24 -24 6 -28 23 -7 23 22 0 25 11 16 60 -6 32 -4 52 6 72 16 32 9 36
-18 11 -30 -27 -44 -4 -31 52 10 46 1 59 -24 34 -7 -7 -13 -7 -17 -1 -4 6 3
17 14 25 17 11 19 19 11 39 -5 15 -5 30 0 41 14 24 0 21 -28 -5 -26 -25 -43
-17 -25 12 18 29 15 50 -8 50 -24 0 -70 20 -70 31 0 4 16 5 35 2 34 -6 35 -5
35 29 0 19 5 39 11 45 16 16 1 35 -24 32 -38 -2 -40 0 -16 21 l24 19 -51 1
c-28 0 -54 3 -57 7 -7 6 23 27 56 39 25 9 21 24 -7 24 -22 0 -24 3 -19 38 5
42 -12 96 -28 87 -6 -4 -8 -10 -4 -13 3 -3 -8 -11 -25 -18 -24 -11 -30 -19
-30 -43 0 -20 -7 -35 -20 -43 -26 -17 -25 -33 2 -52 l22 -16 -23 0 c-21 0 -23
-3 -18 -34 5 -30 2 -35 -29 -49 -25 -13 -34 -23 -34 -42 0 -18 5 -25 20 -25
21 0 27 -15 9 -25 -6 -4 -26 -7 -44 -8 -27 -1 -35 -6 -40 -25 -4 -16 0 -28 11
-37 16 -11 16 -14 -4 -43 -23 -31 -29 -72 -12 -72 17 0 11 -25 -10 -38 -11 -7
-20 -21 -20 -31 0 -10 -10 -26 -22 -34 -23 -16 -23 -16 10 -10 28 5 32 3 32
-16 0 -11 5 -21 12 -21 9 0 9 -3 1 -11 -16 -16 -53 -2 -46 18 5 13 3 14 -15 4
-20 -11 -20 -13 -5 -49 17 -41 30 -53 50 -45 10 4 11 0 4 -18 -4 -13 -13 -24
-20 -23 -6 1 -28 2 -48 3 -34 1 -36 3 -20 15 20 16 22 26 4 26 -37 0 -66 -77
-43 -113 13 -19 13 -25 0 -41 -21 -30 -17 -38 16 -31 40 9 38 -8 -2 -26 -31
-13 -33 -17 -30 -59 2 -25 11 -49 19 -55 18 -14 5 -47 -24 -61 -13 -6 -5 -9
31 -13 27 -4 51 -11 53 -18 3 -8 -6 -10 -27 -8 -18 3 -28 0 -25 -5 4 -6 15
-10 25 -10 31 0 33 -19 6 -60 -29 -45 -33 -58 -11 -40 12 10 15 10 15 -3 0 -9
-4 -19 -10 -22 -14 -8 -13 -26 1 -22 18 4 21 -17 4 -38 -12 -16 -16 -17 -24
-6 -5 7 -19 14 -32 15 -15 1 -25 8 -27 20 -2 10 -13 28 -23 39 -10 12 -19 31
-19 43 0 21 -37 121 -50 137 -10 11 -49 -54 -48 -78 0 -11 -14 -62 -31 -113
-17 -52 -31 -102 -31 -112 0 -10 -7 -21 -16 -24 -11 -4 -13 -10 -5 -23 7 -13
4 -23 -15 -40 -13 -12 -24 -33 -24 -48 0 -14 -4 -25 -10 -25 -12 0 -13 44 -1
68 5 9 23 54 39 100 28 77 29 82 11 82 -10 0 -19 5 -19 10 0 6 7 10 15 10 13
0 15 12 13 65 -1 40 2 69 10 77 24 24 11 31 -13 8 -36 -34 -52 -16 -38 45 11
47 1 59 -25 33 -9 -9 -12 -9 -12 1 0 8 7 19 16 25 13 10 13 16 3 39 -9 21 -9
30 1 42 21 25 -2 17 -32 -12 -27 -26 -28 -26 -28 -5 0 11 5 24 10 27 5 3 10
15 10 26 0 14 -7 19 -27 19 -30 1 -71 25 -60 36 4 4 13 2 20 -5 24 -19 47 -2
47 33 0 18 5 37 11 43 17 17 1 33 -34 33 l-31 0 24 17 25 18 -55 5 c-30 3 -54
10 -52 15 1 6 5 10 10 11 16 1 62 28 62 36 0 4 -14 8 -32 8 -25 0 -29 3 -20
12 17 17 15 80 -3 104 -13 17 -14 17 -15 2 0 -11 -8 -18 -19 -18 -25 0 -45
-25 -38 -50 3 -13 -3 -26 -19 -39 -30 -23 -30 -34 -1 -54 l22 -16 -24 0 c-21
-1 -23 -4 -18 -35 5 -30 2 -35 -29 -49 -25 -13 -34 -23 -34 -42 0 -18 5 -25
20 -25 31 0 24 -17 -12 -29 -23 -8 -34 -8 -38 0 -4 6 -13 -3 -20 -21 -11 -27
-11 -32 5 -44 17 -12 16 -15 -6 -54 -23 -39 -23 -41 -5 -60 17 -20 17 -21 -8
-37 -14 -10 -26 -25 -26 -34 0 -9 -9 -22 -19 -28 -11 -7 -22 -29 -26 -54 -6
-35 -4 -45 11 -56 16 -12 15 -13 -13 -13 -49 0 -88 -80 -59 -122 13 -18 13
-23 -1 -44 -8 -13 -13 -33 -10 -44 3 -11 1 -20 -4 -20 -5 0 -8 -21 -6 -47 2
-43 0 -47 -25 -54 -34 -9 -36 3 -5 25 l22 16 -30 -5 c-30 -5 -30 -5 -55 75
-16 50 -23 86 -17 95 12 22 -9 19 -34 -6 -24 -24 -39 -17 -21 11 18 29 15 50
-8 50 -24 0 -70 20 -70 31 0 4 16 5 35 2 35 -6 35 -5 35 30 0 22 6 39 16 45
14 8 14 10 0 21 -9 8 -27 11 -41 9 -31 -6 -32 5 -2 25 21 15 20 16 -30 16 -28
1 -54 4 -57 9 -2 4 13 16 35 26 44 22 50 36 15 36 -22 0 -23 3 -19 48 3 33 0
53 -11 67 -12 15 -15 17 -16 5 0 -9 -13 -21 -30 -27 -24 -9 -30 -17 -30 -42 0
-20 -7 -35 -20 -43 -26 -17 -25 -32 3 -51 l22 -16 -24 0 c-21 -1 -23 -5 -18
-33 4 -29 1 -35 -27 -49 -38 -19 -51 -69 -17 -69 23 0 28 -18 7 -26 -7 -3 -26
-6 -41 -8 -44 -5 -62 -49 -24 -61 20 -7 20 -7 -5 -40 -29 -38 -31 -47 -14 -75
11 -17 9 -22 -10 -35 -12 -9 -22 -25 -22 -36 0 -11 -8 -23 -17 -26 -15 -6 -14
-8 7 -13 14 -3 25 -12 25 -20 0 -8 7 -18 15 -21 13 -6 12 -8 -2 -14 -26 -10
-49 1 -41 21 5 14 3 15 -15 5 -26 -14 -26 -8 -1 -60 15 -33 25 -42 39 -38 14
4 17 1 12 -12 -8 -24 -17 -27 -63 -23 -32 3 -38 7 -26 14 20 11 22 28 4 28
-37 0 -66 -77 -43 -113 13 -19 13 -25 0 -41 -21 -30 -17 -38 16 -31 40 9 38
-6 -3 -25 -30 -14 -32 -18 -29 -60 2 -25 11 -49 19 -55 18 -14 4 -48 -24 -59
-14 -6 -35 12 -38 34 -8 47 -50 160 -59 160 -10 0 -38 -55 -41 -83 -5 -34 -49
-164 -59 -174 -3 -4 -6 -21 -6 -40 0 -18 -5 -33 -11 -33 -7 0 -9 -10 -7 -25 3
-16 -1 -30 -14 -41 -10 -10 -21 -35 -24 -56 -4 -21 -11 -38 -17 -38 -6 0 -7
-15 -3 -39 6 -40 -3 -51 -42 -51 -12 0 -13 3 -4 12 7 7 12 24 12 39 0 35 -21
89 -27 71 -3 -7 -18 -19 -34 -27 -21 -11 -29 -23 -29 -42 0 -15 -10 -37 -22
-51 l-23 -23 25 -19 25 -20 -24 0 c-21 0 -23 -3 -18 -33 5 -30 2 -34 -34 -54
-36 -20 -39 -20 -44 -3 -3 10 -16 21 -28 24 -20 6 -21 7 -4 17 22 13 23 44 1
35 -12 -5 -15 -2 -9 11 4 10 10 38 13 61 5 44 5 44 -19 31 -13 -6 -31 -15 -39
-19 -8 -4 -17 -16 -18 -26 -7 -35 -22 -39 -22 -7 0 18 5 35 10 38 6 3 10 14
10 24 0 18 30 96 51 134 8 15 6 20 -10 24 -25 6 -28 23 -5 23 12 0 15 11 13
58 -2 31 3 67 9 80 15 26 6 29 -19 6 -34 -30 -51 12 -29 70 10 28 -5 37 -27
15 -7 -7 -13 -7 -17 -1 -4 6 3 17 15 25 17 13 19 19 10 36 -9 15 -9 27 -1 41
14 26 2 25 -27 -2 -26 -25 -43 -17 -25 12 18 29 15 50 -8 50 -24 0 -70 20 -70
31 0 4 16 5 35 2 34 -6 35 -5 35 29 0 19 5 39 11 45 17 17 1 33 -34 33 l-32 0
25 20 25 20 -43 0 c-36 0 -43 3 -40 18 2 9 13 21 26 27 32 14 27 25 -10 25
-25 0 -29 3 -20 12 15 15 16 57 2 92 -10 28 -30 35 -30 11 0 -8 -6 -15 -14
-15 -20 0 -45 -37 -39 -59 3 -11 -5 -24 -21 -35 -33 -21 -33 -32 2 -50 26 -15
26 -15 4 -16 -27 0 -39 -24 -23 -44 9 -11 5 -18 -24 -36 -41 -25 -50 -70 -15
-70 11 0 20 -4 20 -9 0 -11 -59 -33 -71 -25 -5 3 -14 -6 -21 -21 -10 -21 -9
-27 7 -39 18 -13 18 -14 -3 -44 -23 -31 -29 -72 -12 -72 17 0 11 -25 -10 -38
-11 -7 -20 -21 -20 -31 0 -10 -10 -26 -22 -34 -23 -16 -23 -16 10 -10 28 5 32
3 32 -16 0 -11 5 -21 12 -21 9 0 9 -3 1 -11 -15 -15 -53 -2 -46 17 6 17 -8 19
-24 3 -8 -8 -7 -21 4 -48 17 -40 30 -52 50 -44 9 4 11 0 6 -13 -9 -26 -19 -31
-54 -26 -24 3 -28 8 -24 23 8 25 -16 25 -37 2 -23 -26 -30 -68 -16 -98 9 -19
9 -28 0 -37 -23 -23 -14 -40 18 -33 40 9 38 -1 -5 -19 -34 -15 -55 -52 -40
-76 10 -17 -19 -39 -38 -28 -22 12 -23 -14 -2 -32 12 -10 13 -16 4 -26 -9 -11
-8 -14 4 -14 9 0 19 -5 23 -11 4 -8 -1 -9 -16 -4 -19 6 -21 4 -16 -13 8 -25
-14 -34 -39 -16 -24 18 -35 18 -35 -1 0 -8 6 -15 13 -15 8 0 7 -3 -3 -10 -13
-8 -12 -11 4 -23 18 -13 18 -15 -5 -50 -21 -29 -28 -34 -43 -25 -12 7 -21 7
-25 1 -3 -6 -16 -13 -29 -17 -28 -9 -19 -26 13 -26 19 0 23 -4 18 -17 -5 -12
-2 -15 13 -12 11 3 27 -3 37 -13 17 -18 16 -19 -17 -33 -20 -8 -42 -15 -51
-15 -17 0 -20 -11 -5 -26 14 -14 2 -44 -16 -44 -8 0 -14 -9 -14 -20 0 -24 -22
-26 -44 -5 -8 8 -22 15 -30 15 -21 0 -20 16 2 25 15 6 14 8 -8 17 l-25 9 33
14 c33 14 41 30 20 38 -10 3 -10 7 1 20 11 14 11 18 -2 23 -9 3 -13 12 -10 20
5 15 -8 19 -21 7 -4 -4 -14 -8 -21 -8 -7 0 -24 -16 -37 -35 -29 -43 -52 -45
-56 -7 -5 38 5 64 19 50 10 -10 49 -6 49 5 0 3 -7 13 -15 22 -14 16 -14 17 10
13 15 -3 25 -1 25 6 0 6 -5 11 -11 11 -8 0 -7 5 1 15 17 20 7 29 -18 16 -11
-6 -22 -8 -25 -5 -3 3 -10 -4 -17 -15 -6 -12 -15 -21 -20 -21 -12 0 8 56 26
71 18 15 18 29 0 29 -8 0 -17 -8 -19 -17 -3 -10 -5 -1 -6 20 -1 24 -6 37 -14
37 -20 0 -28 -12 -17 -25 15 -18 1 -49 -15 -35 -9 7 -16 6 -25 -5 -10 -12 -10
-15 0 -15 17 0 39 -30 40 -53 0 -16 -5 -14 -35 9 -39 30 -59 26 -30 -6 18 -19
17 -21 -5 -40 l-23 -20 22 -24 c30 -32 11 -42 -30 -17 -35 22 -62 18 -32 -5
11 -8 13 -13 6 -14 -17 0 -17 -20 0 -20 15 0 17 -40 2 -41 -5 -1 1 -4 15 -8
14 -4 26 -15 28 -26 2 -16 -3 -20 -30 -20 -18 0 -43 6 -56 13 -19 11 -25 10
-38 -3 -8 -8 -22 -15 -30 -15 -8 0 -12 -5 -9 -10 3 -6 18 -10 32 -10 19 0 24
-4 19 -16 -5 -13 -2 -15 13 -11 12 3 22 -1 25 -10 4 -9 13 -12 26 -8 25 8 25
4 3 -21 -11 -11 -35 -20 -58 -22 -22 -2 -42 -5 -44 -8 -7 -7 33 -46 59 -57
l25 -11 -31 -4 c-27 -3 -31 -7 -26 -24 4 -18 3 -19 -18 -8 -12 7 -25 8 -29 4
-9 -13 -129 -15 -136 -4 -3 6 3 10 14 10 12 0 21 4 21 9 0 5 9 13 20 16 27 9
25 25 -4 25 -22 0 -23 3 -18 50 3 32 0 55 -8 65 -15 18 -30 19 -30 2 0 -7 -10
-17 -22 -22 -16 -7 -24 -20 -26 -42 -2 -20 -12 -37 -28 -47 -29 -20 -31 -33
-4 -41 23 -7 27 -25 6 -25 -19 0 -29 -29 -16 -45 7 -8 7 -16 2 -19 -6 -3 -15
0 -21 8 -7 8 -23 17 -36 20 -14 4 -25 11 -25 16 0 6 -9 10 -20 10 -25 0 -25 9
-2 26 16 12 15 13 -5 14 -14 0 -23 6 -23 16 0 8 4 12 10 9 5 -3 20 1 32 9 19
14 20 16 4 22 -13 5 -14 9 -5 21 9 10 9 17 1 25 -6 6 -8 17 -5 24 6 16 -13 19
-22 4 -3 -5 -12 -7 -19 -4 -8 3 -22 -9 -34 -30 -29 -49 -62 -50 -62 -3 0 39 8
51 26 36 8 -7 14 -7 19 1 3 6 11 8 16 5 5 -4 9 0 9 9 0 8 -6 17 -12 19 -7 3
-3 6 10 6 24 1 30 16 10 25 -10 5 -10 7 0 12 23 11 12 24 -13 14 -14 -5 -25
-6 -25 -2 0 4 -9 -4 -20 -18 -16 -21 -20 -22 -20 -7 0 10 10 31 22 47 22 31
19 51 -6 31 -11 -9 -15 -5 -20 24 -4 19 -11 35 -15 35 -13 0 -21 -26 -16 -50
3 -17 1 -19 -16 -10 -24 14 -24 6 2 -36 11 -19 19 -44 16 -56 -3 -20 -5 -19
-12 10 -7 30 -25 45 -25 21 0 -8 -5 -7 -15 1 -23 19 -30 4 -12 -23 12 -18 13
-27 4 -36 -8 -8 -7 -11 5 -11 9 0 20 -5 24 -12 5 -8 0 -9 -14 -6 -18 5 -22 2
-22 -18 0 -28 -7 -30 -38 -8 -27 19 -41 12 -22 -11 10 -12 10 -15 0 -15 -9 0
-7 -6 5 -20 15 -16 15 -22 5 -35 -7 -8 -9 -15 -4 -15 5 0 20 -10 34 -21 l25
-21 -27 6 c-15 4 -28 1 -30 -5 -3 -8 -14 -7 -35 5 -18 9 -38 13 -46 10 -11 -4
-13 5 -9 45 3 33 0 56 -8 66 -15 18 -30 19 -30 2 0 -7 -10 -17 -22 -22 -16 -7
-24 -20 -26 -42 -2 -20 -12 -37 -28 -47 -31 -21 -30 -27 4 -48 26 -17 26 -17
4 -18 -27 0 -39 -24 -22 -45 7 -9 11 -16 9 -18 -2 -1 -17 -9 -34 -17 -22 -12
-31 -24 -33 -48 -2 -21 1 -32 9 -32 7 0 4 -6 -7 -14 -16 -13 -21 -13 -35 0
-15 13 -17 13 -22 -1 -7 -17 -62 -21 -72 -5 -3 5 3 10 14 10 12 0 21 4 21 9 0
5 9 13 20 16 27 9 25 25 -4 25 -22 0 -23 3 -18 50 3 32 0 55 -8 65 -15 18 -30
19 -30 2 0 -7 -10 -17 -22 -22 -16 -7 -24 -20 -26 -42 -2 -19 -11 -37 -22 -43
-15 -8 -20 -4 -30 20 -7 17 -10 39 -7 50 3 11 2 22 -3 25 -4 2 -20 44 -35 92
-15 49 -34 101 -42 117 l-15 29 -24 -29 c-14 -17 -23 -43 -24 -62 0 -18 -9
-52 -20 -74 -11 -23 -20 -49 -20 -57 0 -12 -11 -16 -38 -17 -20 -1 -40 3 -43
8 -7 12 -43 13 -81 3 -22 -6 -28 -4 -28 9 0 9 -8 16 -21 16 -12 0 -17 4 -14
11 4 6 14 8 23 4 8 -3 19 0 23 6 5 9 12 8 24 -4 18 -19 35 -22 35 -7 0 6 13
10 29 10 44 0 47 18 7 37 -20 9 -36 20 -36 25 0 4 -9 8 -20 8 -25 0 -25 9 -2
26 16 12 15 13 -5 14 -26 0 -42 20 -16 20 19 1 53 22 53 34 0 3 -7 6 -17 6
-14 0 -14 2 2 20 16 17 16 20 2 26 -9 3 -13 12 -10 20 6 16 -12 19 -22 4 -3
-5 -12 -7 -20 -4 -9 4 -17 -1 -21 -12 -4 -11 -18 -31 -32 -47 -29 -31 -42 -22
-42 30 0 32 14 51 24 34 9 -13 46 -1 46 15 0 8 -7 14 -15 14 -8 0 -15 5 -15
11 0 7 10 9 25 5 25 -6 36 9 13 17 -10 3 -10 8 1 21 13 15 12 16 -11 7 -14 -5
-28 -7 -31 -5 -3 3 -10 -4 -17 -15 -6 -12 -15 -21 -20 -21 -12 0 -2 29 22 59
19 25 24 46 8 36 -5 -3 -18 3 -30 15 -26 26 -30 25 -30 -5 0 -25 -10 -32 -24
-18 -14 14 -66 11 -66 -3 0 -8 -6 -14 -13 -14 -19 0 -47 -33 -47 -55 0 -10
-10 -30 -22 -43 -14 -15 -19 -26 -12 -29 6 -2 20 -10 30 -18 18 -14 18 -14 -4
-15 -27 0 -39 -25 -22 -45 7 -9 11 -16 9 -18 -2 -1 -17 -9 -34 -17 -22 -12
-31 -24 -33 -48 -3 -24 1 -32 13 -32 22 0 11 -16 -16 -23 -15 -4 -23 0 -26 14
-5 18 -14 21 -78 23 -11 1 -26 5 -33 10 -8 5 -18 4 -25 -3 -15 -15 -53 -14
-87 4 -40 21 -39 36 2 24 41 -11 51 -11 43 0 -3 5 -1 12 4 15 5 4 12 2 16 -4
3 -5 13 -10 21 -10 9 0 12 5 8 12 -5 7 -2 9 8 6 8 -4 21 2 29 13 7 10 21 19
31 19 33 0 18 18 -20 25 -21 3 -43 5 -48 4 -5 -1 -22 3 -37 9 -19 8 -34 9 -47
2 -27 -15 -50 -12 -50 5 0 8 -9 15 -21 15 -12 0 -17 4 -14 11 4 6 14 8 23 4 8
-3 19 0 23 7 6 9 12 8 27 -6 13 -11 22 -14 27 -7 3 6 19 11 35 11 43 0 46 18
6 37 -20 9 -36 20 -36 25 0 4 -9 8 -20 8 -25 0 -25 9 -2 26 16 12 15 13 -5 14
-14 0 -23 6 -23 16 0 8 4 12 10 9 5 -3 20 1 32 9 19 14 20 16 4 22 -13 5 -14
9 -5 21 9 10 9 17 1 25 -6 6 -8 17 -5 24 6 16 -13 19 -22 4 -3 -5 -12 -7 -20
-4 -8 4 -20 -6 -30 -25 -17 -34 -30 -41 -20 -12 3 11 1 22 -4 26 -7 3 -8 0 -5
-9 3 -9 1 -16 -5 -16 -6 0 -11 -10 -12 -22 -1 -17 -3 -15 -11 11 -13 45 -6 58
31 55 30 -2 41 9 21 21 -15 9 -1 27 16 21 8 -3 14 -1 14 4 0 6 -5 10 -10 10
-7 0 -7 7 1 22 10 19 9 20 -7 14 -11 -5 -25 -9 -33 -10 -8 -2 -20 -11 -27 -21
-13 -17 -14 -17 -14 -2 0 10 10 31 22 47 23 32 19 51 -7 30 -13 -11 -15 -9
-15 14 0 14 -4 26 -10 26 -5 0 -10 -13 -10 -30 0 -29 -13 -40 -25 -20 -3 5
-11 10 -16 10 -6 0 -1 -15 10 -34 12 -18 21 -42 20 -52 0 -14 -3 -11 -11 9
-10 28 -28 37 -28 15 -1 -8 -6 -6 -14 5 -11 14 -15 15 -19 4 -3 -8 0 -20 6
-27 7 -8 8 -10 1 -7 -16 9 -18 -84 -2 -95 10 -6 9 -8 -2 -8 -9 0 -26 7 -38 16
-26 18 -41 12 -23 -10 9 -11 9 -15 -1 -19 -9 -3 -6 -10 10 -22 22 -16 22 -18
5 -30 -16 -12 -14 -14 20 -20 20 -4 37 -11 37 -16 0 -4 17 -11 38 -15 l37 -8
-38 -8 c-27 -6 -46 -4 -67 7 -22 11 -29 12 -33 2 -3 -9 -13 -7 -37 7 -18 10
-35 14 -39 9 -3 -4 -17 -14 -31 -20 l-25 -11 32 -7 c23 -5 30 -11 26 -23 -5
-12 -1 -14 15 -10 12 4 23 0 26 -8 3 -7 12 -11 21 -8 8 4 15 1 15 -6 0 -13 32
-10 89 6 32 10 20 -11 -19 -31 -23 -12 -34 -13 -55 -3 -16 7 -29 8 -33 2 -4
-5 -25 -10 -47 -12 -22 -2 -41 -5 -43 -6 -9 -9 14 -36 39 -46 35 -15 49 -32
23 -30 -36 4 -42 0 -37 -21 5 -19 4 -20 -16 -10 -14 8 -21 8 -21 1 0 -5 -12
-10 -27 -10 l-27 0 35 -25 c19 -14 44 -28 57 -32 13 -3 36 -18 51 -34 l29 -28
-34 -11 c-25 -8 -39 -8 -56 1 -16 9 -23 9 -26 0 -2 -6 -15 -11 -28 -11 -22 0
-23 -2 -12 -20 7 -11 31 -29 52 -40 32 -15 36 -21 22 -26 -10 -4 -35 -1 -57 5
-33 10 -39 16 -34 31 4 12 -3 32 -17 52 -33 47 -41 50 -60 25 l-16 -22 -7 28
c-7 27 -35 39 -35 14 0 -7 -10 -17 -22 -22 -16 -7 -24 -20 -26 -42 -2 -20 -12
-37 -28 -47 -29 -20 -31 -33 -4 -41 29 -9 25 -22 -9 -30 -19 -4 -41 0 -64 13
-33 17 -34 20 -19 35 9 9 29 29 44 45 l26 29 -31 11 c-18 6 -42 9 -54 6 -17
-5 -25 1 -38 27 -17 32 -17 33 6 50 13 10 27 19 32 19 4 0 16 9 26 19 19 19
19 19 -5 25 -14 4 -30 4 -36 0 -5 -4 -14 0 -19 7 -6 11 -13 11 -26 3 -22 -13
-90 -9 -109 7 -23 19 -16 28 16 19 37 -11 102 -2 93 13 -4 6 0 8 10 4 10 -3
17 -2 17 4 0 6 5 7 12 3 7 -5 8 -3 4 5 -5 8 0 14 13 18 12 3 21 9 21 13 0 11
-56 23 -69 16 -5 -3 -22 1 -39 10 -23 11 -36 12 -51 5 -28 -15 -51 -13 -51 4
0 10 -10 15 -27 15 -24 1 -26 2 -10 11 9 5 22 7 28 3 6 -3 15 -1 20 7 6 11 12
9 30 -6 16 -14 23 -16 26 -7 3 6 14 12 26 12 12 0 28 4 36 9 12 7 7 13 -22 27
-20 10 -37 21 -37 26 0 4 -9 8 -20 8 -25 0 -26 15 -2 25 15 7 14 9 -6 14 -13
3 -22 11 -22 16 1 6 6 9 12 7 5 -1 19 4 30 12 19 14 20 16 4 22 -15 6 -16 8
-1 24 14 16 14 18 1 23 -9 4 -13 13 -10 22 6 15 -7 21 -20 8 -4 -4 -14 -8 -21
-8 -7 0 -24 -16 -37 -35 -13 -19 -31 -36 -41 -38 -14 -3 -17 4 -17 37 0 38 19
68 28 43 3 -9 9 -9 23 -2 23 13 25 30 4 30 -8 0 -15 5 -15 11 0 7 10 9 25 5
26 -7 35 8 13 18 -10 5 -10 7 0 12 23 11 12 24 -13 14 -14 -5 -25 -6 -25 -2 0
4 -9 -4 -20 -18 -16 -21 -20 -22 -20 -7 0 10 10 31 22 47 22 31 19 52 -5 31
-12 -9 -16 -5 -23 21 l-8 33 -4 -43 c-3 -43 -4 -44 -23 -26 -15 14 -19 14 -19
2 0 -8 7 -23 15 -34 8 -10 14 -30 14 -44 0 -21 -2 -20 -12 10 -7 19 -15 34
-19 33 -5 -2 -18 -3 -29 -3 -16 0 -20 -5 -16 -20 3 -11 1 -20 -5 -20 -5 0 -7
-4 -3 -10 3 -5 13 -6 21 -3 14 5 14 3 3 -16 -11 -17 -11 -25 -1 -41 18 -29 -9
-38 -44 -15 -29 18 -43 13 -25 -9 9 -11 9 -15 -1 -19 -9 -3 -5 -10 11 -23 22
-16 23 -18 7 -30 -15 -10 -12 -13 23 -19 23 -4 39 -10 36 -15 -6 -10 43 -23
57 -14 6 4 9 1 6 -7 -7 -20 -62 -23 -97 -5 -22 12 -30 13 -34 3 -3 -9 -13 -7
-37 7 -18 10 -35 15 -39 10 -5 -8 -71 -15 -71 -8 0 1 7 10 16 19 13 13 14 21
6 39 -8 18 -7 29 4 45 17 24 3 29 -16 6 -7 -8 -18 -15 -24 -15 -8 0 -8 3 0 8
6 4 14 16 17 27 7 20 7 20 -8 1 -18 -23 -20 -8 -6 41 8 27 6 34 -12 46 -19 13
-20 18 -9 36 15 26 8 41 -19 41 -19 0 -25 11 -12 23 11 11 11 111 0 128 -6 9
-18 14 -27 12 -19 -5 -34 22 -23 39 11 20 11 58 0 58 -36 2 -83 135 -67 191
14 48 12 69 -6 69 -9 0 -18 9 -21 20 -3 11 -9 20 -14 20 -5 0 -9 7 -9 15 0 8
5 15 12 15 7 0 5 7 -5 18 -10 11 -14 26 -10 41 4 17 1 28 -13 38 -10 8 -20 18
-20 23 -1 6 -2 11 -4 13 -1 1 -3 13 -5 27 -10 68 -16 94 -24 104 -5 6 -12 25
-15 43 -4 17 -14 34 -22 37 -8 3 -12 15 -10 28 2 13 -4 34 -14 48 -9 14 -17
32 -17 40 0 19 -52 100 -64 100 -14 0 -50 -63 -44 -78 2 -7 -7 -18 -20 -24
-14 -6 -25 -17 -25 -25 0 -22 -2 -28 -18 -39 -8 -6 -12 -16 -8 -22 3 -6 1 -14
-5 -18 -9 -5 -3 -15 17 -31 20 -15 24 -23 13 -23 -25 0 -51 -34 -37 -48 9 -9
7 -16 -7 -32 -10 -11 -15 -20 -11 -20 3 0 0 -10 -7 -22 -8 -13 -13 -37 -12
-55 2 -18 0 -31 -4 -30 -3 1 -16 -7 -28 -18 -24 -21 -30 -45 -12 -45 8 0 8 -5
-1 -15 -7 -8 -10 -21 -7 -29 3 -7 0 -19 -6 -25 -8 -8 -8 -11 1 -11 9 0 8 -8
-4 -25 -9 -14 -20 -22 -25 -19 -5 3 -10 -14 -11 -38 -3 -71 -3 -75 -15 -89 -6
-8 -10 -29 -8 -46 1 -18 -1 -30 -7 -27 -5 3 -15 1 -22 -5 -8 -7 -18 -11 -22
-10 -22 4 -24 -3 -10 -23 11 -15 12 -25 5 -34 -14 -17 -3 -35 16 -27 23 8 18
-25 -5 -37 -11 -6 -20 -20 -20 -30 0 -11 -4 -20 -9 -20 -5 0 -16 -3 -24 -6
-13 -4 -15 4 -13 45 3 44 1 49 -12 38 -13 -10 -14 -7 -10 21 4 25 1 32 -9 28
-9 -4 -11 -1 -7 6 12 19 11 59 0 48 -16 -16 -25 -11 -19 10 4 15 0 20 -13 20
-12 0 -15 3 -8 8 6 4 14 19 18 35 5 21 3 27 -9 27 -9 0 -13 5 -10 10 3 6 -1
10 -9 10 -19 0 -21 11 -4 28 9 9 9 12 0 12 -7 0 -12 14 -12 31 0 24 -3 30 -16
25 -9 -3 -18 -6 -20 -6 -8 0 -27 -54 -31 -85 -2 -16 -10 -35 -18 -41 -8 -6
-15 -21 -15 -34 0 -16 -4 -21 -16 -16 -13 5 -15 1 -12 -19 4 -18 1 -25 -11
-25 -10 0 -12 -3 -5 -8 14 -9 12 -51 -4 -79 -8 -15 -9 -23 -2 -23 5 0 10 -8
10 -17 0 -15 -2 -16 -10 -3 -17 27 -25 -1 -8 -31 16 -28 16 -29 -3 -29 -11 0
-17 5 -14 10 9 15 -12 12 -22 -2 -4 -7 -8 -30 -9 -51 0 -30 3 -37 15 -32 13 5
13 3 4 -6 -9 -9 -19 -9 -45 1 -18 8 -34 14 -36 15 -1 1 2 14 7 29 7 18 7 26 0
26 -6 0 -7 5 -3 11 13 22 11 88 -3 94 -8 2 -13 10 -12 17 1 7 -1 25 -6 41 -6
23 -10 26 -23 15 -13 -11 -14 -10 -8 9 4 12 2 24 -3 27 -6 4 -6 18 -1 37 7 23
5 31 -5 36 -8 3 -12 9 -9 14 3 5 -7 9 -23 9 l-28 1 25 14 c14 8 19 14 13 15
-8 0 -13 13 -13 29 0 17 -4 32 -9 35 -16 10 -66 -68 -55 -86 4 -6 3 -8 -4 -4
-6 4 -12 -4 -14 -21 -2 -23 -7 -28 -27 -25 -23 2 -23 2 -6 -24 16 -24 16 -26
1 -21 -11 4 -16 1 -16 -10 0 -13 -3 -13 -15 -3 -22 18 -31 4 -16 -24 8 -13 10
-29 7 -34 -4 -6 2 -16 11 -22 17 -11 17 -11 0 -6 -14 5 -16 1 -11 -19 7 -30
-6 -32 -42 -9 -27 19 -43 12 -25 -10 9 -11 9 -15 -1 -19 -9 -3 -7 -9 7 -20 20
-15 20 -16 1 -30 -13 -10 -15 -16 -8 -21 12 -7 17 -46 6 -46 -3 0 -19 8 -35
17 -19 12 -32 14 -37 8 -4 -6 -18 -16 -32 -22 l-25 -11 32 -7 c28 -7 31 -10
28 -41 -2 -19 1 -34 6 -34 5 0 9 -4 9 -10 0 -5 -12 -10 -26 -10 -31 0 -28 -20
4 -35 25 -11 29 -33 7 -41 -8 -4 -12 -10 -9 -15 3 -5 -6 -9 -20 -9 -14 0 -26
-4 -26 -10 0 -5 -10 -10 -22 -10 -19 0 -18 -3 13 -25 52 -37 59 -44 59 -61 0
-11 -6 -14 -16 -10 -8 3 -13 2 -10 -3 3 -4 -10 -16 -29 -27 -26 -14 -32 -21
-23 -31 8 -10 5 -13 -14 -13 -24 0 -25 2 -20 50 3 32 0 55 -8 65 -16 19 -30
19 -30 0 0 -8 -6 -15 -14 -15 -20 0 -45 -37 -39 -59 3 -11 -5 -24 -21 -35 -33
-21 -33 -27 2 -48 25 -16 25 -17 6 -18 -26 0 -39 -27 -23 -47 7 -7 10 -14 8
-16 -2 -1 -17 -9 -34 -17 -23 -12 -31 -24 -33 -49 -3 -27 0 -33 12 -28 25 10
18 -9 -8 -21 -18 -8 -27 -7 -39 5 -14 14 -16 11 -22 -31 -9 -58 -27 -73 -25
-20 3 56 1 60 -12 42 -7 -9 -22 -18 -32 -20 -19 -3 -28 -15 -42 -53 -6 -17 -8
-18 -11 -3 -2 9 4 38 13 65 9 26 25 69 34 96 9 26 20 50 24 54 12 12 6 23 -14
23 -25 0 -26 16 -1 23 16 4 17 11 11 52 -5 34 -3 56 7 77 19 36 11 47 -14 19
-9 -12 -21 -21 -25 -21 -13 0 -17 35 -9 73 9 39 -2 50 -27 25 -7 -7 -12 -8
-12 -2 0 5 6 16 12 23 7 6 13 34 13 61 l0 49 -28 -27 -28 -26 7 38 c4 27 2 42
-8 48 -8 5 -3 6 15 2 22 -5 26 -3 21 10 -3 8 -14 18 -25 21 -23 8 -27 63 -4
71 15 6 21 45 9 57 -4 3 -16 0 -28 -8 -29 -21 -42 -19 -23 3 21 23 13 32 -25
32 -33 0 -39 25 -8 33 28 7 25 27 -4 27 -22 0 -23 3 -18 50 3 32 0 55 -8 65
-16 19 -30 19 -30 0 0 -8 -6 -15 -14 -15 -21 0 -45 -38 -39 -60 5 -17 -28 -46
-39 -35 -3 3 -5 -3 -5 -12 0 -10 10 -26 21 -36 l21 -19 -22 5 c-25 6 -30 -11
-13 -43 8 -15 6 -21 -10 -30 -11 -6 -24 -9 -29 -6 -10 6 -21 -27 -21 -63 0
-16 4 -22 15 -17 8 3 15 1 15 -4 0 -17 -49 -23 -68 -9 -9 7 -14 10 -10 5 3 -4
2 -22 -4 -38 -9 -26 -8 -33 7 -44 15 -11 16 -16 5 -29 -7 -8 -17 -15 -22 -15
-6 0 -5 7 2 15 10 12 10 15 -2 15 -10 0 -23 25 -38 73 -12 39 -29 85 -37 100
l-14 28 -23 -23 c-15 -14 -25 -41 -29 -71 -4 -27 -13 -63 -21 -80 -8 -18 -18
-45 -22 -62 -4 -16 -8 -33 -9 -37 -2 -5 -3 -14 -4 -22 0 -8 -8 -22 -17 -30 -9
-10 -13 -24 -9 -36 4 -13 -1 -25 -14 -37 -12 -10 -21 -30 -21 -45 0 -21 -7
-31 -25 -38 -14 -5 -28 -17 -30 -25 -15 -46 -18 -51 -22 -33 -2 9 3 36 11 60
37 107 53 149 59 155 13 12 7 23 -13 23 -25 0 -26 16 -1 23 16 4 17 11 11 52
-5 34 -3 56 7 77 19 36 11 47 -14 19 -9 -12 -21 -21 -25 -21 -13 0 -17 35 -9
73 9 39 -2 50 -27 25 -8 -8 -12 -8 -12 -1 0 6 7 16 15 23 11 9 14 22 9 46 -4
21 -2 40 6 49 21 25 -2 17 -32 -12 -33 -32 -42 -27 -26 14 10 26 9 34 -6 48
-13 13 -14 20 -5 25 7 5 10 19 6 38 -3 17 -1 34 6 41 16 16 -17 42 -41 34 -15
-6 -15 -4 1 14 20 24 14 33 -25 33 -33 0 -39 25 -8 33 28 7 25 27 -4 27 -22 0
-23 3 -18 50 3 32 0 55 -8 65 -16 19 -30 19 -30 0 0 -8 -6 -15 -14 -15 -20 0
-45 -37 -39 -59 3 -11 -5 -24 -21 -35 -33 -21 -33 -27 2 -48 24 -15 25 -18 7
-19 -11 -1 -33 -3 -49 -5 -26 -3 -27 -2 -12 15 20 22 12 31 -26 31 -33 0 -39
25 -8 33 28 7 25 27 -4 27 -22 0 -23 3 -18 50 3 32 0 55 -8 65 -16 19 -30 19
-30 0 0 -8 -6 -15 -14 -15 -21 0 -45 -38 -39 -60 3 -12 -3 -22 -16 -29 -11 -6
-26 -21 -32 -32 -8 -15 -8 -19 0 -15 6 4 21 0 33 -8 l22 -16 -22 0 c-26 0 -39
-24 -23 -44 13 -15 1 -29 -36 -40 -13 -4 -23 -10 -24 -14 -6 -53 -4 -58 24
-53 5 1 6 -3 2 -9 -3 -6 -10 -8 -15 -5 -4 3 -10 -1 -13 -7 -3 -10 -9 -10 -25
-1 -19 11 -21 9 -27 -27 -4 -22 -12 -40 -18 -40 -7 0 -22 -3 -34 -6 -21 -6
-22 -4 -13 22 21 65 47 135 54 141 12 12 6 23 -14 23 -11 0 -20 5 -20 10 0 6
9 10 20 10 23 0 22 -1 10 60 -6 33 -4 52 7 73 19 37 13 43 -16 16 -19 -18 -25
-19 -32 -8 -11 18 -11 27 1 68 9 32 9 33 -18 27 -26 -6 -26 -6 -8 9 11 8 16
15 11 15 -5 0 -4 5 3 12 15 15 16 32 2 23 -14 -9 -12 39 2 53 25 25 -7 11 -34
-15 -30 -29 -46 -26 -29 5 19 35 13 49 -24 56 -19 4 -37 12 -41 18 -5 8 -2 9
9 5 27 -10 47 3 47 32 0 15 5 32 11 38 20 20 2 43 -33 43 l-33 0 25 20 25 20
-51 0 c-28 0 -54 3 -57 7 -7 6 23 27 56 39 28 10 20 24 -14 24 -27 0 -30 2
-19 15 14 17 8 91 -8 107 -6 6 -20 -1 -39 -19 -36 -35 -63 -70 -45 -59 24 14
12 -23 -15 -43 -14 -12 -24 -23 -22 -24 2 -2 15 -11 29 -20 l24 -17 -23 0
c-21 0 -23 -4 -18 -32 4 -29 1 -35 -27 -48 -24 -12 -32 -22 -34 -49 -3 -27 0
-33 12 -28 26 10 18 -9 -9 -21 -21 -10 -27 -9 -31 3 -10 25 -21 17 -29 -21 -5
-28 -2 -39 11 -49 17 -12 16 -14 -4 -40 -24 -31 -28 -65 -10 -83 10 -10 7 -16
-10 -28 -12 -8 -22 -23 -22 -33 0 -10 -10 -26 -22 -35 l-23 -16 30 3 c24 1 29
-2 27 -15 -2 -10 3 -18 10 -18 9 0 9 -3 1 -11 -13 -13 -33 -4 -33 17 0 20 -17
17 -37 -6 -10 -11 -21 -20 -25 -20 -5 0 -8 9 -8 20 0 13 -7 20 -19 20 -25 0
-36 16 -16 24 9 3 15 19 15 40 0 23 6 39 18 45 15 9 15 12 2 21 -8 5 -23 10
-32 10 -20 0 -24 15 -8 25 23 14 -4 26 -45 20 -27 -5 -45 -3 -49 4 -4 7 1 11
13 11 12 0 21 4 21 9 0 5 9 13 20 16 23 7 27 25 5 25 -17 0 -19 12 -5 26 8 8
6 15 -5 24 -8 7 -15 23 -15 36 0 13 -9 29 -20 36 -25 16 -25 22 2 48 l22 20
-22 0 c-19 0 -22 5 -22 44 0 26 5 46 13 49 22 8 0 18 -44 22 -24 1 -57 8 -72
14 -19 7 -34 8 -47 1 -27 -15 -50 -12 -50 5 0 8 -9 15 -20 15 -13 0 -18 5 -14
15 5 12 9 13 21 3 11 -9 16 -9 23 2 7 12 12 11 30 -5 17 -15 23 -17 29 -6 5 8
13 11 17 8 5 -2 19 -1 32 4 20 8 21 11 10 23 -8 7 -23 16 -35 20 -12 4 -24 13
-27 21 -3 8 -12 12 -21 9 -21 -8 -19 12 3 21 15 6 14 8 -8 17 l-25 9 33 16
c34 17 42 33 15 33 -14 0 -14 2 2 20 15 17 16 20 2 25 -10 4 -13 14 -9 28 5
20 4 21 -13 7 -10 -8 -24 -15 -31 -15 -7 0 -23 -15 -36 -34 -32 -47 -44 -48
-53 -5 -6 36 6 66 19 46 6 -11 46 -4 46 7 0 4 -5 12 -12 19 -9 9 -7 12 10 12
24 0 30 16 10 23 -10 3 -9 8 2 22 14 17 13 18 -5 11 -11 -4 -26 -9 -32 -10 -7
-1 -20 -11 -28 -22 -14 -18 -14 -18 -15 -1 0 11 9 32 21 49 22 31 19 49 -4 29
-12 -9 -16 -5 -22 21 l-8 33 -6 -44 c-5 -39 -8 -42 -20 -28 -25 31 -33 18 -11
-18 12 -19 20 -43 17 -52 -3 -14 -6 -11 -11 10 -8 27 -26 38 -26 15 0 -9 -3
-9 -12 0 -7 7 -16 12 -20 12 -14 0 -9 -27 7 -40 8 -7 12 -17 8 -24 -12 -18
-12 -40 -1 -53 17 -21 -19 -27 -48 -8 -29 18 -43 13 -25 -9 9 -11 9 -15 -1
-19 -9 -3 -6 -10 11 -22 21 -16 21 -19 7 -27 -25 -14 -19 -25 16 -26 17 0 34
-6 38 -13 5 -6 22 -12 39 -13 17 0 29 -5 28 -11 -5 -15 -63 -18 -87 -5 -12 7
-34 13 -49 15 -14 2 -31 5 -36 6 -16 3 -76 -27 -68 -34 3 -4 17 -7 29 -7 18 0
22 -4 17 -17 -4 -11 -3 -14 6 -9 6 4 18 2 26 -4 8 -6 23 -9 34 -5 16 5 20 3
15 -9 -4 -10 -1 -16 7 -16 16 0 79 22 97 33 7 5 12 4 12 -2 0 -13 -74 -61 -93
-61 -7 0 -18 5 -24 11 -7 7 -17 8 -25 3 -7 -5 -31 -10 -52 -11 -22 -2 -42 -6
-45 -9 -8 -7 50 -54 67 -54 6 0 12 -4 12 -10 0 -5 -13 -10 -29 -10 -24 0 -28
-3 -24 -20 3 -11 2 -20 -1 -20 -11 0 -50 25 -62 39 -9 11 -15 7 -33 -23 -13
-20 -21 -42 -18 -49 2 -6 -11 -55 -30 -107 -18 -52 -33 -105 -33 -117 0 -13
-8 -24 -21 -28 -28 -9 -46 9 -29 30 9 11 9 15 1 15 -8 0 -10 8 -6 21 6 19 5
20 -14 9 -12 -6 -26 -8 -31 -5 -6 3 -15 -6 -20 -21 -23 -59 -70 -62 -70 -3 0
28 21 52 28 31 2 -8 8 -8 23 1 19 12 19 12 -3 29 l-23 18 25 0 c19 0 26 5 26
19 0 20 -28 23 -55 7 -23 -15 -23 3 -1 41 19 31 20 35 4 20 -18 -17 -19 -16
-31 15 l-11 33 -1 -32 c-1 -29 -4 -32 -31 -31 -34 1 -41 23 -10 33 26 8 25 21
-2 28 -18 5 -19 8 -8 22 9 11 10 19 3 23 -6 4 -14 22 -18 40 -8 39 -28 50 -51
28 -8 -9 -20 -13 -26 -9 -7 4 -2 13 12 25 20 17 22 22 12 39 -9 14 -10 25 -2
39 15 28 1 25 -32 -7 -27 -26 -28 -26 -28 -5 0 11 4 24 10 27 18 11 11 45 -10
45 -24 0 -70 20 -70 31 0 4 16 5 35 2 34 -6 35 -5 35 29 0 19 5 39 11 45 17
17 1 33 -34 33 l-32 0 25 20 25 20 -52 0 c-28 0 -54 3 -57 8 -2 4 13 16 35 26
47 23 50 36 7 36 -25 0 -29 3 -20 12 23 23 7 118 -19 118 -6 0 -9 -7 -5 -15 3
-10 -1 -15 -12 -15 -26 0 -42 -20 -42 -52 0 -17 -8 -33 -20 -40 -26 -17 -25
-32 3 -51 l22 -16 -24 0 c-21 -1 -23 -4 -18 -35 5 -30 2 -35 -30 -50 -36 -17
-53 -14 -53 10 0 19 -37 139 -57 183 l-15 34 -19 -24 c-22 -28 -25 -38 -34
-103 -4 -33 -12 -50 -23 -53 -10 -2 -27 -22 -40 -44 -23 -40 -55 -53 -51 -21
1 9 -1 25 -5 34 -10 23 2 40 22 34 10 -3 24 -1 32 4 12 8 12 10 -3 16 -22 8
-22 24 1 24 11 0 18 7 18 19 0 24 -44 22 -58 -2 -5 -10 -13 -17 -18 -17 -12 0
-1 28 24 62 11 15 16 31 12 35 -4 4 -11 1 -17 -7 -8 -13 -10 -13 -19 0 -5 8
-10 21 -10 28 0 6 -5 12 -11 12 -6 0 -8 -7 -5 -16 4 -10 1 -14 -6 -12 -7 3
-13 11 -14 19 -3 56 -18 99 -35 99 -27 0 -32 18 -8 31 16 8 18 13 9 19 -7 5
-10 15 -6 25 4 11 0 25 -9 35 -14 15 -14 19 -1 30 23 18 32 81 15 94 -28 22
-46 79 -38 121 13 69 11 83 -13 87 -20 3 -23 9 -22 46 1 33 -2 42 -12 38 -8
-3 -14 1 -14 11 0 9 -6 24 -14 32 -21 24 -33 101 -23 144 8 34 7 39 -18 59
-19 15 -26 27 -22 45 2 13 0 26 -4 29 -5 3 -6 16 -3 30 4 16 1 26 -10 30 -8 3
-18 22 -22 42 -4 21 -10 42 -14 47 -7 9 -17 43 -26 89 -2 10 -9 25 -16 33 -7
9 -11 26 -10 37 2 12 -6 30 -17 40 -11 10 -17 24 -14 32 6 17 -33 74 -52 74
-7 0 -20 -17 -28 -39 -9 -21 -23 -41 -31 -44 -9 -4 -16 -13 -16 -21 0 -7 -7
-27 -15 -42 -14 -27 -14 -30 5 -46 l21 -17 -21 -11 c-11 -6 -20 -16 -19 -23 3
-16 -10 -66 -23 -94 -6 -12 -8 -28 -5 -36 3 -9 -6 -24 -24 -38 -22 -17 -26
-25 -18 -35 8 -10 8 -14 0 -14 -6 0 -10 -14 -8 -32 3 -32 -19 -82 -32 -74 -3
2 -7 -18 -8 -46 -1 -27 -7 -56 -13 -64 -7 -7 -9 -25 -6 -38 5 -22 2 -26 -29
-32 -29 -5 -33 -9 -24 -20 6 -8 9 -21 5 -29 -3 -9 0 -15 9 -15 9 0 15 -10 15
-25 0 -16 -6 -25 -15 -25 -9 0 -19 -8 -22 -17 -4 -10 -17 -26 -30 -36 -16 -13
-23 -29 -23 -52 0 -18 -6 -35 -12 -38 -10 -3 -10 -7 0 -19 10 -13 10 -19 -3
-31 -14 -14 -13 -16 5 -22 27 -9 25 -25 -3 -25 -13 0 -28 -5 -34 -11 -6 -6
-16 -9 -21 -5 -17 10 -20 89 -5 119 15 30 8 35 -18 11 -34 -30 -51 12 -29 70
10 28 -5 37 -27 15 -7 -7 -13 -7 -17 -1 -4 6 3 17 15 25 17 13 19 19 10 36 -9
15 -9 27 -1 41 14 26 2 25 -27 -2 -26 -25 -43 -17 -25 12 18 29 15 50 -8 50
-24 0 -70 20 -70 31 0 4 16 5 35 2 34 -6 35 -5 35 29 0 19 5 39 11 45 17 17 1
33 -34 33 l-32 0 25 20 25 20 -51 0 c-28 0 -54 3 -57 7 -7 6 23 27 56 39 28
10 20 24 -15 24 -25 0 -29 3 -20 12 23 23 6 128 -19 113 -6 -4 -8 -10 -4 -13
3 -3 -9 -12 -26 -19 -24 -10 -30 -18 -27 -37 2 -16 -6 -34 -22 -51 l-25 -26
25 -19 25 -20 -24 0 c-21 0 -23 -4 -18 -32 4 -29 1 -35 -27 -49 -38 -19 -51
-69 -17 -69 12 0 21 -4 21 -9 0 -11 -59 -33 -71 -25 -5 3 -14 -6 -21 -21 -10
-21 -9 -27 7 -39 18 -13 18 -14 -3 -44 -25 -34 -28 -62 -10 -80 10 -10 10 -15
-2 -22 -9 -6 -17 -5 -21 2 -4 6 -12 7 -18 4 -6 -4 -11 0 -11 10 0 10 -6 25
-14 33 -21 24 -33 101 -23 144 8 34 7 39 -18 59 -19 15 -26 27 -22 45 2 13 0
26 -4 29 -5 3 -6 16 -3 30 4 16 1 26 -10 30 -8 3 -18 22 -22 42 -4 21 -10 42
-14 47 -7 9 -18 50 -26 93 -1 7 -8 20 -16 29 -7 9 -11 26 -10 37 2 12 -6 30
-17 40 -11 10 -17 24 -14 32 6 17 -33 74 -52 74 -7 0 -20 -17 -28 -39 -9 -21
-23 -41 -31 -44 -9 -4 -16 -13 -16 -21 0 -7 -7 -27 -15 -42 -14 -27 -13 -30 7
-45 l21 -17 -21 -11 c-13 -7 -22 -21 -22 -36 0 -45 -64 -68 -124 -45 -42 16
-32 34 14 26 22 -3 40 -2 40 3 0 5 8 11 19 14 21 5 36 57 16 57 -7 0 -26 -5
-43 -11 -22 -7 -36 -7 -52 1 -23 12 -18 33 5 23 11 -4 13 -1 9 11 -3 9 -1 16
5 16 6 0 11 5 11 10 0 6 -28 10 -65 10 -68 0 -87 14 -34 25 20 5 29 11 25 21
-3 8 1 14 10 14 8 0 31 12 50 27 l35 27 -23 12 c-13 7 -31 11 -41 8 -11 -4
-24 1 -32 13 -11 14 -16 16 -26 6 -16 -16 -60 -17 -94 -1 -31 14 -32 28 -2 29
91 2 137 17 137 45 0 7 9 16 20 19 11 3 20 10 20 15 0 13 -55 28 -83 23 -17
-3 -27 -1 -27 6 0 8 -11 10 -34 6 -36 -7 -126 24 -126 43 0 10 81 7 109 -4 8
-2 27 9 43 26 15 17 32 28 38 25 5 -3 10 -2 10 4 0 5 10 13 23 17 21 7 21 8
-6 15 -16 4 -35 5 -42 3 -7 -3 -16 -1 -20 5 -4 7 -13 6 -28 -4 -28 -18 -85 -5
-113 26 -18 20 -18 20 11 14 17 -4 36 -8 43 -11 6 -2 12 4 12 12 0 10 5 14 15
10 40 -16 49 -19 43 -11 -8 8 20 28 55 41 41 15 -3 37 -54 27 -17 -3 -29 -1
-29 5 0 16 -35 20 -60 7 -27 -15 -60 -8 -60 11 0 8 -9 14 -20 14 -17 0 -19 2
-8 14 10 10 17 11 26 3 10 -8 16 -7 22 3 7 12 12 11 28 -4 13 -11 22 -14 27
-7 3 6 16 11 28 11 44 0 50 16 13 34 -20 9 -36 22 -36 28 0 6 -11 8 -24 6 -17
-4 -23 -1 -19 9 3 7 9 13 14 13 18 0 9 18 -12 23 -12 3 -18 10 -14 16 3 6 11
9 16 6 5 -4 19 1 31 9 19 13 19 16 5 22 -13 4 -14 10 -7 24 7 13 7 21 -1 25
-6 4 -8 13 -5 21 4 12 2 12 -14 4 -11 -6 -25 -8 -30 -5 -6 4 -15 -7 -21 -24
-11 -30 -51 -65 -63 -54 -3 4 -6 26 -6 51 0 41 2 44 23 39 12 -4 29 -2 37 3
12 8 12 10 -3 16 -22 8 -22 24 1 24 11 0 18 7 18 19 0 15 -6 19 -26 16 -14 -1
-26 -10 -28 -19 -4 -16 -32 -23 -32 -7 0 4 11 25 25 46 26 38 29 59 4 29 -12
-14 -14 -13 -25 17 l-12 34 -1 -39 c-1 -33 -3 -37 -16 -26 -22 18 -32 4 -13
-17 23 -26 34 -67 17 -61 -7 2 -16 15 -19 29 -4 16 -8 20 -14 11 -5 -9 -12 -9
-27 -2 -22 12 -25 2 -5 -25 8 -11 12 -25 9 -32 -3 -7 2 -13 11 -13 9 0 16 -4
16 -10 0 -5 -10 -10 -21 -10 -18 0 -20 -2 -8 -16 19 -24 -9 -38 -38 -19 -29
19 -50 20 -34 2 6 -8 8 -17 4 -21 -4 -3 2 -13 13 -21 18 -14 18 -16 1 -29 -16
-12 -15 -14 14 -20 17 -3 36 -3 42 1 6 4 8 0 4 -10 -6 -17 6 -22 46 -19 9 1
17 -5 17 -13 0 -19 -57 -20 -95 -3 -20 9 -28 9 -34 0 -5 -8 -16 -6 -38 8 -26
16 -32 16 -37 4 -3 -8 -15 -14 -26 -14 -12 0 -18 -4 -15 -10 3 -5 17 -10 30
-10 19 0 23 -4 18 -17 -4 -11 -3 -14 6 -9 6 4 18 3 25 -4 8 -6 27 -8 43 -5 15
3 22 2 16 -1 -7 -3 -13 -9 -13 -14 0 -10 31 -6 79 9 48 15 48 8 1 -23 -43 -28
-60 -32 -77 -15 -7 7 -17 8 -25 3 -7 -5 -31 -10 -52 -11 -22 -2 -42 -6 -45 -9
-8 -7 50 -54 67 -54 6 0 12 -6 12 -14 0 -9 -8 -12 -27 -8 -21 4 -25 2 -20 -11
8 -21 -10 -32 -28 -17 -10 8 -15 9 -15 2 0 -6 -12 -12 -27 -14 -25 -3 -23 -5
24 -30 27 -15 52 -26 55 -23 2 2 19 -11 37 -30 l33 -35 -28 -10 c-14 -6 -41
-10 -58 -8 -17 1 -44 1 -61 0 l-30 -2 31 -29 c16 -16 40 -32 52 -35 31 -10 27
-26 -5 -25 -48 2 -78 14 -77 32 1 9 -3 17 -8 17 -17 0 -38 28 -32 44 4 11 0
13 -17 9 -20 -5 -21 -3 -15 20 3 14 2 29 -4 32 -5 3 -10 17 -10 30 0 13 -4 26
-9 29 -5 3 -14 26 -20 51 -6 25 -16 43 -20 40 -5 -3 -8 11 -7 30 2 19 -1 35
-6 35 -6 0 -8 6 -5 14 3 7 -2 24 -11 37 -9 13 -15 33 -14 44 2 11 -6 29 -16
41 -10 11 -18 27 -17 35 2 8 -10 31 -26 50 l-28 34 -20 -46 c-12 -26 -28 -49
-36 -53 -8 -3 -15 -15 -15 -26 0 -11 -5 -20 -11 -20 -6 0 -9 -6 -6 -14 3 -7 1
-18 -5 -24 -7 -7 -4 -14 11 -24 26 -16 27 -24 1 -31 -15 -4 -20 -14 -20 -36 0
-17 -5 -31 -11 -31 -6 0 -8 -9 -4 -20 4 -11 2 -20 -4 -20 -6 0 -11 -15 -11
-33 0 -22 -7 -36 -21 -45 -11 -7 -19 -21 -18 -30 1 -9 -1 -25 -6 -35 -4 -9 -5
-26 -2 -37 3 -11 -3 -26 -13 -35 -16 -14 -22 -15 -42 -4 l-23 14 22 3 c14 2
20 8 16 18 -3 8 0 14 6 14 6 0 11 4 11 10 0 5 -28 10 -62 12 -35 2 -63 8 -65
14 -2 7 2 12 9 11 40 -1 49 3 43 23 -5 15 -3 18 9 14 8 -3 31 6 51 22 l36 28
-23 12 c-13 7 -34 10 -47 7 -15 -4 -22 -2 -18 4 9 15 -24 26 -37 13 -15 -15
-72 -12 -86 5 -7 8 -16 12 -21 9 -5 -3 -9 0 -9 5 0 6 15 12 33 13 46 2 50 3
65 11 6 5 17 5 23 2 8 -6 79 58 79 70 0 9 -61 22 -83 18 -17 -4 -27 -1 -27 7
0 8 -9 10 -25 6 -30 -8 -92 7 -120 28 -29 21 -18 24 50 16 58 -7 61 -6 87 22
16 16 32 26 38 23 5 -3 10 -2 10 4 0 5 10 13 23 17 21 7 21 8 -6 15 -16 4 -35
5 -42 3 -7 -3 -16 0 -20 6 -5 8 -11 8 -21 -1 -22 -18 -70 -13 -105 11 -37 27
-34 31 14 21 30 -7 37 -6 37 6 0 10 5 13 18 8 9 -4 23 -10 31 -13 9 -3 12 -1
7 6 -4 7 -1 12 7 12 8 0 26 11 41 24 l28 23 -24 6 c-13 4 -33 4 -45 1 -11 -3
-32 1 -45 10 -16 10 -28 12 -38 6 -8 -5 -28 -10 -44 -10 -21 0 -27 4 -22 15 4
11 -1 15 -19 15 -14 0 -25 4 -25 9 0 15 27 20 39 8 9 -9 14 -8 21 3 7 12 12
12 28 -4 13 -11 22 -14 27 -7 3 6 16 11 28 11 44 0 50 16 13 34 -20 9 -36 22
-36 28 0 6 -10 8 -25 4 -19 -5 -23 -3 -19 9 4 8 10 15 15 15 18 0 9 18 -12 23
-12 3 -18 10 -14 16 3 6 11 9 16 6 5 -4 19 1 31 9 19 13 19 16 5 22 -13 4 -14
10 -7 24 7 13 7 21 -1 25 -6 4 -8 14 -4 22 4 13 3 14 -10 3 -8 -7 -22 -10 -30
-6 -10 4 -19 -2 -25 -18 -11 -29 -50 -67 -62 -60 -4 3 -8 26 -8 51 0 42 2 45
23 40 12 -4 29 -2 37 3 12 8 12 10 -3 16 -22 8 -22 24 1 24 11 0 18 7 18 20 0
25 -47 24 -54 -2 -2 -10 -11 -18 -19 -18 -18 0 -8 37 18 66 21 22 27 46 7 26
-20 -20 -36 -14 -41 16 -3 22 -4 20 -6 -10z m4674 -2548 c3 -5 -1 -10 -10 -10
-9 0 -13 5 -10 10 3 6 8 10 10 10 2 0 7 -4 10 -10z m33 -21 c-3 -8 -7 -3 -11
10 -4 17 -3 21 5 13 5 -5 8 -16 6 -23z m-3 -50 c11 -17 2 -18 -19 -3 -17 12
-17 14 -4 14 9 0 20 -5 23 -11z m75 -53 c0 -2 -7 -6 -15 -10 -8 -3 -15 -1 -15
4 0 6 7 10 15 10 8 0 15 -2 15 -4z m8870 -80 c0 -9 -30 -14 -35 -6 -4 6 3 10
14 10 12 0 21 -2 21 -4z m-15 -56 c3 -5 1 -10 -4 -10 -6 0 -11 5 -11 10 0 6 2
10 4 10 3 0 8 -4 11 -10z m-8695 -131 c0 -12 -7 -19 -20 -19 -30 0 -90 27 -90
40 0 6 5 8 12 4 7 -4 25 -9 40 -11 20 -2 28 2 28 13 0 14 3 14 15 4 8 -7 15
-21 15 -31z m690 -262 c0 -2 -10 -12 -22 -23 l-23 -19 19 23 c18 21 26 27 26
19z m-50 -57 c0 -5 -4 -10 -10 -10 -5 0 -10 5 -10 10 0 6 5 10 10 10 6 0 10
-4 10 -10z m370 -74 c0 -9 -30 -14 -35 -6 -4 6 3 10 14 10 12 0 21 -2 21 -4z
m220 -40 c0 -9 -30 -14 -35 -6 -4 6 3 10 14 10 12 0 21 -2 21 -4z m-235 -16
c3 -5 1 -10 -4 -10 -6 0 -11 5 -11 10 0 6 2 10 4 10 3 0 8 -4 11 -10z m225
-40 c0 -5 -4 -10 -10 -10 -5 0 -10 5 -10 10 0 6 5 10 10 10 6 0 10 -4 10 -10z
m-193 -16 c-3 -3 -12 -4 -19 -1 -8 3 -5 6 6 6 11 1 17 -2 13 -5z m220 -40 c-3
-3 -12 -4 -19 -1 -8 3 -5 6 6 6 11 1 17 -2 13 -5z m-107 -58 c0 -3 -4 -8 -10
-11 -5 -3 -10 -1 -10 4 0 6 5 11 10 11 6 0 10 -2 10 -4z m7245 -6 c3 -5 1 -10
-4 -10 -6 0 -11 5 -11 10 0 6 2 10 4 10 3 0 8 -4 11 -10z m-6435 -64 c0 -9
-30 -14 -35 -6 -4 6 3 10 14 10 12 0 21 -2 21 -4z m-646 -55 c-2 -3 -12 3 -22
13 -16 17 -16 18 5 5 12 -7 20 -15 17 -18z m631 -1 c3 -5 1 -10 -4 -10 -6 0
-11 5 -11 10 0 6 2 10 4 10 3 0 8 -4 11 -10z m32 -56 c-3 -3 -12 -4 -19 -1 -8
3 -5 6 6 6 11 1 17 -2 13 -5z m1413 -114 c0 -5 -7 -10 -16 -10 -8 0 -12 5 -9
10 3 6 10 10 16 10 5 0 9 -4 9 -10z m-746 -93 c-22 -13 -36 1 -23 24 10 20 11
20 24 2 11 -15 11 -19 -1 -26z m399 1 c3 -12 4 -25 1 -30 -8 -13 -42 24 -36
40 7 20 29 14 35 -10z m2335 -93 c-3 -3 -9 2 -12 12 -6 14 -5 15 5 6 7 -7 10
-15 7 -18z m-2327 -2 c13 -16 12 -17 -3 -4 -17 13 -22 21 -14 21 2 0 10 -8 17
-17z m2329 -63 c0 -5 -2 -10 -4 -10 -3 0 -8 5 -11 10 -3 6 -1 10 4 10 6 0 11
-4 11 -10z m560 -64 c0 -9 -30 -14 -35 -6 -4 6 3 10 14 10 12 0 21 -2 21 -4z
m17 -112 c-3 -3 -12 -4 -19 -1 -8 3 -5 6 6 6 11 1 17 -2 13 -5z"/>
<path d="M0 5959 c0 -47 3 -88 6 -91 7 -7 64 24 64 35 0 4 -14 7 -31 7 -27 0
-30 2 -19 15 14 17 8 91 -9 108 -8 8 -11 -13 -11 -74z"/>
<path d="M16473 5043 c-7 -2 -13 -8 -13 -13 0 -10 38 -1 46 11 6 10 -13 11
-33 2z"/>
<path d="M2425 4760 c-3 -5 3 -10 14 -10 11 0 23 5 26 10 3 6 -3 10 -14 10
-11 0 -23 -4 -26 -10z"/>
<path d="M16380 4750 c0 -5 5 -10 10 -10 6 0 10 5 10 10 0 6 -4 10 -10 10 -5
0 -10 -4 -10 -10z"/>
<path d="M15633 4463 c-14 -5 -18 -23 -5 -23 5 0 17 7 28 15 14 11 15 14 4 14
-8 0 -21 -3 -27 -6z"/>
<path d="M16375 4249 c-10 -14 -1 -21 19 -13 9 3 13 10 10 15 -7 12 -21 11
-29 -2z"/>
<path d="M15540 4170 c0 -5 5 -10 10 -10 6 0 10 5 10 10 0 6 -4 10 -10 10 -5
0 -10 -4 -10 -10z"/>
<path d="M14967 4003 c-10 -9 -9 -23 1 -23 5 0 17 7 28 15 19 14 19 14 -2 15
-11 0 -24 -3 -27 -7z"/>
<path d="M14880 3710 c0 -5 5 -10 10 -10 6 0 10 5 10 10 0 6 -4 10 -10 10 -5
0 -10 -4 -10 -10z"/>
<path d="M13785 3440 c-3 -5 3 -10 14 -10 11 0 23 5 26 10 3 6 -3 10 -14 10
-11 0 -23 -4 -26 -10z"/>
<path d="M5625 3399 c-4 -6 -5 -12 -3 -14 7 -7 48 7 48 16 0 13 -37 11 -45 -2z"/>
<path d="M6180 3234 c0 -14 4 -23 9 -20 5 3 7 15 4 26 -7 28 -13 25 -13 -6z"/>
<path d="M6190 3164 c0 -5 7 -18 15 -28 8 -11 15 -16 15 -10 0 5 -7 18 -15 28
-8 11 -15 16 -15 10z"/>
<path d="M7863 2655 c0 -8 4 -12 9 -9 5 3 6 10 3 15 -9 13 -12 11 -12 -6z"/>
</g>
</svg>
