<?xml version="1.0" standalone="no"?>
<!DOCTYPE svg PUBLIC "-//W3C//DTD SVG 20010904//EN"
 "http://www.w3.org/TR/2001/REC-SVG-20010904/DTD/svg10.dtd">
<svg version="1.0" xmlns="http://www.w3.org/2000/svg"
 width="1920.000000pt" height="1080.000000pt" viewBox="0 0 1920.000000 1080.000000"
 preserveAspectRatio="xMidYMid meet">

<g transform="translate(0.000000,1080.000000) scale(0.100000,-0.100000)"
fill="#00131c" stroke="none">
<path d="M0 5959 c0 -47 3 -88 6 -91 7 -7 64 24 64 35 0 4 -14 7 -31 7 -27 0
-30 2 -19 15 14 17 8 91 -9 108 -8 8 -11 -13 -11 -74z"/>
<path d="M18870 5902 c0 -4 -10 -12 -22 -17 -15 -7 -24 -20 -26 -40 -2 -17
-15 -39 -30 -52 l-27 -23 25 -20 c20 -15 21 -20 8 -20 -23 0 -31 -16 -18 -39
9 -17 6 -23 -19 -36 -17 -8 -34 -22 -39 -31 -13 -23 -3 -56 14 -50 8 3 14 2
14 -3 0 -15 -52 -23 -61 -9 -11 17 -15 10 -23 -35 -5 -29 -3 -39 8 -43 13 -5
12 -13 -10 -50 -26 -43 -26 -45 -8 -65 17 -19 17 -20 -4 -35 -12 -8 -22 -24
-22 -34 0 -10 -9 -22 -20 -25 -30 -9 -24 -26 8 -23 21 2 26 -1 24 -14 -2 -10
2 -18 8 -18 6 0 9 -4 5 -10 -8 -13 -35 -1 -35 16 0 16 -9 18 -30 4 -11 -7 -12
-14 -3 -32 6 -13 14 -31 17 -41 3 -11 15 -21 25 -24 35 -9 12 -32 -30 -30 -38
1 -51 11 -26 20 6 2 8 8 4 13 -4 4 -21 0 -37 -10 -26 -15 -30 -15 -30 -2 0 9
14 22 30 31 34 17 39 27 13 24 -10 -1 -33 -1 -52 0 -32 1 -33 2 -18 19 27 29
20 35 -32 28 -30 -4 -52 -2 -56 4 -3 5 3 10 14 10 12 0 21 4 21 9 0 5 9 11 20
14 28 7 25 27 -4 27 -22 0 -24 3 -19 39 7 50 -3 91 -22 91 -8 0 -15 -6 -15
-13 0 -7 -10 -17 -22 -22 -14 -6 -24 -21 -26 -36 -2 -15 -14 -37 -28 -50 -31
-29 -30 -35 4 -53 25 -14 25 -15 5 -16 -28 0 -35 -12 -25 -41 8 -20 4 -25 -22
-39 -24 -12 -32 -23 -34 -49 -3 -27 0 -33 12 -28 9 4 16 3 16 -2 0 -14 -54
-24 -58 -12 -7 22 -20 10 -27 -25 -5 -28 -2 -39 11 -49 17 -12 16 -14 -4 -40
-23 -29 -29 -69 -12 -80 15 -9 12 -25 -5 -25 -9 0 -18 -12 -21 -30 -4 -16 -15
-32 -25 -35 -29 -9 -23 -27 7 -23 23 2 27 -1 30 -24 2 -20 -1 -25 -12 -21 -8
3 -14 11 -14 19 0 16 -9 18 -30 4 -12 -7 -12 -13 -1 -37 26 -54 29 -58 49 -57
17 0 18 -3 9 -17 -8 -12 -22 -17 -49 -16 -25 1 -34 5 -28 11 26 26 -2 35 -33
12 -24 -18 -31 -62 -16 -98 9 -22 9 -32 0 -41 -23 -23 -13 -39 21 -31 29 6 31
5 19 -10 -7 -9 -22 -16 -32 -16 -26 0 -29 -11 -22 -69 4 -35 10 -51 20 -51 10
0 4 -13 -17 -40 -21 -26 -30 -48 -27 -60 3 -13 0 -20 -9 -20 -8 0 -14 -4 -14
-10 0 -5 4 -10 8 -10 4 0 7 -10 6 -22 -4 -37 -16 -68 -26 -68 -6 0 -8 -7 -4
-15 3 -8 1 -15 -4 -15 -6 0 -4 -15 4 -35 8 -19 11 -35 5 -35 -5 0 -9 5 -9 10
0 6 -10 10 -22 10 -19 0 -20 2 -8 11 11 8 12 12 3 16 -7 2 -13 20 -13 39 0 19
-3 34 -6 34 -16 0 -44 -23 -44 -37 0 -9 -8 -22 -17 -29 -16 -12 -16 -15 -3
-24 12 -8 12 -10 1 -10 -8 0 -11 -7 -9 -18 3 -12 -2 -24 -13 -31 -21 -12 -26
-41 -7 -41 17 0 3 -11 -19 -14 -11 -2 -18 -11 -17 -25 0 -17 -5 -21 -28 -21
-17 0 -27 5 -26 13 2 7 -6 11 -22 9 l-25 -3 24 21 c18 15 19 20 7 20 -12 0
-16 10 -16 36 0 28 -3 35 -15 30 -8 -3 -22 -9 -31 -12 -10 -5 -17 0 -21 15 -3
11 -10 21 -15 21 -7 0 -7 5 0 13 7 8 7 18 2 27 -6 8 -10 25 -10 36 0 12 -6 26
-13 32 -7 6 -19 41 -27 77 -8 37 -17 68 -22 71 -4 3 -8 18 -8 35 0 19 -5 29
-15 29 -10 0 -15 10 -15 34 0 18 -6 39 -14 45 -8 7 -14 20 -13 29 1 22 -42 82
-59 82 -7 0 -18 -16 -24 -36 -7 -19 -20 -40 -31 -47 -10 -6 -26 -34 -35 -61
-16 -46 -16 -50 0 -62 16 -12 16 -13 -4 -24 -16 -9 -20 -18 -16 -35 3 -13 2
-26 -3 -29 -8 -5 -24 -63 -25 -91 -1 -5 -12 -20 -25 -32 -13 -12 -21 -29 -18
-37 3 -8 3 -17 -1 -21 -4 -3 -8 -23 -9 -43 -1 -20 -9 -42 -18 -48 -9 -7 -15
-27 -15 -56 0 -24 -4 -48 -10 -54 -5 -5 -11 -23 -12 -38 -2 -20 -11 -32 -28
-40 -14 -6 -31 -16 -38 -23 -13 -12 -27 -17 -44 -14 -4 0 -12 -8 -18 -19 -6
-11 -15 -20 -20 -20 -12 0 -2 28 24 62 21 29 16 49 -7 29 -12 -9 -16 -5 -23
21 l-8 33 -3 -37 c-3 -21 -8 -38 -12 -38 -14 0 -41 36 -41 53 0 20 -4 21 -31
7 -10 -6 -19 -18 -19 -27 0 -9 -8 -22 -17 -29 -16 -12 -16 -15 -3 -24 12 -8
12 -10 1 -10 -8 0 -11 -7 -9 -18 3 -12 -2 -24 -13 -31 -21 -12 -26 -41 -7 -41
17 0 3 -11 -19 -14 -11 -2 -18 -11 -17 -25 0 -11 -5 -21 -12 -21 -7 0 -16 -5
-20 -12 -5 -7 -2 -9 8 -6 21 8 19 -51 -3 -75 -15 -16 -16 -15 -14 17 0 29 -2
33 -16 25 -14 -7 -16 -5 -12 11 4 16 0 20 -18 20 -20 0 -21 2 -7 12 23 19 33
68 14 68 -10 0 -13 6 -10 15 4 11 0 15 -16 15 -18 0 -20 3 -11 13 6 8 7 17 2
23 -5 5 -11 22 -13 37 -2 15 -6 27 -10 27 -28 -1 -68 91 -68 155 0 14 -4 25
-10 25 -5 0 -10 14 -10 30 0 20 -5 30 -15 30 -10 0 -15 10 -15 28 0 15 -6 36
-14 47 -7 11 -13 27 -13 36 0 17 -42 79 -54 79 -12 0 -49 -56 -49 -74 0 -9 -6
-16 -14 -16 -8 0 -22 -22 -32 -52 -16 -48 -16 -52 0 -64 16 -12 16 -13 -4 -24
-15 -8 -20 -18 -17 -31 3 -11 -1 -32 -9 -48 -7 -15 -15 -42 -17 -59 -2 -18
-13 -40 -25 -50 -12 -10 -21 -27 -21 -38 0 -54 -10 -98 -25 -109 -9 -7 -16
-25 -16 -41 0 -16 -8 -38 -16 -49 -15 -19 -15 -19 -9 8 6 23 4 27 -16 27 -20
0 -21 2 -7 12 23 19 33 68 13 68 -8 0 -14 6 -12 12 1 9 -8 12 -28 10 l-30 -3
30 20 c22 15 25 21 13 21 -14 0 -18 8 -18 35 0 19 -3 35 -6 35 -15 0 -44 -22
-44 -35 0 -7 -7 -21 -17 -30 -13 -13 -13 -19 -4 -25 9 -5 10 -10 3 -14 -6 -4
-9 -13 -6 -21 3 -7 -3 -18 -14 -24 -16 -9 -21 -7 -25 11 -5 19 -7 19 -22 4 -9
-9 -23 -16 -30 -16 -20 0 -47 -30 -41 -46 3 -7 1 -16 -4 -19 -23 -14 3 74 65
228 5 13 2 17 -14 17 -12 0 -21 5 -21 10 0 6 6 10 14 10 22 0 25 11 16 60 -5
29 -4 50 2 58 6 6 7 12 4 12 -4 0 0 7 9 16 25 26 8 30 -25 6 -26 -20 -29 -20
-34 -4 -3 9 -1 35 4 57 10 43 6 55 -12 37 -20 -20 -33 -14 -14 6 11 13 14 28
10 50 -4 20 -2 38 6 47 21 25 -2 17 -32 -12 -30 -29 -46 -26 -29 5 18 34 13
52 -13 52 -13 0 -34 9 -47 21 -22 19 -23 19 -2 10 33 -17 53 -4 53 34 0 19 5
37 10 40 23 14 10 35 -22 35 -30 0 -30 1 -14 19 22 24 7 35 -37 27 -18 -3 -39
-1 -47 4 -12 8 -11 10 8 10 12 0 22 4 22 9 0 5 9 11 20 14 28 7 25 27 -5 27
-22 0 -24 3 -19 30 9 42 -4 100 -21 100 -8 0 -15 -6 -15 -13 0 -18 -91 -51
-100 -37 -4 7 -13 -2 -20 -20 -11 -27 -11 -32 5 -44 17 -12 16 -15 -6 -54 -23
-39 -23 -41 -5 -60 17 -20 17 -21 -8 -37 -14 -10 -26 -25 -26 -34 0 -9 -9 -22
-19 -28 -11 -7 -22 -29 -26 -54 -6 -35 -4 -45 11 -56 16 -12 15 -13 -13 -13
-49 0 -88 -80 -59 -122 13 -18 13 -23 -1 -44 -8 -13 -13 -33 -10 -44 3 -11 1
-20 -5 -20 -5 0 -7 -18 -2 -45 5 -38 4 -46 -12 -51 -37 -11 -47 -20 -58 -54
-10 -29 -9 -39 3 -58 11 -19 12 -28 3 -43 -20 -31 -15 -41 18 -34 41 9 38 -3
-6 -21 -33 -14 -36 -18 -30 -46 3 -17 6 -41 6 -54 0 -13 7 -24 18 -26 15 -3
13 -7 -10 -31 -16 -15 -28 -30 -28 -32 0 -3 18 -5 39 -5 22 0 43 -4 46 -10 6
-10 -7 -14 -34 -11 -7 2 -10 -2 -6 -8 3 -6 15 -11 25 -11 30 0 32 -15 7 -51
-41 -61 -42 -62 -17 -54 19 6 21 5 11 -13 -14 -26 -14 -35 -1 -27 11 7 14 -38
3 -48 -3 -4 -15 0 -25 10 -15 13 -23 14 -43 5 -23 -11 -24 -10 -18 18 3 19 1
30 -6 30 -14 0 -25 -44 -18 -71 3 -12 0 -30 -6 -40 -9 -15 -9 -23 0 -38 10
-16 10 -25 -1 -45 -14 -27 -26 -25 -26 6 0 10 -4 18 -10 18 -5 0 -10 13 -10
29 0 16 -6 31 -15 35 -8 3 -15 16 -15 29 0 13 -7 32 -15 43 -8 10 -15 28 -15
39 0 11 -11 33 -25 49 -20 25 -26 28 -39 17 -9 -8 -16 -20 -16 -28 0 -8 -11
-25 -25 -39 -13 -13 -32 -46 -40 -72 -14 -40 -14 -48 -2 -56 12 -8 11 -12 -4
-27 -10 -10 -16 -25 -13 -34 4 -8 1 -22 -6 -30 -7 -8 -10 -22 -6 -30 3 -9 2
-13 -4 -10 -10 6 -15 -20 -12 -58 1 -10 -2 -16 -6 -13 -13 8 -44 -34 -38 -50
3 -7 1 -16 -4 -19 -5 -3 -7 -19 -5 -36 2 -20 -3 -37 -16 -50 -13 -13 -19 -33
-19 -63 0 -25 -4 -48 -10 -51 -5 -3 -10 -20 -10 -36 0 -24 -6 -33 -28 -41 -24
-9 -27 -15 -24 -42 3 -17 12 -36 20 -42 14 -10 13 -13 -6 -25 -12 -8 -22 -22
-22 -31 0 -10 -6 -18 -13 -18 -27 0 -50 -38 -44 -70 4 -17 2 -30 -3 -30 -6 0
-8 -11 -4 -24 4 -18 0 -28 -15 -38 -12 -7 -21 -20 -21 -28 0 -9 -5 -21 -12
-28 -9 -9 -9 -15 0 -24 8 -8 8 -17 0 -31 -8 -16 -7 -23 6 -32 27 -21 18 -26
-15 -9 -24 12 -33 13 -39 4 -10 -15 -70 -3 -67 13 1 7 -7 11 -20 9 -27 -4 -29
6 -5 24 10 8 12 13 5 14 -8 0 -13 14 -13 35 0 19 -3 35 -7 35 -15 0 -35 -18
-47 -41 -7 -13 -19 -23 -26 -21 -7 2 -23 -7 -36 -18 -22 -21 -23 -21 -33 -3
-6 12 -7 34 -1 57 8 37 8 38 -18 31 -26 -6 -26 -6 -9 13 12 13 15 28 11 50 -4
20 -2 38 6 47 21 25 -2 17 -32 -12 -30 -29 -46 -26 -29 5 19 35 13 49 -23 56
-19 4 -40 13 -46 22 -11 13 -9 13 14 4 36 -13 46 -6 46 35 0 22 6 38 18 44 15
9 15 12 2 21 -8 5 -26 10 -39 10 -23 0 -23 1 -7 19 23 25 7 35 -43 26 -24 -4
-42 -2 -46 4 -3 7 2 11 14 11 12 0 21 4 21 9 0 5 9 13 20 16 28 9 25 25 -4 25
-22 0 -23 3 -19 44 5 43 -9 86 -27 86 -6 0 -10 -6 -10 -13 0 -7 -10 -17 -22
-22 -15 -6 -24 -21 -26 -39 -2 -16 -15 -38 -28 -48 -31 -25 -30 -34 4 -52 26
-15 26 -15 4 -16 -27 0 -38 -22 -24 -46 8 -14 4 -21 -22 -33 -24 -13 -32 -23
-34 -50 -3 -27 0 -33 12 -28 9 4 16 3 16 -2 0 -14 -54 -24 -58 -12 -7 22 -20
10 -27 -26 -5 -29 -3 -40 10 -49 16 -12 16 -15 -4 -40 -23 -30 -27 -64 -9 -82
10 -10 7 -16 -10 -28 -12 -8 -22 -23 -22 -33 0 -16 -58 -53 -87 -55 -6 -1 -22
-17 -35 -36 -29 -43 -52 -45 -56 -7 -5 38 5 64 19 50 14 -14 49 -5 49 12 0 7
-6 16 -12 18 -7 3 -3 6 10 6 24 1 30 17 10 24 -10 3 -9 8 2 22 14 17 13 18 -5
11 -11 -4 -26 -9 -34 -10 -7 -1 -17 -10 -23 -19 -5 -9 -13 -17 -18 -17 -12 0
-1 28 24 62 21 30 16 49 -9 28 -13 -10 -15 -9 -15 8 0 12 -4 24 -10 27 -6 4
-10 -7 -10 -24 0 -30 -13 -41 -25 -21 -3 6 -11 10 -16 10 -6 0 -1 -15 10 -34
22 -35 28 -72 11 -61 -5 3 -10 14 -10 24 0 13 -8 18 -30 18 -28 0 -39 -15 -22
-31 10 -11 11 -106 0 -106 -5 0 -20 7 -34 16 -27 19 -43 12 -25 -10 9 -11 9
-15 -1 -19 -9 -3 -5 -11 12 -25 21 -18 22 -21 8 -22 -30 0 -20 -18 15 -25 17
-4 35 -12 38 -18 4 -5 21 -10 38 -11 17 0 29 -5 28 -11 -6 -17 -64 -17 -96 -1
-21 11 -31 12 -33 4 -3 -8 -14 -6 -35 7 -29 17 -32 17 -48 2 -9 -10 -23 -17
-31 -17 -8 0 -12 -4 -9 -10 3 -5 17 -10 30 -10 19 0 23 -4 18 -17 -5 -13 -2
-15 15 -11 12 4 23 0 26 -8 3 -7 12 -11 21 -8 8 3 15 1 15 -4 0 -16 33 -19 60
-5 14 7 34 13 45 13 14 0 7 -8 -23 -25 -37 -21 -46 -23 -69 -12 -21 9 -27 9
-31 -1 -2 -7 -8 -10 -12 -7 -5 3 -27 3 -49 -1 -36 -6 -39 -8 -28 -25 7 -11 26
-26 44 -34 36 -18 42 -27 16 -24 -35 3 -41 -1 -36 -22 5 -19 4 -20 -16 -7 -18
11 -23 11 -30 -1 -11 -17 -48 -6 -61 20 -16 29 -37 23 -50 -16 -6 -19 -20 -41
-30 -48 -11 -7 -24 -26 -31 -43 -6 -16 -13 -23 -16 -16 -3 6 -11 12 -19 12 -9
0 -14 11 -14 28 0 16 -7 37 -15 48 -8 10 -15 28 -15 39 0 11 -11 33 -25 49
-20 25 -26 28 -39 17 -9 -8 -16 -20 -16 -28 0 -8 -11 -25 -25 -39 -13 -13 -31
-45 -40 -71 -14 -42 -15 -49 -1 -58 12 -10 12 -13 -5 -23 -11 -7 -19 -21 -18
-30 3 -22 -23 -112 -32 -112 -13 0 -17 41 -7 76 10 39 4 54 -14 36 -18 -18
-32 -14 -17 5 8 9 14 38 14 64 l0 48 -27 -26 c-26 -25 -55 -26 -30 -1 7 7 12
22 12 34 0 17 -8 23 -34 28 -19 4 -40 14 -47 23 -13 15 -12 15 8 5 33 -18 53
-5 53 34 0 21 6 37 18 43 23 13 3 34 -33 34 -24 0 -25 1 -10 17 21 23 7 32
-41 26 -56 -7 -62 4 -15 26 46 21 54 38 17 38 -19 0 -22 4 -19 24 3 16 10 23
19 19 9 -3 14 2 14 14 0 10 5 24 12 31 6 6 10 13 7 14 -2 2 -27 15 -56 30 -46
24 -53 25 -64 12 -11 -13 -10 -15 6 -12 28 5 30 -25 3 -37 -15 -7 -24 -20 -26
-40 -2 -18 -15 -39 -30 -51 l-27 -22 25 -21 c21 -17 22 -20 7 -21 -23 0 -33
-26 -17 -45 9 -11 6 -17 -19 -29 -16 -9 -34 -23 -39 -32 -13 -23 -3 -56 14
-50 25 10 15 -9 -12 -21 -20 -9 -26 -9 -31 3 -9 25 -21 15 -28 -23 -5 -29 -3
-40 11 -50 16 -11 16 -14 2 -30 -35 -40 -41 -63 -22 -84 17 -19 17 -20 -4 -35
-12 -8 -22 -24 -22 -34 0 -10 -9 -22 -20 -25 -30 -9 -24 -27 8 -23 21 2 26 -1
24 -14 -2 -10 3 -18 10 -18 9 0 9 -3 1 -11 -13 -13 -33 -4 -33 17 0 16 -9 18
-30 4 -12 -7 -12 -13 -1 -37 26 -54 29 -58 49 -57 19 0 19 -1 5 -23 -12 -18
-19 -21 -29 -12 -7 6 -23 8 -36 3 -20 -6 -21 -5 -9 10 8 9 11 19 7 23 -13 13
-52 -19 -62 -52 -9 -27 -7 -37 7 -57 17 -22 17 -24 -3 -45 -16 -18 -18 -25 -9
-36 14 -18 -9 -40 -33 -31 -18 7 -23 -20 -6 -31 9 -6 4 -93 -5 -104 -2 -1 -14
4 -27 13 -12 9 -25 16 -29 16 -15 0 -3 -56 16 -72 18 -16 18 -17 3 -18 -10 0
-18 -7 -18 -16 0 -10 6 -14 14 -11 8 3 20 -1 26 -8 10 -12 7 -17 -14 -25 -39
-14 -95 16 -96 51 0 15 -7 29 -15 33 -8 3 -15 16 -15 29 0 13 -7 32 -15 43 -8
10 -15 28 -15 39 0 11 -11 33 -25 49 -20 25 -26 28 -39 17 -9 -8 -16 -20 -16
-27 0 -8 -4 -14 -10 -14 -5 0 -10 -9 -10 -20 0 -11 -6 -20 -13 -20 -8 0 -20
-18 -27 -40 -16 -49 -35 -68 -44 -45 -3 9 -1 25 5 36 8 16 4 26 -21 57 -16 20
-30 44 -30 54 0 9 -5 20 -11 24 -8 4 -10 26 -5 65 5 50 3 61 -15 81 -13 15
-22 41 -25 72 -2 27 -10 56 -18 65 -14 17 -24 51 -33 114 -3 20 -9 37 -14 37
-5 0 -9 11 -9 24 0 13 -7 29 -15 36 -8 7 -15 22 -15 34 0 12 -7 31 -15 42 -8
10 -15 28 -15 39 -1 27 -45 79 -59 70 -7 -3 -19 -24 -28 -46 -8 -21 -21 -39
-28 -39 -7 0 -21 -23 -31 -52 -16 -48 -16 -52 0 -64 16 -12 16 -13 -4 -24 -15
-8 -20 -18 -17 -31 3 -11 -1 -32 -9 -48 -7 -15 -15 -42 -17 -60 -2 -18 -13
-38 -25 -47 -12 -8 -21 -25 -21 -37 1 -45 -12 -102 -26 -113 -9 -7 -15 -28
-15 -56 0 -42 -13 -68 -33 -68 -5 0 -4 7 3 15 9 10 9 15 1 15 -6 0 -11 16 -11
35 0 19 -3 35 -6 35 -16 0 -44 -23 -44 -37 0 -9 -8 -22 -17 -29 -16 -12 -16
-15 -3 -24 12 -8 12 -10 1 -10 -8 0 -11 -7 -8 -20 6 -24 -39 -58 -56 -41 -8 8
-5 11 11 11 25 0 28 16 12 69 -7 25 -6 38 6 57 23 34 13 52 -14 24 -33 -35
-43 -13 -28 62 7 36 -4 52 -19 28 -3 -6 -11 -10 -17 -10 -6 0 -5 7 3 17 8 9
14 38 14 64 l0 48 -27 -26 c-26 -25 -55 -26 -30 -1 7 7 12 22 12 34 0 17 -8
23 -34 28 -19 4 -40 14 -47 23 -13 15 -12 15 8 5 33 -18 53 -5 53 34 0 21 6
37 18 43 23 13 3 34 -33 34 -25 0 -25 0 -9 18 15 17 15 19 1 25 -8 3 -31 3
-51 0 -19 -3 -38 -1 -41 4 -3 6 3 10 14 10 12 0 21 4 21 9 0 5 9 11 20 14 28
7 25 27 -4 27 -22 0 -24 3 -19 39 7 50 -3 91 -22 91 -8 0 -15 -6 -15 -13 0 -7
-10 -17 -22 -22 -15 -7 -24 -20 -26 -40 -2 -18 -15 -39 -30 -51 l-27 -22 25
-21 c21 -17 22 -20 7 -21 -23 0 -33 -26 -17 -45 9 -11 6 -17 -19 -29 -16 -9
-34 -23 -39 -32 -13 -23 -3 -56 14 -50 25 10 15 -9 -12 -21 -20 -9 -26 -9 -31
3 -9 25 -21 15 -28 -23 -5 -29 -3 -40 11 -50 16 -11 16 -14 2 -30 -35 -40 -41
-63 -22 -84 17 -19 17 -20 -4 -35 -12 -8 -22 -24 -22 -34 0 -10 -9 -22 -20
-25 -30 -9 -24 -27 8 -23 21 2 26 -1 24 -15 -2 -9 3 -17 10 -17 9 0 9 -3 1
-11 -13 -13 -33 -4 -33 17 0 16 -9 18 -30 4 -12 -8 -13 -13 -3 -29 10 -15 9
-22 -2 -31 -11 -9 -14 -6 -17 12 -2 18 -10 24 -35 26 -36 4 -46 22 -13 22 22
0 22 -1 11 58 -6 32 -5 51 6 73 19 38 11 47 -17 19 -37 -37 -47 0 -24 83 6 18
-11 24 -21 7 -3 -5 -11 -10 -17 -10 -6 0 -4 8 6 18 11 13 14 28 10 50 -4 20
-2 38 6 47 21 25 -2 17 -32 -12 -30 -29 -46 -26 -29 5 18 34 13 52 -13 52 -13
0 -34 9 -47 21 -22 19 -23 19 -2 10 33 -17 53 -4 53 35 0 20 6 37 16 42 24 14
8 32 -28 32 -30 0 -30 1 -14 19 22 24 7 35 -37 27 -18 -3 -39 -1 -47 4 -12 8
-11 10 8 10 12 0 22 4 22 9 0 5 9 11 20 14 28 7 25 27 -5 27 -22 0 -24 3 -19
30 9 42 -4 100 -21 100 -8 0 -15 -6 -15 -13 0 -7 -10 -17 -22 -22 -15 -7 -24
-20 -26 -40 -2 -17 -15 -39 -30 -52 l-27 -23 25 -20 c20 -15 21 -20 8 -20 -23
0 -31 -16 -18 -39 9 -17 6 -23 -19 -36 -17 -8 -34 -22 -39 -31 -13 -23 -3 -56
14 -50 25 10 15 -9 -12 -21 -20 -9 -26 -9 -31 3 -9 25 -20 15 -27 -24 -4 -28
-2 -40 11 -49 15 -11 13 -13 -14 -13 -18 0 -35 -5 -38 -11 -11 -17 0 -20 28
-10 l26 10 -21 -35 c-20 -34 -20 -35 -2 -55 17 -19 17 -20 -4 -35 -12 -8 -22
-24 -22 -34 0 -10 -9 -22 -20 -25 -29 -9 -24 -26 6 -23 22 2 27 -1 29 -20 2
-30 -15 -40 -22 -12 -4 13 -11 19 -20 16 -8 -3 -17 -6 -19 -6 -2 0 -4 -7 -4
-16 0 -8 -4 -12 -10 -9 -5 3 -10 15 -10 26 0 24 -39 79 -56 79 -7 0 -18 -16
-24 -35 -6 -19 -20 -41 -31 -48 -16 -12 -49 -84 -49 -109 0 -5 10 -12 23 -17
20 -8 19 -9 -16 -16 -20 -4 -39 -11 -42 -15 -8 -12 -45 1 -45 15 0 7 -6 16
-12 18 -7 3 -3 6 10 6 24 1 30 17 10 24 -10 3 -9 8 2 22 14 17 13 18 -5 11
-11 -4 -26 -9 -32 -10 -7 -1 -20 -11 -28 -22 -13 -18 -14 -18 -15 -1 0 10 10
31 22 47 22 31 19 52 -5 31 -12 -9 -16 -5 -23 21 l-8 33 -3 -37 c-4 -40 -11
-46 -31 -26 -21 21 -23 2 -2 -25 20 -26 28 -73 10 -62 -5 3 -10 14 -10 24 0
13 -8 18 -30 18 -30 0 -41 -19 -20 -32 6 -4 9 -21 6 -38 -3 -17 0 -37 6 -44
17 -21 -18 -28 -47 -9 -32 21 -33 21 -31 -11 0 -16 10 -36 21 -45 19 -16 19
-17 1 -18 -12 0 -16 -5 -12 -15 8 -21 -3 -45 -21 -45 -10 0 -12 6 -8 20 8 24
-11 51 -29 44 -18 -7 -28 23 -16 46 7 13 6 22 -3 32 -22 22 -51 69 -55 92 -3
11 -4 47 -4 79 0 48 -4 63 -24 84 -15 16 -22 33 -19 44 3 9 2 20 -4 23 -5 3
-7 16 -4 28 4 12 0 26 -8 32 -15 12 -39 91 -39 131 0 14 -4 25 -10 25 -5 0
-10 14 -10 30 0 20 -5 30 -15 30 -10 0 -15 10 -15 28 0 15 -7 38 -16 50 -8 12
-13 26 -10 31 7 10 -41 76 -56 76 -6 0 -16 -9 -22 -20 -6 -11 -22 -31 -36 -45
-14 -14 -31 -47 -38 -75 -12 -44 -11 -51 3 -61 15 -11 15 -14 -5 -24 -16 -9
-20 -18 -16 -35 3 -13 1 -27 -5 -31 -6 -3 -9 -14 -6 -24 4 -16 -10 -30 -30
-30 -3 0 -3 16 0 37 l6 36 -29 -28 c-32 -31 -48 -29 -31 3 18 34 13 52 -13 52
-13 0 -34 9 -47 21 -22 19 -23 19 -2 10 33 -17 53 -4 53 35 0 20 6 37 16 42
24 14 8 32 -28 32 -30 0 -30 1 -14 19 22 24 7 35 -37 27 -18 -3 -39 -1 -47 4
-12 8 -11 10 8 10 12 0 22 4 22 9 0 5 9 11 20 14 28 7 25 27 -4 27 -22 0 -23
3 -18 50 3 32 0 55 -8 65 -15 18 -30 19 -30 2 0 -7 -10 -17 -22 -22 -15 -7
-24 -20 -26 -40 -2 -17 -15 -39 -30 -52 l-27 -23 25 -20 c21 -16 22 -20 7 -20
-23 0 -33 -26 -17 -45 9 -11 6 -17 -19 -29 -16 -9 -34 -23 -39 -32 -13 -23 -3
-56 14 -50 8 3 14 2 14 -3 0 -15 -52 -23 -61 -9 -11 17 -15 10 -23 -35 -5 -29
-3 -39 8 -43 13 -5 12 -13 -10 -50 -25 -43 -26 -45 -8 -65 17 -19 17 -20 -2
-35 -10 -8 -30 -19 -42 -24 -13 -6 -26 -19 -29 -30 -3 -11 -9 -20 -14 -20 -5
0 -9 -9 -9 -20 0 -11 -6 -20 -14 -20 -18 0 -49 -90 -40 -114 3 -9 1 -23 -5
-30 -7 -8 -11 -20 -10 -28 2 -7 -2 -29 -9 -48 -6 -19 -13 -47 -14 -62 -3 -31
-66 -72 -89 -57 -11 7 -10 9 4 9 20 0 23 26 5 33 -7 3 -3 6 10 6 24 1 30 16
10 25 -10 5 -10 7 0 12 24 11 12 20 -23 16 -38 -5 -41 -1 -24 30 13 24 5 35
-15 19 -11 -9 -14 -6 -18 19 -3 17 -1 33 4 36 15 9 9 21 -14 29 l-23 8 22 4
c21 4 22 8 16 51 -3 26 -7 49 -9 50 -1 2 6 19 17 38 21 39 10 45 -21 12 -18
-19 -22 -20 -30 -8 -12 19 -12 27 0 69 9 32 9 33 -18 26 l-27 -7 23 25 c15 16
20 27 13 32 -15 9 -14 48 2 64 18 21 -12 3 -40 -22 -27 -24 -39 -18 -24 11 19
35 13 49 -24 56 -19 4 -37 12 -41 18 -5 8 -2 9 9 5 30 -11 47 3 47 39 0 20 6
37 16 42 24 14 8 32 -28 32 -30 0 -30 1 -14 19 23 25 7 35 -43 26 -24 -4 -42
-2 -46 4 -3 7 2 11 14 11 12 0 21 5 21 10 0 6 6 10 14 10 7 0 19 7 26 15 11
13 8 15 -17 15 -30 0 -30 0 -25 50 3 32 0 55 -8 65 -16 19 -30 19 -30 0 0 -8
-6 -15 -14 -15 -19 0 -46 -39 -39 -56 3 -8 -6 -23 -21 -35 -33 -26 -33 -35 2
-53 26 -15 26 -15 4 -16 -28 0 -37 -21 -22 -49 6 -12 7 -21 1 -21 -5 0 -17 -3
-27 -7 -15 -6 -16 -1 -11 35 3 23 1 45 -4 48 -5 3 -9 1 -9 -4 0 -6 -13 -15
-29 -20 -29 -10 -56 -44 -44 -56 3 -3 1 -6 -5 -6 -14 0 -16 41 -4 55 5 6 19
39 31 75 13 36 27 73 32 82 12 24 12 25 -14 33 l-22 8 22 4 c21 4 22 8 16 51
-3 26 -7 49 -9 50 -1 2 6 19 17 38 21 39 10 45 -21 12 -18 -19 -22 -20 -30 -8
-12 19 -12 27 0 69 9 32 9 33 -18 26 l-27 -7 23 25 c15 16 20 27 13 32 -15 9
-14 48 2 64 18 21 -12 3 -40 -22 -27 -24 -39 -18 -24 11 19 35 13 49 -24 56
-19 4 -37 12 -41 18 -5 8 -2 9 9 5 30 -11 47 3 47 39 0 20 6 37 16 42 24 14 8
32 -28 32 -30 0 -30 1 -14 19 23 25 7 35 -43 26 -24 -4 -42 -2 -46 4 -3 7 2
11 14 11 12 0 21 4 21 8 0 5 12 14 27 21 20 9 23 15 14 20 -7 5 -21 6 -31 4
-16 -4 -17 1 -12 44 2 26 10 51 16 55 8 5 7 11 -2 20 -9 9 -12 9 -12 -1 0 -11
-3 -11 -14 -2 -12 10 -20 9 -40 -4 -14 -9 -30 -14 -35 -11 -5 4 -12 2 -16 -4
-3 -5 -18 -10 -31 -10 -31 0 -28 -20 4 -35 25 -11 29 -33 7 -41 -8 -4 -12 -10
-9 -15 3 -5 -6 -9 -20 -9 -14 0 -26 -4 -26 -10 0 -5 -10 -10 -22 -10 -19 0
-18 -3 13 -25 52 -37 59 -44 59 -61 0 -11 -6 -14 -16 -10 -8 3 -13 2 -10 -3 3
-4 -5 -14 -18 -21 -16 -8 -22 -18 -19 -31 7 -25 -14 -50 -34 -42 -10 4 -14 2
-10 -5 4 -6 2 -23 -5 -37 -10 -23 -10 -29 5 -40 17 -12 16 -15 -8 -50 -24 -36
-24 -40 -9 -63 15 -22 14 -25 -5 -39 -12 -8 -21 -23 -21 -33 0 -10 -9 -22 -20
-25 -30 -9 -24 -27 8 -23 21 2 26 -1 24 -14 -2 -10 2 -18 8 -18 6 0 9 -4 5
-10 -8 -13 -35 -1 -35 16 0 16 -9 18 -30 4 -12 -7 -12 -13 -1 -37 26 -54 29
-58 49 -57 19 0 19 -1 5 -23 -12 -18 -19 -21 -29 -12 -7 6 -23 8 -36 4 -19 -6
-21 -5 -10 6 27 29 14 42 -38 37 -28 -3 -53 -1 -56 3 -3 5 4 9 15 9 12 0 21 5
21 10 0 6 6 10 14 10 7 0 19 7 26 15 11 13 8 15 -17 15 -30 0 -30 0 -26 53 5
62 -6 82 -37 72 -18 -6 -20 -9 -9 -16 11 -7 11 -9 -2 -9 -22 0 -48 -32 -45
-55 1 -10 -8 -28 -23 -41 l-26 -22 25 -21 c21 -17 22 -20 7 -21 -23 0 -33 -26
-17 -45 9 -11 6 -17 -19 -29 -16 -9 -34 -23 -39 -32 -13 -22 -3 -56 14 -50 7
3 16 1 19 -4 4 -6 -2 -10 -12 -10 -11 0 -24 -5 -31 -12 -9 -9 -13 -7 -18 5
-10 28 -21 19 -28 -21 -4 -28 -2 -40 11 -49 15 -11 15 -14 1 -30 -34 -39 -41
-63 -24 -82 15 -16 15 -19 -4 -36 -11 -10 -20 -26 -20 -36 0 -10 -9 -21 -20
-24 -30 -9 -24 -26 8 -23 21 2 26 -1 24 -15 -2 -9 3 -17 10 -17 9 0 9 -3 1
-11 -13 -13 -33 -4 -33 17 0 16 -9 18 -29 5 -12 -8 -11 -17 8 -55 11 -25 28
-46 36 -46 13 0 14 -4 5 -21 -9 -16 -14 -18 -25 -9 -8 7 -24 9 -37 5 -19 -6
-21 -5 -10 6 19 20 15 27 -20 31 l-33 4 30 13 30 13 -27 10 c-17 6 -25 14 -21
24 6 15 -12 20 -21 5 -8 -13 -46 -1 -46 14 0 7 -6 16 -12 18 -7 3 -3 6 10 6
24 1 30 16 10 25 -10 5 -10 7 0 12 21 10 13 20 -15 19 -24 0 -28 4 -26 27 2
30 -6 35 -25 16 -9 -9 -12 -7 -12 10 0 11 -10 30 -21 41 -19 18 -21 27 -15 75
5 46 3 58 -15 78 -13 15 -22 41 -25 72 -2 27 -10 56 -17 65 -17 20 -37 89 -37
125 0 14 -4 26 -10 26 -5 0 -10 13 -10 29 0 16 -6 31 -15 35 -9 3 -15 18 -15
34 0 16 -7 35 -15 42 -8 7 -15 21 -15 32 0 10 -5 24 -10 31 -6 7 -17 21 -24
31 -17 25 -33 14 -53 -35 -8 -21 -21 -39 -29 -39 -14 0 -47 -96 -38 -111 3 -5
13 -9 22 -9 12 -1 8 -6 -10 -16 -17 -9 -28 -23 -28 -37 -1 -50 -5 -75 -12 -70
-5 2 -9 -5 -9 -16 -1 -12 -2 -27 -3 -33 -1 -7 -11 -21 -24 -32 -13 -10 -22
-26 -21 -35 1 -9 0 -18 -1 -21 -1 -3 -4 -23 -6 -45 -2 -22 -10 -45 -19 -51
-10 -8 -15 -28 -15 -63 0 -28 -4 -51 -10 -51 -5 0 -10 -16 -10 -35 0 -31 -3
-36 -30 -41 -30 -6 -38 -18 -21 -28 5 -3 7 -15 4 -26 -4 -14 0 -20 11 -20 22
0 20 -17 -4 -32 -11 -7 -20 -21 -20 -30 0 -10 -6 -18 -13 -18 -25 0 -50 -37
-43 -64 3 -14 1 -28 -4 -31 -6 -4 -8 -16 -5 -26 7 -20 -9 -49 -26 -49 -5 0 -9
7 -9 16 0 13 -7 15 -32 10 l-33 -6 30 20 c21 14 25 20 13 20 -14 0 -18 8 -18
35 0 19 -3 35 -6 35 -15 0 -44 -22 -44 -35 0 -7 -7 -21 -17 -30 -13 -13 -13
-19 -4 -25 9 -5 10 -10 3 -14 -6 -4 -9 -13 -6 -21 3 -7 -4 -18 -15 -25 -23
-12 -29 -40 -8 -40 8 0 8 -3 -2 -9 -15 -10 -101 15 -101 29 0 4 -10 10 -22 14
-22 5 -22 6 -3 20 20 15 20 15 -2 16 -32 0 -29 13 7 28 33 15 40 32 13 32 -14
0 -14 2 2 20 16 17 16 20 2 26 -9 3 -13 12 -10 20 6 16 -12 19 -22 4 -3 -5
-12 -7 -20 -4 -8 4 -19 -6 -29 -23 -20 -41 -44 -59 -57 -46 -14 14 -2 53 17
53 8 0 14 5 14 10 0 6 7 10 15 10 21 0 19 28 -2 33 -11 3 -7 5 10 6 28 1 36
15 15 25 -10 5 -10 7 0 12 23 11 12 24 -13 14 -14 -5 -25 -6 -25 -2 0 4 -9 -4
-20 -18 -16 -21 -20 -22 -20 -7 0 10 10 31 22 47 22 31 19 52 -5 31 -12 -9
-16 -5 -23 21 l-8 33 -3 -37 c-4 -37 -15 -48 -28 -28 -3 6 -11 10 -17 10 -6 0
-3 -11 6 -25 9 -14 15 -25 13 -25 -16 0 -67 24 -67 31 0 5 -9 9 -20 9 -25 0
-25 9 -2 26 16 12 15 13 -5 14 -13 0 -23 5 -23 10 0 6 6 10 13 10 7 0 22 7 33
15 16 12 17 16 5 24 -12 8 -12 13 -3 24 10 12 9 16 -3 20 -8 4 -12 13 -9 22 7
16 -11 21 -21 5 -3 -5 -12 -7 -20 -4 -8 4 -19 -6 -29 -23 -17 -33 -44 -59 -52
-50 -11 11 -15 75 -5 81 5 4 12 2 15 -3 8 -12 46 -2 46 12 0 5 -8 16 -17 24
-16 12 -15 13 10 7 27 -6 39 9 15 20 -10 5 -10 7 0 12 22 10 12 21 -15 16 -16
-2 -36 -14 -45 -26 -16 -19 -18 -19 -18 -3 0 11 9 32 21 49 23 31 19 49 -6 28
-13 -11 -15 -9 -15 13 0 14 -4 29 -10 32 -6 4 -10 -8 -10 -29 0 -38 -8 -44
-28 -24 -18 18 -15 -12 3 -36 8 -11 15 -29 14 -40 0 -19 -2 -18 -12 4 -6 14
-14 27 -18 30 -12 10 -16 48 -7 65 9 15 7 16 -12 10 -20 -6 -22 -4 -18 19 3
14 2 26 -2 26 -3 0 -6 16 -5 35 0 23 -3 31 -9 25 -16 -16 -25 -12 -19 10 4 16
0 20 -18 20 -20 0 -21 2 -7 13 23 18 33 67 13 67 -8 0 -14 6 -12 12 1 7 -8 14
-21 16 -22 3 -23 4 -5 17 10 9 13 14 6 15 -8 0 -13 14 -13 35 0 19 -3 35 -6
35 -18 0 -44 -23 -44 -39 0 -10 -7 -24 -15 -31 -13 -11 -13 -15 -3 -21 10 -7
10 -9 -1 -9 -8 0 -11 -7 -8 -20 3 -14 -1 -24 -14 -31 -13 -6 -19 -18 -17 -32
2 -17 -1 -21 -16 -19 -15 3 -18 -1 -14 -22 4 -18 1 -26 -8 -26 -8 0 -14 -5
-14 -11 0 -5 4 -8 9 -5 14 9 6 -47 -12 -82 -13 -27 -13 -32 -1 -32 8 0 14 -4
14 -9 0 -5 -9 -7 -20 -4 -26 7 -25 -7 1 -41 20 -26 20 -26 1 -26 -11 0 -22 6
-25 13 -9 25 -28 -10 -32 -57 -2 -37 0 -46 11 -42 8 3 14 2 14 -3 0 -5 -9 -11
-19 -14 -14 -3 -18 -11 -14 -25 3 -13 -2 -27 -16 -38 -12 -10 -21 -26 -21 -36
0 -18 -33 -33 -51 -22 -6 3 -9 19 -5 34 3 20 1 30 -10 34 -11 4 -14 22 -10 90
2 46 7 89 10 95 5 7 1 9 -9 5 -13 -5 -15 -1 -11 22 4 18 0 35 -11 46 -8 9 -13
24 -10 32 4 10 1 13 -7 10 -20 -8 -26 33 -15 88 11 51 2 78 -27 78 -20 0 -26
17 -14 39 8 16 6 24 -9 38 -40 39 -54 80 -53 166 0 48 -4 63 -24 84 -15 16
-22 33 -19 44 3 9 2 20 -4 23 -5 3 -7 16 -4 28 4 12 0 26 -8 32 -15 12 -39 91
-39 131 0 14 -4 25 -10 25 -5 0 -10 14 -10 30 0 20 -5 30 -15 30 -10 0 -15 10
-15 28 0 15 -7 38 -16 50 -8 12 -13 26 -10 31 7 11 -42 76 -57 76 -7 0 -16
-10 -22 -22 -5 -13 -13 -23 -17 -23 -5 0 -8 -7 -8 -15 0 -9 -7 -18 -14 -21 -8
-3 -23 -29 -32 -57 -16 -47 -16 -51 0 -63 16 -12 16 -13 -4 -24 -15 -8 -20
-18 -17 -31 3 -11 -1 -32 -9 -48 -7 -15 -15 -42 -17 -59 -2 -18 -13 -40 -25
-50 -12 -10 -21 -27 -21 -38 0 -82 -13 -110 -69 -142 -20 -11 -22 -10 -22 12
0 14 -5 28 -10 31 -6 4 -10 -8 -10 -29 0 -38 -8 -44 -28 -24 -18 18 -16 -13 3
-38 16 -22 20 -58 5 -49 -5 3 -10 14 -10 24 0 13 -8 18 -30 18 -34 0 -36 -5
-16 -33 10 -13 11 -23 4 -31 -8 -10 -6 -13 5 -13 9 0 19 -5 23 -11 4 -8 -1 -9
-15 -4 -19 6 -21 4 -15 -19 7 -31 -9 -34 -44 -10 -26 18 -41 12 -23 -10 9 -11
9 -15 -1 -19 -9 -3 -5 -11 12 -25 21 -18 22 -21 7 -22 -30 0 -14 -23 19 -27
16 -2 31 -8 32 -14 2 -5 10 -9 18 -9 8 0 14 -5 14 -10 0 -17 -29 -23 -45 -10
-8 7 -25 10 -36 7 -12 -3 -35 1 -52 9 -25 13 -31 14 -38 2 -8 -11 -11 -11 -18
1 -8 13 -15 13 -49 2 -22 -8 -45 -10 -51 -6 -18 11 -8 39 14 41 11 0 35 1 53
2 18 1 31 6 28 11 -4 5 7 22 24 37 l29 28 -31 13 c-18 8 -45 11 -60 8 -21 -5
-28 -3 -28 9 0 12 -5 14 -24 6 -33 -12 -66 -2 -66 22 0 16 5 19 27 14 21 -5
35 0 55 19 15 14 32 25 38 25 5 0 19 9 29 19 19 19 19 20 -9 26 -16 4 -34 4
-40 0 -5 -3 -10 1 -10 10 0 14 -3 14 -30 -2 -27 -16 -34 -16 -72 -3 -52 19
-66 44 -16 29 41 -11 51 -11 43 0 -3 5 -1 12 4 15 5 4 12 2 16 -4 3 -5 13 -10
21 -10 9 0 12 5 8 11 -4 7 -1 10 7 7 7 -2 22 4 33 14 11 10 26 18 33 18 7 0
13 4 13 9 0 9 -67 24 -86 20 -5 -1 -21 3 -35 10 -20 10 -32 10 -47 2 -29 -15
-52 -14 -52 4 0 8 -9 15 -21 15 -12 0 -17 4 -14 11 4 6 14 8 23 4 8 -3 19 0
23 7 6 9 13 8 29 -7 14 -13 23 -16 28 -8 4 6 20 13 35 15 37 4 38 20 2 37 -17
8 -31 18 -33 23 -2 4 -12 8 -23 8 -24 0 -24 9 -1 26 16 12 15 13 -5 14 -13 0
-23 5 -23 10 0 6 6 10 13 10 7 0 22 7 33 15 16 12 17 16 5 24 -12 8 -12 13 -3
24 10 12 9 16 -3 20 -8 4 -12 13 -9 22 7 16 -11 21 -21 5 -3 -5 -12 -7 -20 -4
-8 4 -19 -6 -29 -23 -17 -33 -44 -59 -52 -50 -11 11 -15 75 -5 81 5 4 12 2 15
-3 8 -12 46 -2 46 12 0 5 -8 16 -17 24 -16 12 -15 13 10 7 27 -6 39 9 15 20
-11 5 -11 7 0 12 22 10 12 21 -16 16 -15 -2 -35 -14 -44 -26 -16 -19 -18 -19
-18 -3 0 11 9 32 21 49 23 31 19 49 -6 28 -13 -11 -15 -9 -15 13 0 14 -4 29
-10 32 -6 4 -10 -8 -10 -29 0 -38 -8 -44 -28 -24 -18 18 -16 -13 3 -38 8 -10
14 -28 14 -39 -1 -17 -3 -16 -11 6 -8 19 -18 26 -39 26 -33 0 -35 -5 -15 -33
10 -13 11 -23 4 -31 -8 -10 -6 -13 5 -13 9 0 19 -5 23 -11 4 -8 -1 -9 -15 -4
-19 6 -21 4 -15 -19 7 -30 -10 -35 -42 -11 -27 21 -32 19 -30 -12 0 -16 10
-36 21 -45 19 -16 19 -17 2 -18 -29 0 -14 -23 18 -27 16 -3 33 -9 36 -15 4 -6
21 -11 38 -12 17 0 29 -5 28 -11 -4 -9 -49 -10 -117 -2 -32 3 -90 27 -90 37 0
4 -12 5 -27 3 l-28 -4 24 20 c18 16 19 21 7 21 -12 0 -16 9 -16 35 0 19 -3 35
-6 35 -15 0 -44 -22 -44 -35 0 -7 -7 -21 -17 -30 -13 -13 -13 -19 -4 -25 9 -5
10 -10 3 -14 -6 -4 -9 -13 -6 -21 3 -7 -4 -18 -15 -25 -22 -11 -29 -40 -9 -40
17 0 3 -11 -19 -14 -11 -2 -18 -11 -17 -25 0 -11 -5 -21 -13 -21 -7 0 -13 -5
-13 -11 0 -5 4 -8 8 -5 13 8 8 -56 -6 -81 -8 -14 -9 -24 -2 -28 5 -3 10 -11
10 -17 0 -7 -4 -7 -13 1 -9 7 -17 7 -24 0 -7 -7 -15 -2 -27 16 -9 14 -22 23
-28 19 -5 -4 -14 -1 -18 6 -11 17 0 50 16 50 8 0 23 9 33 19 19 19 19 20 -9
26 -16 4 -34 4 -40 0 -5 -3 -10 1 -10 9 0 9 -5 15 -11 13 -6 -1 -13 6 -14 16
-2 12 1 17 9 14 7 -3 19 3 27 14 7 10 21 19 31 19 10 0 18 4 18 9 0 10 -68 24
-90 19 -21 -5 -23 49 -2 57 13 5 9 12 -21 40 -38 35 -38 35 -34 101 3 48 1 67
-9 71 -7 2 -11 10 -8 18 3 7 -2 15 -10 18 -9 4 -16 13 -16 22 0 8 -4 15 -10
15 -5 0 -10 14 -10 30 0 17 -4 30 -10 30 -5 0 -10 11 -10 24 0 13 -7 29 -15
36 -10 9 -13 24 -8 56 3 26 2 44 -4 44 -14 0 -30 40 -38 94 -4 25 -13 50 -19
54 -7 4 -18 34 -25 67 -7 33 -17 68 -22 77 -5 10 -9 29 -9 43 0 16 -6 25 -15
25 -10 0 -15 10 -15 34 0 18 -7 39 -15 46 -9 7 -14 19 -11 26 6 15 -40 79 -57
79 -7 0 -16 -10 -22 -22 -5 -13 -13 -23 -17 -23 -5 0 -8 -9 -8 -20 0 -11 -7
-20 -15 -20 -9 0 -20 -20 -30 -52 -14 -48 -14 -54 1 -65 14 -10 13 -13 -6 -23
-15 -8 -20 -18 -17 -31 6 -23 -4 -31 -23 -18 -12 8 -12 12 -2 16 25 10 11 19
-23 15 -35 -4 -35 -4 -25 23 13 34 13 35 -6 35 -9 0 -18 9 -21 20 -3 11 -10
20 -15 20 -5 0 -7 9 -3 19 3 11 2 22 -4 25 -5 3 -7 15 -4 26 3 12 -1 28 -10
38 -8 9 -21 44 -28 77 -6 33 -16 64 -21 69 -4 6 -8 23 -8 38 0 18 -5 28 -15
28 -10 0 -15 10 -15 28 0 15 -6 36 -14 47 -7 11 -13 27 -13 36 0 20 -43 79
-59 79 -7 0 -17 -14 -23 -31 -9 -27 -13 -30 -26 -19 -8 7 -15 25 -15 41 0 15
-5 31 -10 34 -6 3 -10 19 -10 36 0 19 -5 29 -15 29 -10 0 -15 10 -15 34 0 18
-6 39 -14 45 -8 7 -14 20 -13 29 1 22 -42 82 -59 82 -7 0 -18 -16 -24 -36 -7
-19 -20 -40 -31 -47 -10 -6 -26 -34 -35 -61 -16 -46 -16 -50 0 -62 16 -12 16
-13 -4 -24 -16 -9 -20 -18 -16 -35 3 -13 2 -26 -3 -29 -8 -5 -24 -63 -25 -91
-1 -5 -12 -20 -25 -32 -13 -12 -21 -29 -18 -37 3 -8 3 -17 -1 -21 -4 -3 -8
-23 -9 -43 -1 -20 -9 -42 -18 -48 -9 -6 -15 -26 -15 -47 0 -36 0 -36 -30 -26
-16 6 -30 15 -30 20 0 5 -9 9 -20 9 -25 0 -25 9 -2 26 16 12 15 13 -5 14 -32
0 -29 13 7 28 33 15 40 32 13 32 -15 0 -15 1 1 19 15 16 15 19 2 24 -9 4 -13
13 -10 22 6 15 -7 21 -20 8 -4 -4 -14 -8 -21 -8 -7 0 -24 -16 -37 -35 -29 -43
-52 -45 -56 -7 -5 38 5 64 19 50 14 -14 49 -5 49 12 0 7 -6 16 -12 18 -7 3 -3
6 10 6 24 1 30 17 10 24 -10 3 -9 8 2 22 14 17 13 18 -5 11 -11 -4 -26 -9 -34
-10 -7 -1 -17 -10 -23 -19 -5 -9 -13 -17 -18 -17 -12 0 -1 28 24 62 21 30 16
49 -9 28 -13 -10 -15 -9 -15 8 0 12 -4 24 -10 27 -6 4 -10 -7 -10 -24 0 -30
-13 -41 -25 -21 -3 6 -11 10 -16 10 -6 0 -1 -15 10 -34 22 -35 28 -72 11 -61
-5 3 -10 14 -10 24 0 13 -8 18 -30 18 -28 0 -39 -15 -22 -31 10 -11 11 -106 0
-106 -5 0 -20 7 -34 16 -27 19 -43 12 -25 -10 9 -11 9 -15 -1 -19 -9 -3 -5
-11 12 -25 21 -18 22 -21 8 -22 -30 0 -20 -18 15 -25 17 -4 35 -12 38 -18 4
-5 21 -10 38 -11 17 0 29 -5 28 -11 -6 -17 -64 -17 -96 -1 -21 11 -31 12 -33
4 -3 -8 -15 -5 -37 8 -25 14 -35 16 -38 7 -8 -23 -24 -14 -39 23 -12 29 -13
46 -4 88 12 61 6 89 -20 81 -22 -7 -34 20 -19 46 8 16 4 26 -21 57 -16 20 -30
44 -30 54 0 9 -5 20 -11 24 -8 4 -10 26 -5 65 5 50 3 61 -15 81 -13 15 -22 41
-25 72 -2 27 -10 56 -17 65 -17 20 -37 89 -37 125 0 14 -4 26 -10 26 -5 0 -10
13 -10 29 0 16 -6 31 -15 35 -8 3 -15 16 -15 29 0 13 -7 32 -15 43 -8 10 -15
27 -15 37 0 10 -5 23 -10 30 -6 7 -17 21 -24 31 -17 25 -33 14 -53 -35 -8 -21
-21 -39 -29 -39 -14 0 -47 -96 -38 -111 3 -5 13 -9 22 -9 12 -1 8 -6 -10 -16
-17 -9 -28 -23 -28 -37 -1 -50 -5 -75 -13 -70 -4 2 -8 -5 -9 -16 0 -12 -1 -27
-2 -33 -1 -7 -11 -21 -24 -32 -13 -10 -22 -26 -21 -35 1 -9 0 -18 -1 -21 -1
-3 -4 -23 -6 -45 -2 -22 -10 -45 -19 -51 -10 -8 -15 -28 -15 -63 0 -28 -4 -51
-10 -51 -5 0 -10 -16 -10 -35 0 -31 -4 -36 -30 -41 -26 -6 -29 -9 -23 -38 3
-17 10 -34 15 -37 6 -3 -1 -9 -13 -12 -33 -9 -45 7 -30 40 10 22 10 29 -2 38
-19 14 -50 64 -55 89 -3 11 -4 47 -4 79 0 48 -4 63 -24 84 -15 16 -22 33 -19
44 3 9 2 20 -4 23 -5 3 -7 16 -4 28 4 12 0 26 -8 32 -15 12 -39 91 -39 131 0
14 -4 25 -10 25 -5 0 -10 14 -10 30 0 20 -5 30 -15 30 -10 0 -15 10 -15 28 0
15 -7 38 -16 50 -8 12 -13 26 -10 31 7 11 -42 76 -57 76 -7 0 -16 -10 -22 -22
-5 -13 -13 -23 -17 -23 -5 0 -8 -6 -8 -13 0 -22 -43 -50 -75 -50 -16 0 -42 6
-56 13 -20 9 -32 9 -47 1 -29 -15 -52 -14 -52 4 0 8 -9 15 -21 15 -12 0 -17 4
-14 11 4 6 14 8 23 4 8 -3 19 0 23 7 6 9 13 7 30 -7 16 -14 23 -16 26 -7 3 6
18 12 33 12 43 0 46 18 6 37 -20 9 -36 20 -36 25 0 4 -9 8 -20 8 -25 0 -25 9
-3 26 17 12 16 13 -4 14 -13 0 -23 5 -23 10 0 6 6 10 13 10 7 0 22 7 33 15 16
12 17 16 5 24 -12 8 -12 13 -3 24 10 12 9 16 -3 20 -8 4 -12 13 -9 22 7 16
-11 21 -21 5 -3 -5 -12 -7 -20 -4 -8 4 -19 -6 -29 -23 -17 -33 -44 -59 -52
-50 -11 11 -15 75 -5 81 5 4 12 2 15 -3 8 -12 46 -2 46 12 0 5 -8 16 -17 24
-16 12 -15 13 9 7 28 -6 40 9 16 20 -11 5 -11 7 0 12 22 10 12 21 -15 16 -16
-2 -36 -14 -45 -26 -16 -19 -18 -19 -18 -3 0 11 9 32 21 49 23 31 19 49 -6 28
-13 -11 -15 -9 -15 13 0 14 -4 29 -10 32 -6 4 -10 -8 -10 -29 0 -38 -8 -44
-28 -24 -18 18 -16 -13 3 -38 8 -10 14 -28 14 -39 -1 -16 -3 -14 -12 7 -10 26
-23 33 -53 29 -17 -2 -25 28 -14 49 8 15 6 24 -7 38 -40 40 -67 122 -59 176 6
38 4 48 -19 71 -17 19 -22 32 -16 39 6 7 6 17 1 26 -6 8 -10 25 -10 36 0 12
-6 27 -14 33 -7 6 -17 30 -21 54 -14 76 -15 81 -25 91 -6 6 -10 22 -10 37 0
15 -7 29 -15 33 -8 3 -15 16 -15 29 0 13 -7 32 -15 43 -8 10 -15 28 -15 39 0
11 -12 33 -26 48 -20 24 -27 27 -39 17 -8 -7 -15 -19 -15 -26 0 -8 -4 -14 -10
-14 -7 0 -10 -967 -10 -2880 l0 -2880 9600 0 9600 0 0 2740 c0 2429 -2 2740
-15 2740 -8 0 -15 -6 -15 -13 0 -7 -10 -17 -22 -22 -16 -7 -24 -20 -26 -42 -2
-21 -12 -37 -29 -48 l-26 -17 6 31 c6 30 -5 42 -18 21 -3 -5 -11 -10 -17 -10
-6 0 -5 7 3 17 8 9 14 38 14 64 l0 48 -27 -26 c-31 -29 -46 -26 -29 5 18 34
13 52 -13 52 -13 0 -34 9 -47 21 -22 19 -23 19 -2 10 33 -17 53 -4 53 35 0 20
6 37 16 42 24 14 8 32 -28 32 -30 0 -30 1 -14 19 22 24 7 35 -37 27 -18 -3
-39 -1 -47 4 -12 8 -11 10 8 10 12 0 22 4 22 9 0 5 9 11 20 14 28 7 25 27 -4
27 -22 0 -23 3 -18 45 3 28 0 50 -8 60 -13 16 -30 20 -30 7z m-10865 -3372 c3
-5 1 -10 -4 -10 -6 0 -11 5 -11 10 0 6 2 10 4 10 3 0 8 -4 11 -10z m6563 -397
c-5 -7 -7 -17 -3 -23 3 -5 -1 -13 -10 -17 -25 -9 -34 15 -18 48 12 23 17 26
28 16 9 -8 10 -16 3 -24z"/>
<path d="M75 5810 c-7 -12 2 -12 30 0 19 8 19 9 -2 9 -12 1 -25 -3 -28 -9z"/>
<path d="M18625 5459 c-4 -6 -5 -12 -3 -14 7 -7 48 7 48 16 0 13 -37 11 -45
-2z"/>
<path d="M18147 4963 c-15 -14 -6 -24 16 -18 35 11 44 25 16 25 -14 0 -29 -3
-32 -7z"/>
<path d="M18055 4670 c-3 -5 1 -10 9 -10 8 0 18 5 21 10 3 6 -1 10 -9 10 -8 0
-18 -4 -21 -10z"/>
<path d="M15633 4463 c-14 -5 -18 -23 -5 -23 5 0 17 7 28 15 14 11 15 14 4 14
-8 0 -21 -3 -27 -6z"/>
<path d="M15540 4170 c0 -5 5 -10 10 -10 6 0 10 5 10 10 0 6 -4 10 -10 10 -5
0 -10 -4 -10 -10z"/>
<path d="M15455 3850 c-3 -5 1 -10 9 -10 8 0 18 5 21 10 3 6 -1 10 -9 10 -8 0
-18 -4 -21 -10z"/>
<path d="M15447 3354 c-14 -14 -7 -25 13 -22 12 2 21 8 21 13 0 12 -24 18 -34
9z"/>
<path d="M14348 2683 c7 -3 16 -2 19 1 4 3 -2 6 -13 5 -11 0 -14 -3 -6 -6z"/>
<path d="M14045 2319 c-12 -19 2 -21 32 -5 l28 15 -27 1 c-15 0 -30 -5 -33
-11z"/>
<path d="M7767 2203 c-10 -9 -9 -23 1 -23 5 0 17 7 28 15 19 14 19 14 -2 15
-11 0 -24 -3 -27 -7z"/>
<path d="M7675 1910 c-3 -5 1 -10 9 -10 8 0 18 5 21 10 3 6 -1 10 -9 10 -8 0
-18 -4 -21 -10z"/>
<path d="M12670 1633 c0 -5 4 -14 9 -22 7 -10 13 -11 31 -1 12 6 20 13 18 14
-9 8 -58 15 -58 9z"/>
<path d="M7367 1623 c-10 -9 -9 -23 1 -23 5 0 17 7 28 15 19 14 19 14 -2 15
-11 0 -24 -3 -27 -7z"/>
<path d="M8945 1459 c-4 -6 -5 -12 -3 -14 7 -7 48 7 48 16 0 13 -37 11 -45 -2z"/>
<path d="M11007 1343 c-10 -9 -9 -23 1 -23 5 0 17 7 28 15 19 14 19 14 -2 15
-11 0 -24 -3 -27 -7z"/>
<path d="M12595 1330 c-3 -5 1 -10 9 -10 8 0 18 5 21 10 3 6 -1 10 -9 10 -8 0
-18 -4 -21 -10z"/>
</g>
</svg>
